<?xml version="1.0" standalone="no"?>
<!DOCTYPE svg PUBLIC "-//W3C//DTD SVG 1.1//EN" "http://www.w3.org/Graphics/SVG/1.1/DTD/svg11.dtd" >
<svg>
<metadata>
Created by FontForge 20090914 at Mon May 22 13:06:54 2017
 By www-data
Copyright (c) 2012, Natalia Kasatkina (kasatkinanataliya@gmail.com)
</metadata>
<defs>
<font id="CherrySwash-Regular" horiz-adv-x="550" >
  <font-face 
    font-family="Cherry Swash"
    font-weight="400"
    font-stretch="normal"
    units-per-em="1000"
    panose-1="2 0 0 0 0 0 0 0 0 0"
    ascent="800"
    descent="-200"
    x-height="500"
    cap-height="700"
    bbox="-19 -301 1189 1000"
    underline-thickness="50"
    underline-position="-210"
    unicode-range="U+0020-U+20AC"
  />
<missing-glyph horiz-adv-x="310" 
 />
    <glyph glyph-name=".notdef" horiz-adv-x="310" 
 />
    <glyph glyph-name="space" unicode=" " horiz-adv-x="310" 
 />
    <glyph glyph-name="exclam" unicode="!" horiz-adv-x="315" 
d="M123.5 7c-10.333 11.333 -15.5 24.5 -15.5 39.5s4.66699 27.833 14 38.5s21.333 16 36 16s27.167 -5.66699 37.5 -17s15.5 -24.5 15.5 -39.5s-4.66699 -27.833 -14 -38.5s-21.333 -16 -36 -16s-27.167 5.66699 -37.5 17zM128 201l-20 600h105l-20 -600h-65z" />
    <glyph glyph-name="quotedbl" unicode="&#x22;" horiz-adv-x="366" 
d="M135 487h-61l-14 213h90zM291 487h-61l-14 213h90z" />
    <glyph glyph-name="numbersign" unicode="#" horiz-adv-x="639" 
d="M346 40l24 140h-151l-24 -140h-60l24 140h-99l13 58h96l28 157h-115l13 58h112l28 157h60l-28 -157h151l28 157h60l-28 -157h101l-8 -58h-103l-28 -157h117l-8 -58h-119l-24 -140h-60zM257 395l-28 -157h151l28 157h-151z" />
    <glyph glyph-name="dollar" unicode="$" horiz-adv-x="535" 
d="M224 769l70 -0.00683594v-72c78.667 -1.33301 141.334 -15 188.001 -41v-134h-70v83c-38.667 11.333 -80.667 17 -126 17h-6c-41.333 -1.33301 -76.833 -11.166 -106.5 -29.499s-44.5 -42.166 -44.5 -71.499c0 -44.667 53.667 -84.667 161 -120
c33.333 -11.333 59.833 -21.166 79.5 -29.499s41.834 -20.166 66.501 -35.499c48.667 -31.333 73 -75.666 73 -132.999s-18.333 -101.666 -55 -132.999s-86.667 -50 -150 -56v-75h-70v73c-78.667 2.66699 -144.667 19.667 -198 51v135h70v-81c44.667 -20 93 -30 145 -30
s93.667 10.833 125 32.5s47 49.5 47 83.5c0 22.667 -5.16699 39 -15.5 49l-22.5 22c-4.66699 4.66699 -13.834 10 -27.501 16l-27.5 12c-18.667 7.33301 -41.834 15.833 -69.501 25.5s-49.334 17.834 -65.001 24.501s-34.667 16 -57 28s-39.166 23.667 -50.499 35
c-28.667 28.667 -43 64.5 -43 107.5s16.333 79.667 49 110s76 49.833 130 58.5v78z" />
    <glyph glyph-name="percent" unicode="%" horiz-adv-x="820" 
d="M234 -22l272 723h70l-272 -723h-70zM61 391c-28.667 34 -43 76.833 -43 128.5s14.333 94.667 43 129s68.334 51.5 119.001 51.5s90.334 -17.167 119.001 -51.5s43 -77.333 43 -129s-14.333 -94.5 -43 -128.5s-68.334 -51 -119.001 -51s-90.334 17 -119.001 51zM94 520
c0 -32.667 7.5 -59.667 22.5 -81s36.167 -32 63.5 -32s48.333 10.667 63 32s22 48.333 22 81s-7.33301 59.5 -22 80.5s-35.667 31.5 -63 31.5s-48.5 -10.5 -63.5 -31.5s-22.5 -47.833 -22.5 -80.5zM518 47c-28.667 34 -43 76.833 -43 128.5s14.333 94.667 43 129
s68.334 51.5 119.001 51.5s90.334 -17.167 119.001 -51.5s43 -77.333 43 -129s-14.333 -94.5 -43 -128.5s-68.334 -51 -119.001 -51s-90.334 17 -119.001 51zM551 176c0 -32.667 7.5 -59.667 22.5 -81s36.167 -32 63.5 -32s48.333 10.667 63 32s22 48.333 22 81
s-7.33301 59.5 -22 80.5s-35.667 31.5 -63 31.5s-48.5 -10.5 -63.5 -31.5s-22.5 -47.833 -22.5 -80.5z" />
    <glyph glyph-name="ampersand" unicode="&#x26;" horiz-adv-x="726" 
d="M31 183c0 45.333 11.667 83.8291 35 115.496s60.666 65.834 111.999 102.501c-39.333 66.667 -59 122.334 -59 167.001s14.333 81.5 43 110.5s68.834 43.5 120.501 43.5s90.834 -14.167 117.501 -42.5s40 -63.166 40 -104.499s-11.833 -75.666 -35.5 -102.999
s-62.5 -59 -116.5 -95c51.333 -76 111 -147 179 -213c51.333 56 77 113.333 77 172h-62v73h202v-73h-59c0 -36 -8.66699 -74.167 -26 -114.5s-41.333 -77.5 -72 -111.5c49.333 -42 97.666 -73.333 144.999 -94l-38 -70c-51.333 27.333 -105.333 65 -162 113
c-64 -47.333 -136 -71 -216 -71c-66 0 -120 16.5 -162 49.5s-63 81.5 -63 145.5zM157 93.9961c27.333 -21.333 63.832 -32 109.499 -32s93.834 17.667 144.501 53c-72 70 -134.667 142.667 -188 218c-38 -28 -65.333 -53 -82 -75s-25 -49.5 -25 -82.5
s13.667 -60.167 41 -81.5zM223.499 627.996c-13 -15.333 -19.5 -36.668 -19.5 -64.001s13.667 -66.666 41 -117.999c42 26.667 70.833 48.5 86.5 65.5s23.5 37.833 23.5 62.5c0 51.333 -24.333 77 -73 77c-26 0 -45.5 -7.66699 -58.5 -23z" />
    <glyph glyph-name="quotesingle" unicode="'" horiz-adv-x="210" 
d="M135 487h-61l-14 213h90z" />
    <glyph glyph-name="parenleft" unicode="(" horiz-adv-x="285" 
d="M78 132.5c-12 53 -18.001 108.33 -18.001 165.997s6 113.334 18 167.001s28 99.834 48 138.501c33.333 67.333 67.333 120.333 102 159l44 -35c-87.333 -114.667 -131 -258.667 -131 -432c0 -71.333 9 -140.166 27 -206.499s35.333 -115 52 -146s33.667 -58.5 51 -82.5
l-43 -32c-35.333 40.667 -66.166 88.167 -92.499 142.5s-45.5 108 -57.5 161z" />
    <glyph glyph-name="parenright" unicode=")" horiz-adv-x="287" 
d="M209 465.5c12 -53.667 17.998 -109.332 17.998 -166.999s-6 -113 -18 -166s-27.667 -99.167 -47 -138.5c-33.333 -69.333 -67.666 -124.333 -102.999 -165l-43 32c17.333 24 34.333 51.5 51 82.5s34 79.667 52 146s27 135.166 27 206.499
c0 173.333 -43.667 317.333 -131 432l44 35c34.667 -38.667 65.334 -84.5 92.001 -137.5s46 -106.333 58 -160z" />
    <glyph glyph-name="asterisk" unicode="*" horiz-adv-x="389" 
d="M238 690l-23 -113l101 54l27 -79l-118 -14l84 -79l-65 -49l-50 106l-49 -105l-67 48l84 80l-113 15l26 80l101 -57l-23 113h85z" />
    <glyph glyph-name="plus" unicode="+" horiz-adv-x="490" 
d="M215 261h-155v57h155v156h60v-156h155v-57h-155v-157h-60v157z" />
    <glyph glyph-name="comma" unicode="," horiz-adv-x="250" 
d="M81.5 14c-7.66699 12 -11.501 24.999 -11.501 38.999s5.66699 26.167 17 36.5s25.333 15.5 42 15.5s30.834 -5.66699 42.501 -17s17.5 -28.833 17.5 -52.5s-8 -54.5 -24 -92.5s-35.667 -69.667 -59 -95l-32 20c12.667 16 23.5 35.833 32.5 59.5s13.5 44.834 13.5 63.501
c-18 3.33301 -30.833 11 -38.5 23z" />
    <glyph glyph-name="hyphen" unicode="-" horiz-adv-x="370" 
d="M310 261h-250v57h250v-57z" />
    <glyph glyph-name="period" unicode="." horiz-adv-x="245" 
d="M87 7c-11.333 11.333 -17 25.166 -17 41.499s5.66699 30.166 17 41.499s25.166 17 41.499 17s30.166 -5.66699 41.499 -17s17 -25.166 17 -41.499s-5.66699 -30.166 -17 -41.499s-25.166 -17 -41.499 -17s-30.166 5.66699 -41.499 17z" />
    <glyph glyph-name="slash" unicode="/" horiz-adv-x="375" 
d="M10 -30l290 730h65l-290 -730h-65z" />
    <glyph glyph-name="zero" unicode="0" horiz-adv-x="570" 
d="M114 280c0 -62 15.667 -113.333 47 -154s72.833 -61 124.5 -61s93 20.333 124 61s46.5 92 46.5 154s-15.667 113.333 -47 154s-72.833 61 -124.5 61s-93 -20.333 -124 -61s-46.5 -92 -46.5 -154zM24 280c0 84 23.167 153.333 69.5 208s110.166 82 191.499 82
s145.166 -27.333 191.499 -82s69.5 -124 69.5 -208s-23.167 -153.333 -69.5 -208s-110.166 -82 -191.499 -82s-145.166 27.333 -191.499 82s-69.5 124 -69.5 208z" />
    <glyph glyph-name="one" unicode="1" horiz-adv-x="457" 
d="M280 75h127v-75h-352v75h140v376l-140 -23l-11 47l236 95v-495z" />
    <glyph glyph-name="two" unicode="2" 
d="M47 0l-0.00195312 55.0059c2 1.33301 16.667 9.66602 44 24.999s50.833 29.166 70.5 41.499s44.834 29.666 75.501 51.999s56 43.5 76 63.5s37.5 42.667 52.5 68s22.5 49.666 22.5 72.999c0 71.333 -49 107 -147 107c-42 0 -80.667 -5.66699 -116 -17v-83h-70v134
c46.667 27.333 107.667 41 183 41c156 0 234 -60.333 234 -181c0 -54.667 -26.167 -110.334 -78.5 -167.001s-116.166 -106.334 -191.499 -149.001l78 12h143l13 69h70l-20 -144h-439z" />
    <glyph glyph-name="three" unicode="3" horiz-adv-x="522" 
d="M58 375l0.00195312 156.002l15 3c54 16.667 110.833 25 170.5 25s111.834 -14.333 156.501 -43s67 -73 67 -133c0 -86 -43 -144.667 -129 -176c97.333 -27.333 146 -84.333 146 -171c0 -72.667 -24.333 -126.834 -73 -162.501s-112.834 -53.5 -192.501 -53.5
s-146.834 13.667 -201.501 41l33 66c52.667 -21.333 107.5 -32 164.5 -32s102.167 11.167 135.5 33.5s50 57.166 50 104.499s-16.667 81.5 -50 102.5s-75.333 31.5 -126 31.5h-62v75h45c50 0 91.833 11.667 125.5 35s50.5 59 50.5 107c0 34.667 -14.833 60 -44.5 76
s-63.334 24 -101.001 24s-74.167 -4.66699 -109.5 -14v-95h-70z" />
    <glyph glyph-name="four" unicode="4" horiz-adv-x="558" 
d="M434 560v-464h108v-75h-108v-115h77v-75h-239v75h77v115h-327v62l347 477h65zM349 96v313l-224 -313h224z" />
    <glyph glyph-name="five" unicode="5" horiz-adv-x="524" 
d="M463 560l0.00292969 -164.002h-70v89h-205l-32 -209c23.333 4.66699 50 7 80 7c71.333 0 129.333 -18.833 174 -56.5s67 -95.167 67 -172.5s-24.333 -135.5 -73 -174.5s-111.834 -58.5 -189.501 -58.5s-142.5 13.667 -194.5 41l33 66
c47.333 -21.333 99.166 -32 155.499 -32s101.166 12.833 134.499 38.5s50 65.334 50 119.001s-14.833 92.834 -44.5 117.501s-63.667 37 -102 37s-79.833 -7 -124.5 -21l-50 16l54 357h337z" />
    <glyph glyph-name="six" unicode="6" horiz-adv-x="507" 
d="M318 635c-61.333 0 -106.503 -18.667 -135.503 -56s-46.833 -94.666 -53.5 -171.999c36 17.333 78.333 26 127 26c70 0 125.833 -19.333 167.5 -58s62.5 -91.334 62.5 -158.001s-18.667 -121.167 -56 -163.5s-90.666 -63.5 -159.999 -63.5c-54 0 -98.833 16 -134.5 48
s-60.5 71 -74.5 117s-21 98.5 -21 157.5s4.66699 112 14 159s24.333 88.833 45 125.5c42.667 75.333 115.667 113 219 113c42.667 0 89.334 -11.333 140.001 -34l-25 -64c-47.333 15.333 -85.666 23 -114.999 23zM370.997 104.5c20 26.333 30 61.499 30 105.499
s-12.667 79.667 -38 107s-62.333 41 -111 41s-91 -8.66699 -127 -26v-28c0 -61.333 9.66699 -114.666 29 -159.999c10 -24 25 -43.167 45 -57.5s44 -21.5 72 -21.5c46.667 0 80 13.167 100 39.5z" />
    <glyph glyph-name="seven" unicode="7" horiz-adv-x="469" 
d="M240 -170l-87.001 -0.000976562c0 100.667 22.333 205.334 67 314.001c18.667 45.333 37.334 88.333 56.001 129c44.667 97.333 67 167.666 67 210.999h-236v-79h-70v154h397v-74c0 -50 -32.333 -141 -97 -273c-24 -49.333 -46.167 -109.166 -66.5 -179.499
s-30.5 -137.833 -30.5 -202.5z" />
    <glyph glyph-name="eight" unicode="8" horiz-adv-x="533" 
d="M494 193c0 -59.333 -19.334 -108 -58.001 -146s-95 -57 -169 -57s-130.333 19 -169 57s-58 86.667 -58 146c0 67.333 37 127.333 111 180c-53.333 36 -80 84.167 -80 144.5s19.333 107.5 58 141.5s84.834 51 138.501 51s99.667 -17.167 138 -51.5s57.5 -80.5 57.5 -138.5
c0 -32 -7.33301 -60 -22 -84s-36.667 -50 -66 -78c79.333 -42.667 119 -97.667 119 -165zM124.999 193c0 -85.333 47.332 -128 141.999 -128s142 42.667 142 128c0 32.667 -12.333 58.5 -37 77.5s-63 36.833 -115 53.5c-11.333 3.33301 -24.333 8 -39 14
c-27.333 -14.667 -49.666 -34.5 -66.999 -59.5s-26 -53.5 -26 -85.5zM377.998 518c0 37.333 -10 66.167 -30 86.5s-47 30.5 -81 30.5s-61 -10.167 -81 -30.5s-30 -47.5 -30 -81.5s11 -61.167 33 -81.5s46 -34 72 -41s42.333 -11.833 49 -14.5
c45.333 37.333 68 81.333 68 132z" />
    <glyph glyph-name="nine" unicode="9" horiz-adv-x="507" 
d="M193 -105c61.333 0 106.501 19.5 135.501 58.5s46.833 98.5 53.5 178.5c-35.333 -16.667 -77.666 -25 -126.999 -25c-70 0 -125.833 20.333 -167.5 61s-62.5 95 -62.5 163s18.667 123.167 56 165.5s90.666 63.5 159.999 63.5c54 0 98.833 -16.5 134.5 -49.5
s60.5 -73.167 74.5 -120.5s21 -101.5 21 -162.5s-4.66699 -115.5 -14 -163.5s-24.333 -90.667 -45 -128c-42 -77.333 -115 -116 -219 -116c-42 0 -88.667 11.333 -140 34l25 64c47.333 -15.333 85.666 -23 114.999 -23zM140.001 445.5
c-20 -26.333 -29.999 -62.333 -29.999 -108s12.667 -83 38 -112s62.666 -43.5 111.999 -43.5s91.333 8.66699 126 26v28c0 64 -9.33301 119.333 -28 166c-10.667 26 -26 46.333 -46 61s-44 22 -72 22c-46.667 0 -80 -13.167 -100 -39.5z" />
    <glyph glyph-name="colon" unicode=":" horiz-adv-x="250" 
d="M70 50c0 16.667 5.83301 30.834 17.5 42.501s25.834 17.5 42.501 17.5s30.834 -5.83301 42.501 -17.5s17.5 -25.834 17.5 -42.501s-5.83301 -30.834 -17.5 -42.501s-25.834 -17.5 -42.501 -17.5s-30.834 5.83301 -42.501 17.5s-17.5 25.834 -17.5 42.501zM70 360
c0 16.667 5.83301 30.834 17.5 42.501s25.834 17.5 42.501 17.5s30.834 -5.83301 42.501 -17.5s17.5 -25.834 17.5 -42.501s-5.83301 -30.834 -17.5 -42.501s-25.834 -17.5 -42.501 -17.5s-30.834 5.83301 -42.501 17.5s-17.5 25.834 -17.5 42.501z" />
    <glyph glyph-name="semicolon" unicode=";" horiz-adv-x="250" 
d="M70 360c0 16.667 5.83301 30.834 17.5 42.501s25.834 17.5 42.501 17.5s30.834 -5.83301 42.501 -17.5s17.5 -25.834 17.5 -42.501s-5.83301 -30.834 -17.5 -42.501s-25.834 -17.5 -42.501 -17.5s-30.834 5.83301 -42.501 17.5s-17.5 25.834 -17.5 42.501zM81.5 14
c-7.66699 12 -11.501 24.999 -11.501 38.999s5.66699 26.167 17 36.5s25.333 15.5 42 15.5s30.834 -5.66699 42.501 -17s17.5 -28.833 17.5 -52.5s-8 -54.5 -24 -92.5s-35.667 -69.667 -59 -95l-32 20c12.667 16 23.5 35.833 32.5 59.5s13.5 44.834 13.5 63.501
c-18 3.33301 -30.833 11 -38.5 23z" />
    <glyph glyph-name="less" unicode="&#x3c;" horiz-adv-x="558" 
d="M487 132v-78l-408 207v54l408 205v-79l-319 -152z" />
    <glyph glyph-name="equal" unicode="=" horiz-adv-x="490" 
d="M430 336h-370v57h370v-57zM430 185h-370v57h370v-57z" />
    <glyph glyph-name="greater" unicode="&#x3e;" horiz-adv-x="558" 
d="M79 54v78l319 157l-319 152v79l408 -205v-54z" />
    <glyph glyph-name="question" unicode="?" 
d="M290 201h-70.001v132c49.333 21.333 85.333 41 108 59s38.334 36.167 47.001 54.5s13 38.833 13 61.5c0 84.667 -49 127 -147 127c-42 0 -80.667 -5.66699 -116 -17v-83h-70v134c46.667 27.333 107.667 41 183 41c156 0 234 -67 234 -201c0 -56 -16 -100 -48 -132
s-76.667 -60.333 -134 -85v-91zM217.999 85c9.33301 10.667 21.333 16 36 16s27.167 -5.66699 37.5 -17s15.5 -24.5 15.5 -39.5s-4.66699 -27.833 -14 -38.5s-21.333 -16 -36 -16s-27.167 5.66699 -37.5 17s-15.5 24.5 -15.5 39.5s4.66699 27.833 14 38.5z" />
    <glyph glyph-name="at" unicode="@" horiz-adv-x="1109" 
d="M723 455c0 -35.333 9.33691 -53.0049 28.0039 -53.0049c16 0 28.5 10.167 37.5 30.5s13.5 41.833 13.5 64.5c0 54.667 -24 98.334 -72 131.001s-109 49 -183 49c-52.667 0 -103.834 -10.5 -153.501 -31.5s-94 -50.333 -133 -88s-70.333 -85.334 -94 -143.001
s-35.5 -120.167 -35.5 -187.5c0 -107.333 28.333 -192.5 85 -255.5s137.167 -94.5 241.5 -94.5s196.166 26.333 275.499 79s139.833 122.167 181.5 208.5s62.5 181.5 62.5 285.5c0 120.667 -29.333 213 -88 277s-144.334 96 -257.001 96l13 80
c131.333 0 233.166 -41.667 305.499 -125s108.5 -192.333 108.5 -327c0 -84.667 -14.833 -166.5 -44.5 -245.5s-70.334 -148.667 -122.001 -209s-115.5 -108.666 -191.5 -144.999s-157.333 -54.5 -244 -54.5c-128.667 0 -228.667 38 -300 114s-107 179 -107 309
c0 66.667 9.83301 129.334 29.5 188.001s46 108.834 79 150.501s70.833 77.5 113.5 107.5c84.667 60.667 176 91 274 91s178.667 -22.667 242 -68s95 -105.666 95 -180.999c0 -46 -12.5 -88.5 -37.5 -127.5s-59.5 -58.5 -103.5 -58.5c-17.333 0 -31.333 3 -42 9l-36 -233h76
l-6 -38c-24 -14 -50.167 -21 -78.5 -21s-47.166 3.5 -56.499 10.5s-14 18.833 -14 35.5v8c-43.333 -39.333 -91 -59 -143 -59s-90.167 16.167 -114.5 48.5s-36.5 76.833 -36.5 133.5c0 82.667 24 152.834 72 210.501s115 86.5 201 86.5c49.333 0 103 -9.33301 161 -28
c-1.33301 -13.333 -2 -23.333 -2 -30zM370.004 228.995c0 -84 32.002 -126 96.002 -126c34 0 64.167 14.167 90.5 42.5s44.166 63.5 53.499 105.5l28 176c-26.667 11.333 -54 17 -82 17c-58.667 0 -104.334 -21 -137.001 -63s-49 -92.667 -49 -152z" />
    <glyph glyph-name="A" unicode="A" horiz-adv-x="768" 
d="M389 700l174.999 -0.000976562v-75h-60l198 -550h66v-75h-212v75h59l-45 131h-274l-45 -131h60v-75h-212v75h65l198 549c-104 -1.33301 -177 -13.166 -219 -35.499s-63 -56.5 -63 -102.5c0 -20 4.33301 -36.5 13 -49.5s21.334 -19.5 38.001 -19.5
c31.333 0 47 26.333 47 79h80c0 -43.333 -10 -79.833 -30 -109.5s-52.333 -44.5 -97 -44.5s-77.667 14 -99 42s-32 62 -32 102c0 65.333 31 117.333 93 156s160.667 58 296 58zM432.999 604.999l-115 -334h230z" />
    <glyph glyph-name="B" unicode="B" horiz-adv-x="814" 
d="M228 396.5c-20 -29.667 -52.335 -44.501 -97.002 -44.501s-77.667 14 -99 42s-32 62 -32 102c0 65.333 31 117.333 93 156s160.667 58 296 58c235.333 0 353 -68 353 -204c0 -68 -31.667 -116 -95 -144c38.667 -13.333 69.334 -35.166 92.001 -65.499
s34 -66.833 34 -109.5c0 -57.333 -20.333 -104.5 -61 -141.5s-100 -55.5 -178 -55.5c-14.667 0 -48.667 1.66699 -102 5s-96 5 -128 5h-97v75h97v557c-81.333 -6 -139 -20.333 -173 -43s-51 -53.667 -51 -93c0 -20 4.33301 -36.5 13 -49.5s21.334 -19.5 38.001 -19.5
c31.333 0 47 26.333 47 79h80c0 -43.333 -10 -79.833 -30 -109.5zM438.998 316.999v75h99c34 0 62.333 10 85 30s34 48 34 84c0 44 -20.333 76.5 -61 97.5s-109.667 31.5 -207 31.5v-563c82.667 -4.66699 136 -7 160 -7c42 0 75.667 11.167 101 33.5s38 53.5 38 93.5
s-12.833 70.833 -38.5 92.5s-59.167 32.5 -100.5 32.5h-110z" />
    <glyph glyph-name="C" unicode="C" horiz-adv-x="615" 
d="M550 423c-21.333 -28 -54.335 -42 -99.002 -42s-77 14.833 -97 44.5s-30 66.167 -30 109.5h80c0 -52.667 15.667 -79 47 -79c16.667 0 29.334 6.5 38.001 19.5s13 29.5 13 49.5c0 32 -14.667 57.5 -44 76.5s-63.666 28.5 -102.999 28.5c-69.333 0 -125 -26.5 -167 -79.5
s-63 -119.833 -63 -200.5s21 -147.5 63 -200.5s97.5 -79.5 166.5 -79.5s130.833 28.667 185.5 86l61 -50c-59.333 -77.333 -140 -116 -242 -116s-181.5 33.167 -238.5 99.5s-85.5 152.5 -85.5 258.5s28.667 192.833 86 260.5s135.333 101.5 234 101.5
c60.667 0 113.667 -17.167 159 -51.5s68 -78.833 68 -133.5c0 -40 -10.667 -74 -32 -102z" />
    <glyph glyph-name="D" unicode="D" horiz-adv-x="847" 
d="M509 -10l-205 10h-88v75h88v547c-81.333 -6 -139 -20.333 -173 -43s-51 -53.667 -51 -93c0 -20 4.33301 -36.5 13 -49.5s21.334 -19.5 38.001 -19.5c31.333 0 47 26.333 47 79h80c0 -43.333 -10 -79.833 -30 -109.5s-52.333 -44.5 -97 -44.5s-77.667 14 -99 42
s-32 62 -32 102c0 65.333 31 117.333 93 156s161.167 58 297.5 58s240.666 -34.167 312.999 -102.5s108.5 -160.833 108.5 -277.5c0 -114.667 -32.333 -202 -97 -262c-49.333 -45.333 -118 -68 -206 -68zM509 65c40 0 74.6689 7.5 104.002 22.5s51.666 35.167 66.999 60.5
c28 48.667 42 106 42 172c0 96.667 -28.333 171.667 -85 225s-139.334 80 -248.001 80v-554c61.333 -4 101.333 -6 120 -6z" />
    <glyph glyph-name="E" unicode="E" horiz-adv-x="780" 
d="M389 311l-0.000976562 -236h289v115h70v-190h-541v75h97v548c-82 -5.33301 -139.833 -19 -173.5 -41s-50.5 -54 -50.5 -96c0 -20 4.33301 -36.5 13 -49.5s21.334 -19.5 38.001 -19.5c31.333 0 47 26.333 47 79h80c0 -43.333 -10 -79.833 -30 -109.5
s-52.333 -44.5 -97 -44.5s-77.667 14 -99 42s-32 62 -32 102c0 65.333 31 117.333 93 156s160.667 58 296 58h350v-190h-70v115h-280v-239h138v60h70v-195h-70v60h-138z" />
    <glyph glyph-name="F" unicode="F" horiz-adv-x="743" 
d="M207 0l-0.000976562 75h97v548c-82 -5.33301 -139.833 -19 -173.5 -41s-50.5 -54 -50.5 -96c0 -20 4.33301 -36.5 13 -49.5s21.334 -19.5 38.001 -19.5c31.333 0 47 26.333 47 79h80c0 -43.333 -10 -79.833 -30 -109.5s-52.333 -44.5 -97 -44.5s-77.667 14 -99 42
s-32 62 -32 102c0 65.333 31 117.333 93 156s160.667 58 296 58h350v-190h-70v115h-280v-239h138v60h70v-195h-70v60h-138v-236h107v-75h-289z" />
    <glyph glyph-name="G" unicode="G" horiz-adv-x="674" 
d="M48 348c0 106 28.667 192.835 86 260.502s135.333 101.5 234 101.5c68 0 122.833 -16.833 164.5 -50.5s62.5 -78.5 62.5 -134.5c0 -40 -10.667 -74 -32 -102s-54.333 -42 -99 -42s-77 14.833 -97 44.5s-30 66.167 -30 109.5h80c0 -52.667 15.667 -79 47 -79
c16.667 0 29.334 6.5 38.001 19.5s13 29.5 13 49.5c0 36 -12.833 63.333 -38.5 82s-61.834 28 -108.501 28c-69.333 0 -125 -26.833 -167 -80.5s-63 -121.167 -63 -202.5s21.333 -149.5 64 -204.5s91.667 -82.5 147 -82.5s97.5 15.333 126.5 46s43.5 68 43.5 112v12h-164v75
h249v-310h-62l-19 73c-12 -14.667 -22.333 -26.334 -31 -35.001s-26.334 -18.834 -53.001 -30.501s-57 -17.5 -91 -17.5c-93.333 0 -166.666 33.167 -219.999 99.5s-80 152.5 -80 258.5z" />
    <glyph glyph-name="H" unicode="H" horiz-adv-x="919" 
d="M389 625l-0.000976562 -232h328v232h-87v75h269v-75h-97v-550h97v-75h-269v75h87v243h-328v-243h87v-75h-269v75h97v548c-82 -5.33301 -139.833 -19 -173.5 -41s-50.5 -54 -50.5 -96c0 -20 4.33301 -36.5 13 -49.5s21.334 -19.5 38.001 -19.5c31.333 0 47 26.333 47 79
h80c0 -43.333 -10 -79.833 -30 -109.5s-52.333 -44.5 -97 -44.5s-77.667 14 -99 42s-32 62 -32 102c0 65.333 31 117.333 93 156s160.667 58 296 58h87v-75h-87z" />
    <glyph glyph-name="I" unicode="I" horiz-adv-x="510" 
d="M389 625l-0.000976562 -550h97v-75h-270v75h88v548c-82 -5.33301 -139.833 -19 -173.5 -41s-50.5 -54 -50.5 -96c0 -20 4.33301 -36.5 13 -49.5s21.334 -19.5 38.001 -19.5c31.333 0 47 26.333 47 79h80c0 -43.333 -10 -79.833 -30 -109.5s-52.333 -44.5 -97 -44.5
s-77.667 14 -99 42s-32 62 -32 102c0 65.333 31 117.333 93 156s160.667 58 296 58h97v-75h-97z" />
    <glyph glyph-name="J" unicode="J" horiz-adv-x="520" 
d="M389 700h106.999v-75h-107v-525c0 -80.667 -19.333 -144.167 -58 -190.5s-95.667 -69.5 -171 -69.5v70c46 0 81.5 16.667 106.5 50s37.5 80 37.5 140v523c-82 -5.33301 -139.833 -19 -173.5 -41s-50.5 -54 -50.5 -96c0 -20 4.33301 -36.5 13 -49.5
s21.334 -19.5 38.001 -19.5c31.333 0 47 26.333 47 79h80c0 -43.333 -10 -79.833 -30 -109.5s-52.333 -44.5 -97 -44.5s-77.667 14 -99 42s-32 62 -32 102c0 65.333 31 117.333 93 156s160.667 58 296 58z" />
    <glyph glyph-name="K" unicode="K" horiz-adv-x="893" 
d="M819 140h75c0 -51.333 -13 -89.333 -39 -114s-58.833 -37 -98.5 -37s-71.667 9 -96 27s-48.833 49.667 -73.5 95l-110 199l-88 -40v-195h97v-75h-182v623c-82 -5.33301 -139.833 -19 -173.5 -41s-50.5 -54 -50.5 -96c0 -20 4.33301 -36.5 13 -49.5
s21.334 -19.5 38.001 -19.5c31.333 0 47 26.333 47 79h80c0 -43.333 -10 -79.833 -30 -109.5s-52.333 -44.5 -97 -44.5s-77.667 14 -99 42s-32 62 -32 102c0 62.667 28 114 84 154s144 60 264 60h128v-75h-87v-269l74 34l193 235h-48v75h227v-75h-75l-219 -258l125 -227
c16.667 -27.333 31.167 -46.833 43.5 -58.5s27.166 -17.5 44.499 -17.5s32.5 6.83301 45.5 20.5s19.5 32.167 19.5 55.5zM207 0v75h97v-75h-97z" />
    <glyph glyph-name="L" unicode="L" horiz-adv-x="764" 
d="M389 625l-0.000976562 -550h279v115h70v-190h-531v75h97v548c-82 -5.33301 -139.833 -19 -173.5 -41s-50.5 -54 -50.5 -96c0 -20 4.33301 -36.5 13 -49.5s21.334 -19.5 38.001 -19.5c31.333 0 47 26.333 47 79h80c0 -43.333 -10 -79.833 -30 -109.5
s-52.333 -44.5 -97 -44.5s-77.667 14 -99 42s-32 62 -32 102c0 62.667 28 114 84 154s144 60 264 60h128v-75h-87z" />
    <glyph glyph-name="M" unicode="M" horiz-adv-x="1052" 
d="M1032 700l-0.000976562 -75h-97v-550h97v-75h-269v75h87v422l-187 -437h-70l-187 437v-422h87v-75h-269v75h97v548c-88 -4 -150.167 -17.167 -186.5 -39.5s-54.5 -54.833 -54.5 -97.5c0 -20 4.33301 -36.5 13 -49.5s21.334 -19.5 38.001 -19.5c31.333 0 47 26.333 47 79
h80c0 -43.333 -10 -79.833 -30 -109.5s-52.333 -44.5 -97 -44.5s-77.667 14 -99 42s-32 62 -32 102c0 65.333 31 117.333 93 156s160.667 58 296 58h17l222 -525l222 525h182z" />
    <glyph glyph-name="N" unicode="N" horiz-adv-x="933" 
d="M257 710c52.667 0 94.332 -9.33301 124.999 -28s60.667 -51.667 90 -99l269 -433v475h-87v75h269v-75h-97v-625h-85l-353 564v-489h87v-75h-269v75h97v554c-18 4 -36 6 -54 6c-48 0 -88.167 -12.667 -120.5 -38s-48.5 -59 -48.5 -101c0 -20 4.33301 -36.5 13 -49.5
s21.334 -19.5 38.001 -19.5c31.333 0 47 26.333 47 79h80c0 -43.333 -10 -79.833 -30 -109.5s-52.333 -44.5 -97 -44.5s-77.667 14 -99 42s-32 62 -32 102c0 63.333 22.5 114.833 67.5 154.5s108.167 59.5 189.5 59.5z" />
    <glyph glyph-name="O" unicode="O" horiz-adv-x="710" 
d="M515 330.5c-20 -29.667 -52.3359 -44.499 -97.0029 -44.499s-77.667 14 -99 42s-32 62 -32 102c0 54.667 18.667 99.167 56 133.5s81 51.5 131 51.5c48 0 92 -18 132 -54c20.667 -18.667 37.334 -46 50.001 -82s19 -78.333 19 -127c0 -106 -28.667 -192.833 -86 -260.5
s-135.333 -101.5 -234 -101.5s-176.667 33.833 -234 101.5s-86 153.834 -86 258.501s28.667 190.834 86 258.501s135.333 101.5 234 101.5v-75c-69.333 0 -125 -26.833 -167 -80.5s-63 -121.834 -63 -204.501s21 -150.834 63 -204.501s97.667 -80.5 167 -80.5
s125 26.833 167 80.5s63 118.667 63 195s-11 128.666 -33 156.999s-47.667 42.5 -77 42.5s-54.666 -10.333 -75.999 -31s-32 -47 -32 -79c0 -20 4.33301 -36.5 13 -49.5s21.334 -19.5 38.001 -19.5c31.333 0 47 26.333 47 79h80c0 -43.333 -10 -79.833 -30 -109.5z" />
    <glyph glyph-name="P" unicode="P" horiz-adv-x="777" 
d="M389 75h116.999v-75h-299v75h97v557c-81.333 -6 -139 -20.333 -173 -43s-51 -53.667 -51 -93c0 -20 4.33301 -36.5 13 -49.5s21.334 -19.5 38.001 -19.5c31.333 0 47 26.333 47 79h80c0 -43.333 -10 -79.833 -30 -109.5s-52.333 -44.5 -97 -44.5s-77.667 14 -99 42
s-32 62 -32 102c0 65.333 31 117.333 93 156s156.667 58 284 58s220 -21.167 278 -63.5s87 -98.333 87 -168s-21.167 -124 -63.5 -163s-95.833 -58.5 -160.5 -58.5c-50 0 -93 7.66699 -129 23v-205zM388.999 635v-280.999c31.333 -14.667 74.333 -22 129 -22
c38 0 70.667 13.5 98 40.5s41 61.5 41 103.5c0 51.333 -20.667 90.666 -62 117.999s-110 41 -206 41z" />
    <glyph glyph-name="Q" unicode="Q" horiz-adv-x="710" 
d="M515 330.5c-20 -29.667 -52.334 -44.499 -97.001 -44.499s-77.667 14 -99 42s-32 62 -32 102c0 54.667 18.667 99.167 56 133.5s81 51.5 131 51.5c48 0 92 -18 132 -54c20.667 -18.667 37.334 -46 50.001 -82s19 -78.333 19 -127c0 -90 -20.833 -166.667 -62.5 -230
s-99.834 -104 -174.501 -122l221 -173l-52 -67l-273 231c-92.667 4.66699 -165.667 40.5 -219 107.5s-80 151.833 -80 254.5s28.667 187.834 86 255.501s135.333 101.5 234 101.5v-75c-69.333 0 -125.833 -27.333 -169.5 -82s-65.5 -122.334 -65.5 -203.001
s21.833 -148.334 65.5 -203.001s100.167 -82 169.5 -82s125.833 27.333 169.5 82s65.5 119.5 65.5 194.5s-11.667 126.833 -35 155.5s-49.833 43 -79.5 43s-55.167 -10.333 -76.5 -31s-32 -47 -32 -79c0 -20 4.33301 -36.5 13 -49.5s21.334 -19.5 38.001 -19.5
c31.333 0 47 26.333 47 79h80c0 -43.333 -10 -79.833 -30 -109.5z" />
    <glyph glyph-name="R" unicode="R" horiz-adv-x="842" 
d="M761 140l75 0.00195312c0 -51.333 -13 -89.333 -39 -114s-57.667 -37 -95 -37c-62 0 -111.333 21.833 -148 65.5s-70.334 119.167 -101.001 226.5c-18.667 3.33301 -40 9.66602 -64 18.999v-225h87v-75h-269v75h97v557c-81.333 -6 -139 -20.333 -173 -43
s-51 -53.667 -51 -93c0 -20 4.33301 -36.5 13 -49.5s21.334 -19.5 38.001 -19.5c31.333 0 47 26.333 47 79h80c0 -43.333 -10 -79.833 -30 -109.5s-52.333 -44.5 -97 -44.5s-77.667 14 -99 42s-32 62 -32 102c0 65.333 31 117.333 93 156s156.667 58 284 58
s220 -20.333 278 -61s87 -93.5 87 -158.5s-19 -115.833 -57 -152.5s-87 -57 -147 -61c22 -76.667 45.333 -131.334 70 -164.001s52.667 -49 84 -49c20 0 36.5 6.83301 49.5 20.5s19.5 32.167 19.5 55.5zM389 635.002v-261c31.333 -14.667 74.333 -22 129 -22
c38 0 70.667 12.5 98 37.5s41 57.167 41 96.5c0 48 -20.667 84.833 -62 110.5s-110 38.5 -206 38.5z" />
    <glyph glyph-name="S" unicode="S" horiz-adv-x="535" 
d="M111 666c44 34 98.335 50.999 163.002 50.999s117.834 -15.167 159.501 -45.5s62.5 -68 62.5 -113s-9.83301 -81.333 -29.5 -109s-51 -41.5 -94 -41.5s-74.5 14 -94.5 42s-30 62 -30 102h80c0 -46 15 -69 45 -69c28.667 0 43 23 43 69c0 28 -12.833 50 -38.5 66
s-59 24 -100 24s-76 -9.66699 -105 -29s-43.5 -45 -43.5 -77s13.167 -59 39.5 -81s58.666 -42.5 96.999 -61.5s60.5 -30.167 66.5 -33.5s19 -10.166 39 -20.499s33.167 -18 39.5 -23l31 -23.5c14.333 -10.667 24.166 -20 29.499 -28l19 -29
c12.667 -20.667 19 -46.334 19 -77.001c0 -56 -23.167 -97.833 -69.5 -125.5s-110.5 -41.5 -192.5 -41.5s-152.333 17 -211 51v135h70v-81c44.667 -20 93.167 -30 145.5 -30s94 9.33301 125 28s46.5 42.667 46.5 72c0 27.333 -15.667 52.333 -47 75
c-24.667 16.667 -69.834 41.334 -135.501 74.001s-114.667 64 -147 94s-48.5 69 -48.5 117c0 58.667 22 105 66 139z" />
    <glyph glyph-name="T" unicode="T" horiz-adv-x="706" 
d="M389 700h282.999v-162h-74v87h-154v-550h97v-75h-270v75h88v550h-55c-82 -5.33301 -139.833 -19.333 -173.5 -42s-50.5 -55 -50.5 -97c0 -20 4.33301 -36.5 13 -49.5s21.334 -19.5 38.001 -19.5c31.333 0 47 26.333 47 79h80c0 -43.333 -10 -79.833 -30 -109.5
s-52.333 -44.5 -97 -44.5s-77.667 14 -99 42s-32 62 -32 102c0 65.333 31 117.333 93 156s160.667 58 296 58z" />
    <glyph glyph-name="U" unicode="U" horiz-adv-x="948" 
d="M440 113c34 -28.667 77.833 -42.999 131.5 -42.999s98 14.5 133 43.5s52.5 64.5 52.5 106.5v405h-87v75h279v-75h-107v-405c0 -65.333 -24.333 -120 -73 -164s-114.334 -66 -197.001 -66s-148 21.833 -196 65.5s-72 98.5 -72 164.5v403
c-82 -5.33301 -139.833 -19 -173.5 -41s-50.5 -54 -50.5 -96c0 -20 4.33301 -36.5 13 -49.5s21.334 -19.5 38.001 -19.5c31.333 0 47 26.333 47 79h80c0 -43.333 -10 -79.833 -30 -109.5s-52.333 -44.5 -97 -44.5s-77.667 14 -99 42s-32 62 -32 102
c0 65.333 31 117.333 93 156s160.667 58 296 58h87v-75h-87v-405c0 -42.667 17 -78.334 51 -107.001z" />
    <glyph glyph-name="V" unicode="V" horiz-adv-x="841" 
d="M841 700l-0.00195312 -74.999h-64l-209 -625h-88l-208 626c-69.333 -7.33301 -118.666 -21.833 -147.999 -43.5s-44 -51.834 -44 -90.501c0 -20 4.33301 -36.5 13 -49.5s21.334 -19.5 38.001 -19.5c31.333 0 47 26.333 47 79h80c0 -43.333 -10 -79.833 -30 -109.5
s-52.333 -44.5 -97 -44.5s-77.667 14 -99 42s-32 62 -32 102c0 65.333 31 117.333 93 156s160.667 58 296 58h40v-75h-71l166 -505l165 499h-70v75h222z" />
    <glyph glyph-name="W" unicode="W" horiz-adv-x="1189" 
d="M80 492c0 -20 4.33203 -36.5 12.999 -49.5s21.334 -19.5 38.001 -19.5c31.333 0 47 26.333 47 79h80c0 -43.333 -10 -79.833 -30 -109.5s-52.333 -44.5 -97 -44.5s-77.667 14 -99 42s-32 62 -32 102c0 65.333 31 117.333 93 156s160.667 58 296 58h79v-75h-74l134 -508
l146 577h88l145 -577l132 502h-72v75h222v-75h-62l-171 -625h-88l-150 541l-150 -541h-88l-173 629c-83.333 -5.33301 -142 -19 -176 -41s-51 -54 -51 -96z" />
    <glyph glyph-name="X" unicode="X" horiz-adv-x="762" 
d="M391 704l-0.000976562 -76h-51l125 -200l122 197h-65v75h222v-75h-59l-166 -265l179 -285h63v-75h-222v75h61l-135 219l-136 -219h59v-75h-222v75h66l178 285l-163 261c-60 -8 -102.5 -22.667 -127.5 -44s-37.5 -50.333 -37.5 -87c0 -20 4.33301 -36.5 13 -49.5
s21.334 -19.5 38.001 -19.5c31.333 0 47 26.333 47 79h80c0 -43.333 -10 -79.833 -30 -109.5s-52.333 -44.5 -97 -44.5s-77.667 14 -99 42s-32 62 -32 102c0 65.333 31 117.333 93 156s160.667 58 296 58z" />
    <glyph glyph-name="Y" unicode="Y" horiz-adv-x="745" 
d="M389 704v-75h-55l131 -241l127 237h-70v75h222v-75h-55l-182 -322v-228h97v-75h-270v75h88v228l-180 317c-58.667 -8 -100.334 -22.667 -125.001 -44s-37 -50 -37 -86c0 -20 4.33301 -36.5 13 -49.5s21.334 -19.5 38.001 -19.5c31.333 0 47 26.333 47 79h80
c0 -43.333 -10 -79.833 -30 -109.5s-52.333 -44.5 -97 -44.5s-77.667 14 -99 42s-32 62 -32 102c0 65.333 31 117.333 93 156s160.667 58 296 58z" />
    <glyph glyph-name="Z" unicode="Z" horiz-adv-x="664" 
d="M609 700v-55l-378 -570h311v69h70v-144h-497v55l377 570h-103c-114.667 0 -194.834 -11.167 -240.501 -33.5s-68.5 -57.5 -68.5 -105.5c0 -20 4.33301 -36.5 13 -49.5s21.334 -19.5 38.001 -19.5c31.333 0 47 26.333 47 79h80c0 -43.333 -10 -79.833 -30 -109.5
s-52.333 -44.5 -97 -44.5s-77.667 14 -99 42s-32 62 -32 102c0 65.333 31 117.333 93 156s160.667 58 296 58h220z" />
    <glyph glyph-name="bracketleft" unicode="[" horiz-adv-x="243" 
d="M203 795v-65h-88v-865h88v-65h-163v995h163z" />
    <glyph glyph-name="backslash" unicode="\" horiz-adv-x="375" 
d="M75 700l290 -730h-65l-290 730h65z" />
    <glyph glyph-name="bracketright" unicode="]" horiz-adv-x="243" 
d="M40 730v65h163v-995h-163v65h88v865h-88z" />
    <glyph glyph-name="asciicircum" unicode="^" horiz-adv-x="387" 
d="M221 700l155 -275h-63l-119 204l-119 -204h-62l154 275h54z" />
    <glyph glyph-name="underscore" unicode="_" horiz-adv-x="530" 
d="M530 -57h-530v57h530v-57z" />
    <glyph glyph-name="grave" unicode="`" horiz-adv-x="291" 
d="M168 760l-124 161l71 47l97 -182z" />
    <glyph glyph-name="a" unicode="a" horiz-adv-x="522" 
d="M177 -10c-46 0 -82.001 13.168 -108.001 39.501s-39 61.666 -39 105.999s17.333 81.5 52 111.5s86 45 154 45h109v51c0 61.333 -29.333 92 -88 92c-49.333 0 -94.666 -6 -135.999 -18v-67h-70v119c30 12.667 65.5 22.667 106.5 30s75.167 11 102.5 11
c53.333 0 95 -15.167 125 -45.5s45 -70.833 45 -121.5v-283h82v-42c-24.667 -15.333 -53 -23 -85 -23s-53.667 5.33301 -65 16s-17 28.667 -17 54c-50 -50 -106 -75 -168 -75zM185.999 65.001c57.333 0 110.334 32.332 159.001 96.999v64h-110
c-40.667 0 -70.834 -8 -90.501 -24s-29.5 -36.167 -29.5 -60.5s6 -43.166 18 -56.499s29.667 -20 53 -20z" />
    <glyph glyph-name="b" unicode="b" horiz-adv-x="552" 
d="M87 685l-77.001 0.000976562v65h162v-305c39.333 43.333 89.833 65 151.5 65s109.334 -24.5 143.001 -73.5s50.5 -111.333 50.5 -187s-21 -137.834 -63 -186.501s-103 -73 -183 -73c-58 0 -119.333 10 -184 30v665zM306.999 435.001c-40 0 -72.5 -15.667 -97.5 -47
s-37.5 -69 -37.5 -113v-193c34 -11.333 64.333 -17 91 -17c55.333 0 97.333 17 126 51s43 77.667 43 131s-10.833 98 -32.5 134s-52.5 54 -92.5 54z" />
    <glyph glyph-name="c" unicode="c" horiz-adv-x="465" 
d="M95.5 436.5c40.333 49 94.168 73.501 161.501 73.501s123.666 -13.667 168.999 -41v-119h-70v67c-28.667 12 -59 18 -91 18c-46 0 -81.667 -17.333 -107 -52s-38 -79 -38 -133s12.667 -98.333 38 -133s61 -52 107 -52c26 0 49.667 3.16699 71 9.5
s35.666 11.666 42.999 15.999s18.666 11.833 33.999 22.5l37 -56c-47.333 -44.667 -108.166 -67 -182.499 -67s-131.666 24.5 -171.999 73.5s-60.5 111.167 -60.5 186.5s20.167 137.5 60.5 186.5z" />
    <glyph glyph-name="d" unicode="d" horiz-adv-x="557" 
d="M465 750v-690h82v-42c-24.667 -15.333 -52.667 -23 -84 -23s-52.833 4.5 -64.5 13.5s-17.834 24.5 -18.501 46.5c-39.333 -43.333 -89.666 -65 -150.999 -65s-109 24.167 -143 72.5s-51 110.333 -51 186s20 138.167 60 187.5s97 74 171 74c36 0 74 -7 114 -21v196h-77v65
h162zM153 118c22 -35.333 52.833 -53 92.5 -53s72 15.667 97 47s37.5 69 37.5 113v178c-35.333 21.333 -73.5 32 -114.5 32s-75.5 -16.5 -103.5 -49.5s-42 -77 -42 -132s11 -100.167 33 -135.5z" />
    <glyph glyph-name="e" unicode="e" horiz-adv-x="503" 
d="M473 284l0.000976562 -53h-353c3.33301 -48.667 17.666 -88.5 42.999 -119.5s59.333 -46.5 102 -46.5c28 0 53.167 3 75.5 9s37.833 11.5 46.5 16.5s20.667 12.5 36 22.5l37 -56c-50.667 -44.667 -114 -67 -190 -67s-134.167 24.5 -174.5 73.5s-60.5 111.167 -60.5 186.5
s20.167 137.5 60.5 186.5s95.333 73.5 165 73.5s122.5 -21 158.5 -63s54 -96.333 54 -163zM351.501 399c-20.333 24 -49.333 36 -87 36s-68.5 -12.167 -92.5 -36.5s-40 -56.5 -48 -96.5h264c-4 40.667 -16.167 73 -36.5 97z" />
    <glyph glyph-name="f" unicode="f" horiz-adv-x="357" 
d="M290 758c26 0 57.668 -2.66699 95.001 -8v-134h-70v66l-25 1c-42.667 0 -71.167 -10.667 -85.5 -32s-21.5 -56.333 -21.5 -105v-46h159v-65h-159v-370h87v-65h-250v65h78v370h-77v55l77 10v46c0 70 14.167 122.833 42.5 158.5s78.166 53.5 149.499 53.5z" />
    <glyph glyph-name="g" unicode="g" horiz-adv-x="509" 
d="M448.5 30.5c27.667 -24.333 41.5 -57.666 41.5 -99.999s-22.5 -78.666 -67.5 -108.999s-109.167 -45.5 -192.5 -45.5c-60 0 -106.667 14.167 -140 42.5s-50 65.666 -50 111.999s24.333 83.166 73 110.499c-46 14 -69 40 -69 78s20.667 64 62 78
c-37.333 33.333 -56 76.833 -56 130.5s17.5 97.5 52.5 131.5s84.167 51 147.5 51c39.333 0 74.333 -7.33301 105 -22h168v-72h-94c14 -26 21 -54.667 21 -86c0 -52 -17.5 -95 -52.5 -129s-84.167 -51 -147.5 -51h-86c-23.333 0 -35 -9 -35 -27
c0 -14.667 11.667 -23.667 35 -27l166 -20c51.333 -6 90.833 -21.167 118.5 -45.5zM165.5 405c-20.333 -20 -30.5 -45.167 -30.5 -75.5s10.167 -55.333 30.5 -75s48.5 -29.5 84.5 -29.5s64.167 9.83301 84.5 29.5s30.5 44.667 30.5 75s-10.167 55.5 -30.5 75.5
s-48.5 30 -84.5 30s-64.167 -10 -84.5 -30zM148.5 -19c-15.667 -17.333 -23.501 -36.1689 -23.501 -56.502s9.33301 -37.666 28 -51.999s44.334 -21.5 77.001 -21.5c53.333 0 95.833 8.16699 127.5 24.5s47.5 36.5 47.5 60.5c0 37.333 -25 59 -75 65l-123 14
c-23.333 -5.33301 -42.833 -16.666 -58.5 -33.999z" />
    <glyph glyph-name="h" unicode="h" horiz-adv-x="610" 
d="M182 65l87 -0.000976562v-65h-249v65h77v620h-77v65h162v-299c68.667 39.333 131 59 187 59s94.833 -17 116.5 -51s32.5 -81 32.5 -141v-258h82v-42c-24.667 -15.333 -53.167 -23 -85.5 -23s-54 5.5 -65 16.5s-16.5 28.833 -16.5 53.5v253c0 38.667 -5 67.834 -15 87.501
s-33 29.5 -69 29.5s-91.667 -20 -167 -60v-310z" />
    <glyph glyph-name="i" unicode="i" horiz-adv-x="315" 
d="M41 435v65h162v-435h87v-65h-250v65h78v370h-77zM122 605c-9.33301 10.667 -14 23.5 -14 38.5s5.16699 28.167 15.5 39.5s22.833 17 37.5 17s26.667 -5.33301 36 -16s14 -23.5 14 -38.5s-5.16699 -28.167 -15.5 -39.5s-22.833 -17 -37.5 -17s-26.667 5.33301 -36 16z" />
    <glyph glyph-name="j" unicode="j" horiz-adv-x="288" 
d="M56 434v65h162v-474c0 -75.333 -17.833 -135.833 -53.5 -181.5s-91.5 -68.5 -167.5 -68.5v74c46.667 0 81 14.5 103 43.5s33 73.167 33 132.5v409h-77zM132 605c-9.33301 10.667 -14 23.5 -14 38.5s5.16699 28.167 15.5 39.5s22.833 17 37.5 17s26.667 -5.33301 36 -16
s14 -23.5 14 -38.5s-5.16699 -28.167 -15.5 -39.5s-22.833 -17 -37.5 -17s-26.667 5.33301 -36 16z" />
    <glyph glyph-name="k" unicode="k" horiz-adv-x="536" 
d="M172 65h77v-65h-239v65h77v620h-77v65h162v-469l61 22l118 132h-37v65h188v-65h-43l-158 -172l159 -203h76v-42c-14.667 -8.66699 -27.667 -14.667 -39 -18s-29.333 -5 -54 -5s-46.667 12.667 -66 38l-144 189l-61 -22v-135z" />
    <glyph glyph-name="l" unicode="l" horiz-adv-x="295" 
d="M21 685v65h162v-685h87v-65h-250v65h78v620h-77z" />
    <glyph glyph-name="m" unicode="m" horiz-adv-x="892" 
d="M336 0l0.000976562 64.998h77v253c0 38.667 -5 67.834 -15 87.501s-32.833 29.5 -68.5 29.5s-84.834 -16.667 -147.501 -50v-320h77v-65h-239v65h77v370h-77v65h143l10 -45c67.333 36.667 127.833 55 181.5 55s92.167 -19.333 115.5 -58c68.667 38.667 130 58 184 58
s91.833 -17 113.5 -51s32.5 -81 32.5 -141v-258h82v-42c-24.667 -15.333 -53.167 -23 -85.5 -23s-54 5.5 -65 16.5s-16.5 28.833 -16.5 53.5v253c0 38.667 -5 67.834 -15 87.501s-32.167 29.5 -66.5 29.5s-81.5 -15 -141.5 -45c4 -22 6 -46 6 -72v-253h87v-65h-249z" />
    <glyph glyph-name="n" unicode="n" horiz-adv-x="610" 
d="M182 65l87 -0.000976562v-65h-249v65h77v370h-77v65h143l12 -53c22.667 12.667 41 22.5 55 29.5s34.167 14.333 60.5 22s51.833 11.5 76.5 11.5c57.333 0 96.833 -17 118.5 -51s32.5 -81 32.5 -141v-258h82v-42c-24.667 -15.333 -53.167 -23 -85.5 -23s-54 5.5 -65 16.5
s-16.5 28.833 -16.5 53.5v253c0 38.667 -5 67.834 -15 87.501s-33 29.5 -69 29.5s-91.667 -20 -167 -60v-310z" />
    <glyph glyph-name="o" unicode="o" 
d="M35 250c0 75.333 21 137.5 63 186.5s101 73.5 177 73.5s135 -24.5 177 -73.5s63 -111.167 63 -186.5s-21 -137.5 -63 -186.5s-101 -73.5 -177 -73.5s-135 24.5 -177 73.5s-63 111.167 -63 186.5zM120 250c0 -54 13.667 -98.333 41 -133s65.333 -52 114 -52
s86.667 17.333 114 52s41 79 41 133s-13.667 98.333 -41 133s-65.333 52 -114 52s-86.667 -17.333 -114 -52s-41 -79 -41 -133z" />
    <glyph glyph-name="p" unicode="p" horiz-adv-x="562" 
d="M20 435v65h143l14 -61c40 47.333 91.333 71 154 71s111 -24.167 145 -72.5s51 -110.333 51 -186s-20 -138.167 -60 -187.5s-97 -74 -171 -74c-34.667 0 -72.667 6.66699 -114 20v-160h77v-65h-239v65h77v585h-77zM409 382c-22 35.333 -52.833 53 -92.5 53
s-72 -15.667 -97 -47s-37.5 -69 -37.5 -113v-179c36 -20.667 71.667 -31 107 -31c46 0 83 16.5 111 49.5s42 77 42 132s-11 100.167 -33 135.5z" />
    <glyph glyph-name="q" unicode="q" horiz-adv-x="542" 
d="M465 -150l77 -0.000976562v-65h-249v65h87v204c-40.667 -42.667 -91.5 -64 -152.5 -64s-108.333 24.5 -142 73.5s-50.5 111.333 -50.5 187s21 137.834 63 186.501s103 73 183 73c58 0 119.333 -10 184 -30v-630zM245 64.999c40 0 72.5 15.667 97.5 47s37.5 69 37.5 113
v192c-32.667 12 -63 18 -91 18c-55.333 0 -97.333 -17 -126 -51s-43 -77.667 -43 -131s10.833 -98 32.5 -134s52.5 -54 92.5 -54z" />
    <glyph glyph-name="r" unicode="r" horiz-adv-x="421" 
d="M182 65h87v-65h-249v65h77v370h-77v65h143l12 -53c22.667 12.667 41 22.5 55 29.5s34.167 14.333 60.5 22s51.833 11.5 76.5 11.5l56 -15l-23 -82l-45 12c-56 0 -113.667 -14 -173 -42v-318z" />
    <glyph glyph-name="s" unicode="s" horiz-adv-x="439" 
d="M40 144h70.001v-63c25.333 -10 56.166 -15 92.499 -15s64 5.83301 83 17.5s28.5 26.167 28.5 43.5s-7.16699 31.5 -21.5 42.5s-48.333 30.833 -102 59.5s-91.167 52.834 -112.5 72.501s-32 45.5 -32 77.5c0 41.333 16.167 73.5 48.5 96.5s76.5 34.5 132.5 34.5
s109 -13.667 159 -41v-119h-70v67c-29.333 12 -60.5 18 -93.5 18s-56.5 -6.16699 -70.5 -18.5s-21 -25.833 -21 -40.5s5.33301 -26.334 16 -35.001c18 -14.667 50.333 -33.667 97 -57c59.333 -32.667 100 -59 122 -79s33 -45.667 33 -77c0 -41.333 -17.667 -74.5 -53 -99.5
s-84.5 -37.5 -147.5 -37.5s-115.833 12.667 -158.5 38v115z" />
    <glyph glyph-name="t" unicode="t" horiz-adv-x="371" 
d="M20 435v55l77 10h10c21.333 50 35.666 94 42.999 132h42v-132h149v-65h-149v-307c0 -22.667 3.83301 -39 11.5 -49s20.834 -15 39.501 -15s43.667 6.33301 75 19l33 -57c-38 -24 -78.667 -36 -122 -36s-74.5 11.333 -93.5 34s-28.5 52 -28.5 88v323h-87z" />
    <glyph glyph-name="u" unicode="u" horiz-adv-x="600" 
d="M346 435l0.000976562 65.001h162v-440h82v-42c-24.667 -15.333 -57.5 -23 -98.5 -23s-63.5 17.667 -67.5 53c-70 -39.333 -132.833 -59 -188.5 -59s-94.334 17 -116.001 51s-32.5 81 -32.5 141v254h-77v65h162v-319c0 -38.667 5 -67.834 15 -87.501s33 -29.5 69 -29.5
s91.667 20 167 60v311h-77z" />
    <glyph glyph-name="v" unicode="v" horiz-adv-x="549" 
d="M327 435v65h212v-65h-62l-158 -435h-88l-159 435h-62v65h212v-65h-63l116 -340l116 340h-64z" />
    <glyph glyph-name="w" unicode="w" horiz-adv-x="762" 
d="M742 500v-65h-57l-116 -435h-88l-100 374l-100 -374h-88l-117 435h-56v65h212v-65h-70l80 -333l95 398h88l95 -398l79 333h-69v65h212z" />
    <glyph glyph-name="x" unicode="x" horiz-adv-x="498" 
d="M290 435v65h173v-65h-51l-125 -183l127 -187h74v-65h-198v65h31l-86 127l-83 -127h27v-65h-169v65h48l133 193l-119 177h-61v65h203v-65h-49l78 -116l75 116h-28z" />
    <glyph glyph-name="y" unicode="y" horiz-adv-x="524" 
d="M10 435l0.000976562 65h189v-65h-36l112 -339l105 339h-46v65h180v-65h-47l-145 -435c-25.333 -74 -53.333 -130.167 -84 -168.5s-73.334 -57.5 -128.001 -57.5c-31.333 0 -64.666 6 -99.999 18l24 70c27.333 -8 50.666 -12 69.999 -12c57.333 0 101.333 45.333 132 136
l-164 449h-62z" />
    <glyph glyph-name="z" unicode="z" horiz-adv-x="447" 
d="M420 144v-144h-397v55l271 370h-189v-73h-70v148h377v-55l-272 -370h210v69h70z" />
    <glyph glyph-name="braceleft" unicode="{" horiz-adv-x="255" 
d="M78 -70v280.001c0 59.333 -22 95.333 -66 108v44c44 12.667 66 48.667 66 108v195c0 45.333 10.333 78.333 31 99s53.667 31 99 31h33v-65h-38c-17.333 0 -30 -4 -38 -12s-12 -20.667 -12 -38v-200c0 -53.333 -9.66699 -91 -29 -113c-10 -10.667 -22.333 -19.667 -37 -27
c28 -14 46 -33.833 54 -59.5s12 -55.834 12 -90.501v-265c0 -40 16.667 -60 50 -60h38v-65h-33c-45.333 0 -78.333 10.333 -99 31s-31 53.667 -31 99z" />
    <glyph glyph-name="bar" unicode="|" horiz-adv-x="225" 
d="M145 750v-910h-65v910h65z" />
    <glyph glyph-name="braceright" unicode="}" horiz-adv-x="255" 
d="M175 210v-279.998c0 -45.333 -10.333 -78.333 -31 -99s-53.667 -31 -99 -31h-33v65h38c33.333 0 50 20 50 60v265c0 57.333 10 98 30 122c9.33301 11.333 21.333 20.666 36 27.999c-30 15.333 -49 36.666 -57 63.999c-6 22 -9 47.333 -9 76v200c0 17.333 -4 30 -12 38
s-20.667 12 -38 12h-38v65h33c45.333 0 78.333 -10.333 99 -31s31 -53.667 31 -99v-195c0 -59.333 22 -95.333 66 -108v-44c-44 -12.667 -66 -48.667 -66 -108z" />
    <glyph glyph-name="asciitilde" unicode="~" horiz-adv-x="455" 
d="M151 333c26 0 57.333 -5.83301 94 -17.5s60 -18.834 70 -21.501l78 39l32 -24c-23.333 -52.667 -60.333 -79 -111 -79c-26 0 -57.333 5.83301 -94 17.5s-60 18.834 -70 21.501l-88 -39l-32 24c26 52.667 66.333 79 121 79z" />
    <glyph glyph-name="exclamdown" unicode="&#xa1;" horiz-adv-x="315" 
d="M197.5 493c10.333 -11.333 15.5 -24.5 15.5 -39.5s-4.66699 -27.833 -14 -38.5s-21.333 -16 -36 -16s-27.167 5.66699 -37.5 17s-15.5 24.5 -15.5 39.5s4.66699 27.833 14 38.5s21.333 16 36 16s27.167 -5.66699 37.5 -17zM193 299l20 -600h-105l20 600h65z" />
    <glyph glyph-name="cent" unicode="&#xa2;" horiz-adv-x="465" 
d="M300 508c48 -4 90 -17 126 -39v-119h-70v69c-22.667 10.667 -49 16 -79 16c-52 0 -91.167 -17.333 -117.5 -52s-39.5 -79.167 -39.5 -133.5s13.333 -98.666 40 -132.999s65.667 -51.5 117 -51.5c23.333 0 44.5 2.83301 63.5 8.5s32.667 11.167 41 16.5s18.833 13 31.5 23
l37 -56c-39.333 -36.667 -89.333 -58.334 -150 -65.001v-74h-70v75c-62 8 -110 35.667 -144 83s-51 105.333 -51 174s17 126.667 51 174s82 75 144 83v75h70v-74z" />
    <glyph glyph-name="sterling" unicode="&#xa3;" horiz-adv-x="518" 
d="M128 368l-0.000976562 117.999c0 65.333 18.333 116.833 55 154.5s85.667 56.5 147 56.5s113 -13.667 155 -41v-134h-70v83c-28.667 11.333 -59.167 17 -91.5 17s-59 -12.167 -80 -36.5s-31.5 -55.833 -31.5 -94.5v-123h130v-57h-130v-50
c0 -35.333 -6.16699 -71.666 -18.5 -108.999s-27.166 -63 -44.499 -77h343v-75h-456v75c27.333 0 49.5 20.667 66.5 62s25.5 82 25.5 122v52h-72v57h72z" />
    <glyph glyph-name="currency" unicode="&#xa4;" horiz-adv-x="503" 
d="M76 178c-14 30 -21 63.5 -21 100.5s7.66699 70.167 23 99.5l-70 45l41 56l62 -57c36.667 35.333 83.5 53 140.5 53s104.167 -17.667 141.5 -53l63 57l41 -56l-71 -46c15.333 -29.333 23 -62 23 -98s-7.33301 -69.333 -22 -100l70 -44l-41 -56l-60 53
c-36.667 -38 -84.667 -57 -144 -57s-107.333 19 -144 57l-59 -53l-41 56zM162.5 373c-21.667 -24.667 -32.5 -56.5 -32.5 -95.5s10.833 -71.667 32.5 -98s51.5 -39.5 89.5 -39.5s67.833 13.167 89.5 39.5s32.5 59 32.5 98s-10.833 70.833 -32.5 95.5s-51.5 37 -89.5 37
s-67.833 -12.333 -89.5 -37z" />
    <glyph glyph-name="yen" unicode="&#xa5;" horiz-adv-x="745" 
d="M389 711l-0.000976562 -75c-6.66699 0 -16.167 -0.166992 -28.5 -0.5s-21.166 -0.5 -26.499 -0.5l131 -241l127 231h-70v75h222v-75h-55l-164 -289h117v-57h-135v-47h135v-57h-135v-100h97v-75h-270v75h88v100h-135v57h135v47h-135v57h118l-163 291
c-58.667 -8 -100.334 -22.667 -125.001 -44s-37 -50 -37 -86c0 -20 4.33301 -36.5 13 -49.5s21.334 -19.5 38.001 -19.5c31.333 0 47 26.333 47 79h80c0 -43.333 -10 -79.833 -30 -109.5s-52.333 -44.5 -97 -44.5s-77.667 14 -99 42s-32 62 -32 102
c0 65.333 31 117.333 93 156s160.667 58 296 58z" />
    <glyph glyph-name="brokenbar" unicode="&#xa6;" horiz-adv-x="225" 
d="M145 240v-400h-65v400h65zM145 750v-400h-65v400h65z" />
    <glyph glyph-name="section" unicode="&#xa7;" horiz-adv-x="429" 
d="M393 278c0 -48.667 -21 -93.668 -63 -135.001c48.667 -31.333 73 -70.666 73 -117.999s-17.833 -84 -53.5 -110s-79.667 -39 -132 -39s-105.166 8.66699 -158.499 26v135h70v-79c27.333 -8 55.5 -12 84.5 -12s53.833 6.16699 74.5 18.5s31 28.333 31 48
s-5.83301 35.167 -17.5 46.5s-29.167 23.666 -52.5 36.999l-100 49c-34 16.667 -59.667 35.334 -77 56.001s-26 46.667 -26 78c0 48.667 20.667 93.667 62 135c-48 32 -72 71.5 -72 118.5s17.833 83.5 53.5 109.5s79.667 39 132 39s105.166 -8.66699 158.499 -26v-135h-70
v79c-27.333 8 -55.5 12 -84.5 12s-53.833 -6.16699 -74.5 -18.5s-31 -30.166 -31 -53.499c0 -15.333 5.83301 -28.833 17.5 -40.5s29.167 -24.167 52.5 -37.5l100 -49c34 -16.667 59.667 -35.334 77 -56.001s26 -46.667 26 -78zM173 380.999
c-31.333 -31.333 -47 -58.333 -47 -81s7.16699 -41 21.5 -55s35.5 -28 63.5 -42l55 -27c31.333 31.333 47 58.333 47 81s-7.16699 41 -21.5 55s-35.5 28 -63.5 42z" />
    <glyph glyph-name="dieresis" unicode="&#xa8;" horiz-adv-x="476" 
d="M96 846c0 13.333 4.66699 24.833 14 34.5s20.666 14.5 33.999 14.5s24.833 -4.83301 34.5 -14.5s14.5 -21.167 14.5 -34.5s-4.83301 -24.666 -14.5 -33.999s-21.167 -14 -34.5 -14s-24.666 4.66699 -33.999 14s-14 20.666 -14 33.999zM287 846
c0 13.333 4.66797 24.833 14.001 34.5s20.666 14.5 33.999 14.5s24.833 -4.83301 34.5 -14.5s14.5 -21.167 14.5 -34.5s-4.83301 -24.666 -14.5 -33.999s-21 -14 -34 -14s-24.333 4.66699 -34 14s-14.5 20.666 -14.5 33.999z" />
    <glyph glyph-name="copyright" unicode="&#xa9;" horiz-adv-x="745" 
d="M117.5 93c-62.333 68.667 -93.5 153.501 -93.5 254.501s31.167 184.5 93.5 250.5s147.5 99 255.5 99s193 -32.833 255 -98.5s93 -149.334 93 -251.001s-31.167 -186.667 -93.5 -255s-147.333 -102.5 -255 -102.5s-192.667 34.333 -255 103zM162.5 561.501
c-51 -55.667 -76.498 -127 -76.498 -214s25.667 -159.833 77 -218.5s121.166 -88 209.499 -88s158.166 29.333 209.499 88s77 131.5 77 218.5s-25.5 158.333 -76.5 214s-121 83.5 -210 83.5s-159 -27.833 -210 -83.5zM381.002 556.001c42 0 77.501 -11.833 106.501 -35.5
s43.5 -54.834 43.5 -93.501l-72 -1c0 21.333 -7 37.166 -21 47.499s-31.333 15.5 -52 15.5c-34.667 0 -62.834 -14 -84.501 -42s-32.5 -62.833 -32.5 -104.5s10.833 -76.5 32.5 -104.5s50.167 -42 85.5 -42s69.333 17.667 102 53l51 -41c-38 -52 -87.833 -78 -149.5 -78
s-110.5 19.833 -146.5 59.5s-54 90.334 -54 152.001s18 112.834 54 153.501s81.667 61 137 61z" />
    <glyph glyph-name="ordfeminine" unicode="&#xaa;" horiz-adv-x="328" 
d="M236 678l0.000976562 -96h32v-36c-14.667 -8 -28.167 -12 -40.5 -12s-21.333 2.5 -27 7.5s-8.83398 13.167 -9.50098 24.5c-18 -22.667 -38.333 -34 -61 -34s-40 6 -52 18s-18 27.5 -18 46.5s7.66699 34.5 23 46.5s37.666 18 66.999 18h31v21c0 16 -7.16699 24 -21.5 24
s-28.166 -1.66699 -41.499 -5v-19l-50 -12v64c34.667 13.333 64.5 20 89.5 20s44.333 -7 58 -21s20.5 -32.333 20.5 -55zM116.001 600c0 -17.333 9.16699 -26 27.5 -26s30.833 8 37.5 24v24h-31c-22.667 0 -34 -7.33301 -34 -22z" />
    <glyph glyph-name="guillemotleft" unicode="&#xab;" horiz-adv-x="476" 
d="M210 20l-152 156v54l152 156l39 -34l-120 -149l120 -149zM371 20l-152 156v54l152 156l39 -34l-120 -149l120 -149z" />
    <glyph glyph-name="logicalnot" unicode="&#xac;" horiz-adv-x="370" 
d="M60 261v57h250v-138h-57v81h-193z" />
    <glyph glyph-name="uni00AD" unicode="&#xad;" horiz-adv-x="370" 
d="M310 261h-250v57h250v-57z" />
    <glyph glyph-name="registered" unicode="&#xae;" horiz-adv-x="460" 
d="M83 317.5c-36.667 40.333 -55 90.5 -55 150.5s18.333 109.5 55 148.5s87 58.5 151 58.5s114.333 -19.5 151 -58.5s55 -88.5 55 -148.5s-18.333 -110.167 -55 -150.5s-87 -60.5 -151 -60.5s-114.333 20.167 -151 60.5zM113.5 587.5c-29.667 -31 -44.5 -70.5 -44.5 -118.5
s14.833 -88.5 44.5 -121.5s69.834 -49.5 120.501 -49.5s90.667 16.5 120 49.5s44 73.5 44 121.5s-14.667 87.5 -44 118.5s-69.333 46.5 -120 46.5s-90.834 -15.5 -120.501 -46.5zM248 392l0.000976562 -37.001h-101v37h30v163h-30v38h63c39.333 0 69 -7.16699 89 -21.5
s30 -33.166 30 -56.499c0 -35.333 -13.333 -58 -40 -68l38 -55h13v-37h-71v37h13l-33 50c-10.667 0 -21.334 1.33301 -32.001 4v-54h31zM289.001 514.999c0 26 -24 39.332 -72 39.999v-71c10 -3.33301 20.667 -5 32 -5s20.833 3.33301 28.5 10s11.5 15.334 11.5 26.001z" />
    <glyph glyph-name="macron" unicode="&#xaf;" horiz-adv-x="503" 
d="M84 592v64h329v-64h-329z" />
    <glyph glyph-name="degree" unicode="&#xb0;" horiz-adv-x="344" 
d="M111 643c0 -43.333 20.167 -65 60.5 -65s60.5 21.667 60.5 65s-20.167 65 -60.5 65s-60.5 -21.667 -60.5 -65zM60 643c0 34 9.5 61 28.5 81s46.833 30 83.5 30s64.5 -10 83.5 -30s28.5 -47 28.5 -81s-9.5 -61 -28.5 -81s-46.833 -30 -83.5 -30s-64.5 10 -83.5 30
s-28.5 47 -28.5 81z" />
    <glyph glyph-name="plusminus" unicode="&#xb1;" horiz-adv-x="490" 
d="M215 341h-155v57h155v156h60v-156h155v-57h-155v-157h-60v157zM430 80h-370v57h370v-57z" />
    <glyph glyph-name="twosuperior" unicode="&#xb2;" horiz-adv-x="322" 
d="M60 452v40l6 3c30.667 21.333 59.167 46.833 85.5 76.5s39.5 59.167 39.5 88.5c0 25.333 -15 38 -45 38c-10 0 -21 -1.33301 -33 -4v-35h-51v71c24 13.333 51.667 20 83 20c68 0 102 -29.667 102 -89c0 -56.667 -36 -111 -108 -163l67 6l29 27h27l-11 -79h-191z" />
    <glyph glyph-name="threesuperior" unicode="&#xb3;" horiz-adv-x="328" 
d="M79 669l-0.00195312 73c32 8 60.5 12 85.5 12s47.333 -6.5 67 -19.5s29.5 -32.833 29.5 -59.5s-11 -47.667 -33 -63c26.667 -14.667 40 -37.167 40 -67.5s-10.667 -53.333 -32 -69s-48.666 -23.5 -81.999 -23.5s-64.666 7.33301 -93.999 22l22 46
c24 -10.667 48.667 -16 74 -16c37.333 0 56 13.667 56 41c0 25.333 -18.667 38 -56 38h-36v52h17c45.333 0 68 13.667 68 41c0 17.333 -16 26 -48 26c-8 0 -17 -1 -27 -3v-30h-51z" />
    <glyph glyph-name="acute" unicode="&#xb4;" horiz-adv-x="343" 
d="M212 921l-124 -161l-44 26l97 182z" />
    <glyph glyph-name="mu" unicode="&#xb5;" horiz-adv-x="600" 
d="M346 435l0.00195312 65.001h162v-440h82v-42c-24.667 -15.333 -57.334 -23 -98.001 -23s-63.334 17 -68.001 51c-60 -38 -111.5 -57 -154.5 -57s-75.5 11 -97.5 33v-207h77v-65h-239v65h77v620h-77v65h162v-319c0 -38.667 7 -67.834 21 -87.501s43 -29.5 87 -29.5
c33.333 0 81 20 143 60v311h-77z" />
    <glyph glyph-name="mu" unicode="&#x3bc;" horiz-adv-x="600" 
d="M346 435l0.00195312 65.001h162v-440h82v-42c-24.667 -15.333 -57.334 -23 -98.001 -23s-63.334 17 -68.001 51c-60 -38 -111.5 -57 -154.5 -57s-75.5 11 -97.5 33v-207h77v-65h-239v65h77v620h-77v65h162v-319c0 -38.667 7 -67.834 21 -87.501s43 -29.5 87 -29.5
c33.333 0 81 20 143 60v311h-77z" />
    <glyph glyph-name="paragraph" unicode="&#xb6;" horiz-adv-x="686" 
d="M513 547h-132v-767h-70v763c-154.667 -12.667 -232 -61.667 -232 -147c0 -54 21 -81 63 -81c22.667 0 38.167 7.5 46.5 22.5s12.5 37.833 12.5 68.5h68c0 -43.333 -10 -79.833 -30 -109.5s-52.333 -44.5 -97 -44.5s-77.667 14 -99 42s-32 62 -32 102
c0 65.333 31 117.333 93 156s160.667 58 296 58h258v-63h-75v-767h-70v767z" />
    <glyph glyph-name="periodcentered" unicode="&#xb7;" horiz-adv-x="245" 
d="M87 259c-11.333 11.333 -17 25.166 -17 41.499s5.66699 30.166 17 41.499s25.166 17 41.499 17s30.166 -5.66699 41.499 -17s17 -25.166 17 -41.499s-5.66699 -30.166 -17 -41.499s-25.166 -17 -41.499 -17s-30.166 5.66699 -41.499 17z" />
    <glyph glyph-name="cedilla" unicode="&#xb8;" horiz-adv-x="439" 
d="M305 -74c17.333 -16.667 26.002 -41.999 26.002 -75.999s-11.833 -60.5 -35.5 -79.5s-52.834 -28.5 -87.501 -28.5s-66.334 7.33301 -95.001 22l21 54c24 -10.667 46.333 -16 67 -16c44.667 0 67 17.667 67 53c0 34 -18 51 -54 51c-14 0 -31.667 -2.66699 -53 -8l-15 30
l60 82h72l-42 -55c28.667 -2.66699 51.667 -12.334 69 -29.001z" />
    <glyph glyph-name="onesuperior" unicode="&#xb9;" horiz-adv-x="286" 
d="M176 503h50v-52h-160v52h54v173l-51 -8l-9 39l116 46v-250z" />
    <glyph glyph-name="ordmasculine" unicode="&#xba;" horiz-adv-x="344" 
d="M118 603c0 -66 18 -99 54 -99s54 33 54 99s-18 99 -54 99s-54 -33 -54 -99zM60 603c0 46.667 9.5 83.5 28.5 110.5s46.833 40.5 83.5 40.5s64.5 -13.5 83.5 -40.5s28.5 -63.833 28.5 -110.5s-9.5 -83.5 -28.5 -110.5s-46.833 -40.5 -83.5 -40.5s-64.5 13.5 -83.5 40.5
s-28.5 63.833 -28.5 110.5z" />
    <glyph glyph-name="guillemotright" unicode="&#xbb;" horiz-adv-x="476" 
d="M418 176l-152 -156l-39 34l120 149l-120 149l39 34l152 -156v-54zM257 176l-152 -156l-39 34l120 149l-120 149l39 34l152 -156v-54z" />
    <glyph glyph-name="onequarter" unicode="&#xbc;" horiz-adv-x="331" 
d="M226 294v-173h41v-42h-41v-37h33v-42h-127v42h38v37h-119v39l129 176h46zM202 503h50v-52h-160v52h54v173l-51 -8l-9 39l116 46v-250zM71 400h207v-54h-207v54zM170 121v84l-62 -84h62z" />
    <glyph glyph-name="onehalf" unicode="&#xbd;" horiz-adv-x="328" 
d="M60 0v39.999l6 3c30.667 21.333 59.167 46.833 85.5 76.5s39.5 59.167 39.5 88.5c0 25.333 -15 38 -45 38c-10 0 -21 -1.33301 -33 -4v-35h-51v71c24 13.333 51.667 20 83 20c68 0 102 -29.667 102 -89c0 -55.333 -34.667 -108.666 -104 -159.999l15 3h48l29 27h27
l-11 -79h-191zM192 502.999h50v-52h-160v52h54v173l-51 -8l-9 39l116 46v-250zM61 399.999h207v-54h-207v54z" />
    <glyph glyph-name="threequarters" unicode="&#xbe;" horiz-adv-x="338" 
d="M235 294v-173h41v-42h-41v-37h33v-42h-127v42h38v37h-119v39l129 176h46zM83 669l-0.00195312 73c36 8 65.5 12 88.5 12s44.333 -6.5 64 -19.5s29.5 -32.833 29.5 -59.5s-11 -47.667 -33 -63c26.667 -14.667 40 -37.167 40 -67.5s-10.667 -53.333 -32 -69
s-48.666 -23.5 -81.999 -23.5s-64.666 7.33301 -93.999 22l22 46c24 -10.667 48.667 -16 74 -16c37.333 0 56 13.667 56 41c0 25.333 -18.667 38 -56 38h-36v52h25c40 1.33301 60 15 60 41c0 17.333 -16 26 -48 26c-8 0 -17 -1 -27 -3v-30h-51zM60.998 400h217v-54h-217v54z
M178.998 121v84l-62 -84h62z" />
    <glyph glyph-name="questiondown" unicode="&#xbf;" 
d="M290 299l0.000976562 -91c57.333 -24.667 102 -53 134 -85s48 -76 48 -132c0 -134 -78 -201 -234 -201c-75.333 0 -136.333 13.667 -183 41v134h70v-83c35.333 -11.333 74 -17 116 -17c98 0 147 42.333 147 127c0 22.667 -4.33301 43.167 -13 61.5
s-24.334 36.5 -47.001 54.5s-58.667 37.667 -108 59v132h70zM218.001 415c-9.33301 10.667 -14 23.5 -14 38.5s5.16699 28.167 15.5 39.5s22.833 17 37.5 17s26.667 -5.33301 36 -16s14 -23.5 14 -38.5s-5.16699 -28.167 -15.5 -39.5s-22.833 -17 -37.5 -17
s-26.667 5.33301 -36 16z" />
    <glyph glyph-name="Agrave" unicode="&#xc0;" horiz-adv-x="768" 
d="M389 700l174.999 -0.000976562v-75h-60l198 -550h66v-75h-212v75h59l-45 131h-274l-45 -131h60v-75h-212v75h65l198 549c-104 -1.33301 -177 -13.166 -219 -35.499s-63 -56.5 -63 -102.5c0 -20 4.33301 -36.5 13 -49.5s21.334 -19.5 38.001 -19.5
c31.333 0 47 26.333 47 79h80c0 -43.333 -10 -79.833 -30 -109.5s-52.333 -44.5 -97 -44.5s-77.667 14 -99 42s-32 62 -32 102c0 65.333 31 117.333 93 156s160.667 58 296 58zM432.999 604.999l-115 -334h230zM454.999 759.999l-124 161l71 47l97 -182z" />
    <glyph glyph-name="Aacute" unicode="&#xc1;" horiz-adv-x="768" 
d="M389 700l174.999 -0.000976562v-75h-60l198 -550h66v-75h-212v75h59l-45 131h-274l-45 -131h60v-75h-212v75h65l198 549c-104 -1.33301 -177 -13.166 -219 -35.499s-63 -56.5 -63 -102.5c0 -20 4.33301 -36.5 13 -49.5s21.334 -19.5 38.001 -19.5
c31.333 0 47 26.333 47 79h80c0 -43.333 -10 -79.833 -30 -109.5s-52.333 -44.5 -97 -44.5s-77.667 14 -99 42s-32 62 -32 102c0 65.333 31 117.333 93 156s160.667 58 296 58zM432.999 604.999l-115 -334h230zM556.999 920.999l-124 -161l-44 26l97 182z" />
    <glyph glyph-name="Acircumflex" unicode="&#xc2;" horiz-adv-x="768" 
d="M389 700l174.999 -0.000976562v-75h-60l198 -550h66v-75h-212v75h59l-45 131h-274l-45 -131h60v-75h-212v75h65l198 549c-104 -1.33301 -177 -13.166 -219 -35.499s-63 -56.5 -63 -102.5c0 -20 4.33301 -36.5 13 -49.5s21.334 -19.5 38.001 -19.5
c31.333 0 47 26.333 47 79h80c0 -43.333 -10 -79.833 -30 -109.5s-52.333 -44.5 -97 -44.5s-77.667 14 -99 42s-32 62 -32 102c0 65.333 31 117.333 93 156s160.667 58 296 58zM432.999 604.999l-115 -334h230zM459.999 934.999l136 -152l-39 -33l-124 114l-124 -114l-39 33
l136 152h54z" />
    <glyph glyph-name="Atilde" unicode="&#xc3;" horiz-adv-x="768" 
d="M389 700l174.999 -0.000976562v-75h-60l198 -550h66v-75h-212v75h59l-45 131h-274l-45 -131h60v-75h-212v75h65l198 549c-104 -1.33301 -177 -13.166 -219 -35.499s-63 -56.5 -63 -102.5c0 -20 4.33301 -36.5 13 -49.5s21.334 -19.5 38.001 -19.5
c31.333 0 47 26.333 47 79h80c0 -43.333 -10 -79.833 -30 -109.5s-52.333 -44.5 -97 -44.5s-77.667 14 -99 42s-32 62 -32 102c0 65.333 31 117.333 93 156s160.667 58 296 58zM432.999 604.999l-115 -334h230zM372.999 884.999c20 0 43.5 -5.83301 70.5 -17.5
s44.833 -18.834 53.5 -21.501l58 39l32 -24c-19.333 -52.667 -49.666 -79 -90.999 -79c-20 0 -43.5 5.83301 -70.5 17.5s-44.833 18.834 -53.5 21.501l-58 -39l-32 24c19.333 52.667 49.666 79 90.999 79z" />
    <glyph glyph-name="Adieresis" unicode="&#xc4;" horiz-adv-x="768" 
d="M389 700l174.999 -0.000976562v-75h-60l198 -550h66v-75h-212v75h59l-45 131h-274l-45 -131h60v-75h-212v75h65l198 549c-104 -1.33301 -177 -13.166 -219 -35.499s-63 -56.5 -63 -102.5c0 -20 4.33301 -36.5 13 -49.5s21.334 -19.5 38.001 -19.5
c31.333 0 47 26.333 47 79h80c0 -43.333 -10 -79.833 -30 -109.5s-52.333 -44.5 -97 -44.5s-77.667 14 -99 42s-32 62 -32 102c0 65.333 31 117.333 93 156s160.667 58 296 58zM432.999 604.999l-115 -334h230zM288.999 845.999c0 13.333 4.66797 24.833 14.001 34.5
s20.666 14.5 33.999 14.5s24.833 -4.83301 34.5 -14.5s14.5 -21.167 14.5 -34.5s-4.83301 -24.666 -14.5 -33.999s-21 -14 -34 -14s-24.333 4.66699 -34 14s-14.5 20.666 -14.5 33.999zM480 845.999c0 13.333 4.66699 24.833 14 34.5s20.666 14.5 33.999 14.5
s24.833 -4.83301 34.5 -14.5s14.5 -21.167 14.5 -34.5s-4.83301 -24.666 -14.5 -33.999s-21.167 -14 -34.5 -14s-24.666 4.66699 -33.999 14s-14 20.666 -14 33.999z" />
    <glyph glyph-name="Aring" unicode="&#xc5;" horiz-adv-x="768" 
d="M389 700l174.999 -0.000976562v-75h-60l198 -550h66v-75h-212v75h59l-45 131h-274l-45 -131h60v-75h-212v75h65l198 549c-104 -1.33301 -177 -13.166 -219 -35.499s-63 -56.5 -63 -102.5c0 -20 4.33301 -36.5 13 -49.5s21.334 -19.5 38.001 -19.5
c31.333 0 47 26.333 47 79h80c0 -43.333 -10 -79.833 -30 -109.5s-52.333 -44.5 -97 -44.5s-77.667 14 -99 42s-32 62 -32 102c0 65.333 31 117.333 93 156s160.667 58 296 58zM432.999 604.999l-115 -334h230zM508.499 779.999c-20.333 -20 -45.667 -30 -76 -30
s-56 10.167 -77 30.5s-31.5 44.833 -31.5 73.5s10.667 53.5 32 74.5s47 31.5 77 31.5s55.167 -10.333 75.5 -31s30.5 -45.667 30.5 -75s-10.167 -54 -30.5 -74zM397.498 819.499c9 -9.66699 20.667 -14.498 35 -14.498s25.666 4.66699 33.999 14s12.5 21.166 12.5 35.499
s-4.16699 26.333 -12.5 36s-19.666 14.5 -33.999 14.5s-26 -5 -35 -15s-13.5 -21.833 -13.5 -35.5s4.5 -25.334 13.5 -35.001z" />
    <glyph glyph-name="AE" unicode="&#xc6;" horiz-adv-x="985" 
d="M594 311v-236h289v115h70v-190h-541v75h97v131h-224l-64 -131h50v-75h-212v75h74l269 550h-13c-114.667 0 -194.834 -11.167 -240.501 -33.5s-68.5 -57.5 -68.5 -105.5c0 -20 4.33301 -36.5 13 -49.5s21.334 -19.5 38.001 -19.5c31.333 0 47 26.333 47 79h80
c0 -43.333 -10 -79.833 -30 -109.5s-52.333 -44.5 -97 -44.5s-77.667 14 -99 42s-32 62 -32 102c0 65.333 31 117.333 93 156s160.667 58 296 58h555v-190h-70v115h-280v-239h138v60h70v-195h-70v60h-138zM509 271v354h-19l-173 -354h192z" />
    <glyph glyph-name="Ccedilla" unicode="&#xc7;" horiz-adv-x="591" 
d="M530 423c21.333 28 32.002 62 32.002 102c0 54.667 -22.667 99.167 -68 133.5s-98.333 51.5 -159 51.5c-98.667 0 -176.667 -33.833 -234 -101.5s-86 -154.5 -86 -260.5s28.5 -192.167 85.5 -258.5s136.5 -99.5 238.5 -99.5s182.667 38.667 242 116l-61 50
c-54.667 -57.333 -116.5 -86 -185.5 -86s-124.5 26.5 -166.5 79.5s-63 119.833 -63 200.5s21 147.5 63 200.5s97.667 79.5 167 79.5c39.333 0 73.666 -9.5 102.999 -28.5s44 -44.5 44 -76.5c0 -20 -4.33301 -36.5 -13 -49.5s-21.334 -19.5 -38.001 -19.5
c-31.333 0 -47 26.333 -47 79h-80c0 -43.333 10 -79.833 30 -109.5s52.333 -44.5 97 -44.5s77.667 14 99 42zM419.002 -76c17.333 -16.667 26.002 -41.999 26.002 -75.999s-11.833 -60.5 -35.5 -79.5s-52.834 -28.5 -87.501 -28.5s-66.334 7.33301 -95.001 22l21 54
c24 -10.667 46.333 -16 67 -16c44.667 0 67 17.667 67 53c0 34 -18 51 -54 51c-14 0 -31.667 -2.66699 -53 -8l-15 30l60 82h72l-42 -55c28.667 -2.66699 51.667 -12.334 69 -29.001z" />
    <glyph glyph-name="Egrave" unicode="&#xc8;" horiz-adv-x="780" 
d="M389 311l-0.000976562 -236h289v115h70v-190h-541v75h97v548c-82 -5.33301 -139.833 -19 -173.5 -41s-50.5 -54 -50.5 -96c0 -20 4.33301 -36.5 13 -49.5s21.334 -19.5 38.001 -19.5c31.333 0 47 26.333 47 79h80c0 -43.333 -10 -79.833 -30 -109.5
s-52.333 -44.5 -97 -44.5s-77.667 14 -99 42s-32 62 -32 102c0 65.333 31 117.333 93 156s160.667 58 296 58h350v-190h-70v115h-280v-239h138v60h70v-195h-70v60h-138zM471.999 760l-124 161l71 47l97 -182z" />
    <glyph glyph-name="Eacute" unicode="&#xc9;" horiz-adv-x="780" 
d="M389 311l-0.000976562 -236h289v115h70v-190h-541v75h97v548c-82 -5.33301 -139.833 -19 -173.5 -41s-50.5 -54 -50.5 -96c0 -20 4.33301 -36.5 13 -49.5s21.334 -19.5 38.001 -19.5c31.333 0 47 26.333 47 79h80c0 -43.333 -10 -79.833 -30 -109.5
s-52.333 -44.5 -97 -44.5s-77.667 14 -99 42s-32 62 -32 102c0 65.333 31 117.333 93 156s160.667 58 296 58h350v-190h-70v115h-280v-239h138v60h70v-195h-70v60h-138zM573.999 921l-124 -161l-44 26l97 182z" />
    <glyph glyph-name="Ecircumflex" unicode="&#xca;" horiz-adv-x="780" 
d="M389 311l-0.000976562 -236h289v115h70v-190h-541v75h97v548c-82 -5.33301 -139.833 -19 -173.5 -41s-50.5 -54 -50.5 -96c0 -20 4.33301 -36.5 13 -49.5s21.334 -19.5 38.001 -19.5c31.333 0 47 26.333 47 79h80c0 -43.333 -10 -79.833 -30 -109.5
s-52.333 -44.5 -97 -44.5s-77.667 14 -99 42s-32 62 -32 102c0 65.333 31 117.333 93 156s160.667 58 296 58h350v-190h-70v115h-280v-239h138v60h70v-195h-70v60h-138zM476.999 935l136 -152l-39 -33l-124 114l-124 -114l-39 33l136 152h54z" />
    <glyph glyph-name="Edieresis" unicode="&#xcb;" horiz-adv-x="780" 
d="M389 311l-0.000976562 -236h289v115h70v-190h-541v75h97v548c-82 -5.33301 -139.833 -19 -173.5 -41s-50.5 -54 -50.5 -96c0 -20 4.33301 -36.5 13 -49.5s21.334 -19.5 38.001 -19.5c31.333 0 47 26.333 47 79h80c0 -43.333 -10 -79.833 -30 -109.5
s-52.333 -44.5 -97 -44.5s-77.667 14 -99 42s-32 62 -32 102c0 65.333 31 117.333 93 156s160.667 58 296 58h350v-190h-70v115h-280v-239h138v60h70v-195h-70v60h-138zM305.999 846c0 13.333 4.66699 24.833 14 34.5s20.666 14.5 33.999 14.5s24.833 -4.83301 34.5 -14.5
s14.5 -21.167 14.5 -34.5s-4.83301 -24.666 -14.5 -33.999s-21.167 -14 -34.5 -14s-24.666 4.66699 -33.999 14s-14 20.666 -14 33.999zM496.999 846c0 13.333 4.66797 24.833 14.001 34.5s20.666 14.5 33.999 14.5s24.833 -4.83301 34.5 -14.5s14.5 -21.167 14.5 -34.5
s-4.83301 -24.666 -14.5 -33.999s-21 -14 -34 -14s-24.333 4.66699 -34 14s-14.5 20.666 -14.5 33.999z" />
    <glyph glyph-name="Igrave" unicode="&#xcc;" horiz-adv-x="510" 
d="M389 625l-0.000976562 -550h97v-75h-270v75h88v548c-82 -5.33301 -139.833 -19 -173.5 -41s-50.5 -54 -50.5 -96c0 -20 4.33301 -36.5 13 -49.5s21.334 -19.5 38.001 -19.5c31.333 0 47 26.333 47 79h80c0 -43.333 -10 -79.833 -30 -109.5s-52.333 -44.5 -97 -44.5
s-77.667 14 -99 42s-32 62 -32 102c0 65.333 31 117.333 93 156s160.667 58 296 58h97v-75h-97zM327.999 760l-124 161l71 47l97 -182z" />
    <glyph glyph-name="Iacute" unicode="&#xcd;" horiz-adv-x="520" 
d="M389 625l-0.000976562 -550h97v-75h-270v75h88v548c-82 -5.33301 -139.833 -19 -173.5 -41s-50.5 -54 -50.5 -96c0 -20 4.33301 -36.5 13 -49.5s21.334 -19.5 38.001 -19.5c31.333 0 47 26.333 47 79h80c0 -43.333 -10 -79.833 -30 -109.5s-52.333 -44.5 -97 -44.5
s-77.667 14 -99 42s-32 62 -32 102c0 65.333 31 117.333 93 156s160.667 58 296 58h97v-75h-97zM495.999 921l-124 -161l-44 26l97 182z" />
    <glyph glyph-name="Icircumflex" unicode="&#xce;" horiz-adv-x="529" 
d="M389 625l-0.000976562 -550h97v-75h-270v75h88v548c-82 -5.33301 -139.833 -19 -173.5 -41s-50.5 -54 -50.5 -96c0 -20 4.33301 -36.5 13 -49.5s21.334 -19.5 38.001 -19.5c31.333 0 47 26.333 47 79h80c0 -43.333 -10 -79.833 -30 -109.5s-52.333 -44.5 -97 -44.5
s-77.667 14 -99 42s-32 62 -32 102c0 65.333 31 117.333 93 156s160.667 58 296 58h97v-75h-97zM368.999 935l136 -152l-39 -33l-124 114l-124 -114l-39 33l136 152h54z" />
    <glyph glyph-name="Idieresis" unicode="&#xcf;" horiz-adv-x="510" 
d="M389 625l-0.000976562 -550h97v-75h-270v75h88v548c-82 -5.33301 -139.833 -19 -173.5 -41s-50.5 -54 -50.5 -96c0 -20 4.33301 -36.5 13 -49.5s21.334 -19.5 38.001 -19.5c31.333 0 47 26.333 47 79h80c0 -43.333 -10 -79.833 -30 -109.5s-52.333 -44.5 -97 -44.5
s-77.667 14 -99 42s-32 62 -32 102c0 65.333 31 117.333 93 156s160.667 58 296 58h97v-75h-97zM188.999 846c0 13.333 4.66797 24.833 14.001 34.5s20.666 14.5 33.999 14.5s24.833 -4.83301 34.5 -14.5s14.5 -21.167 14.5 -34.5s-4.83301 -24.666 -14.5 -33.999
s-21 -14 -34 -14s-24.333 4.66699 -34 14s-14.5 20.666 -14.5 33.999zM380 846c0 13.333 4.66699 24.833 14 34.5s20.666 14.5 33.999 14.5s24.833 -4.83301 34.5 -14.5s14.5 -21.167 14.5 -34.5s-4.83301 -24.666 -14.5 -33.999s-21.167 -14 -34.5 -14
s-24.666 4.66699 -33.999 14s-14 20.666 -14 33.999z" />
    <glyph glyph-name="Eth" unicode="&#xd0;" horiz-adv-x="847" 
d="M509 -10l-205 10h-88v75h88v185h-104v57h104v305c-81.333 -6 -139 -20.333 -173 -43s-51 -53.667 -51 -93c0 -20 4.33301 -36.5 13 -49.5s21.334 -19.5 38.001 -19.5c31.333 0 47 26.333 47 79h80c0 -43.333 -10 -79.833 -30 -109.5s-52.333 -44.5 -97 -44.5
s-77.667 14 -99 42s-32 62 -32 102c0 65.333 31 117.333 93 156s161.167 58 297.5 58s240.666 -34.167 312.999 -102.5s108.5 -160.833 108.5 -277.5c0 -114.667 -32.333 -202 -97 -262c-49.333 -45.333 -118 -68 -206 -68zM509 65c40 0 74.6689 7.5 104.002 22.5
s51.666 35.167 66.999 60.5c28 48.667 42 106 42 172c0 96.667 -28.333 171.667 -85 225s-139.334 80 -248.001 80v-308h101v-57h-101v-189c61.333 -4 101.333 -6 120 -6z" />
    <glyph glyph-name="Ntilde" unicode="&#xd1;" horiz-adv-x="933" 
d="M480 885c20 0 43.5 -5.83301 70.5 -17.5s44.833 -18.834 53.5 -21.501l58 39l32 -24c-19.333 -52.667 -49.666 -79 -90.999 -79c-20 0 -43.5 5.83301 -70.5 17.5s-44.833 18.834 -53.5 21.501l-58 -39l-32 24c19.333 52.667 49.666 79 90.999 79zM257 710
c52.667 0 94.332 -9.33301 124.999 -28s60.667 -51.667 90 -99l269 -433v475h-87v75h269v-75h-97v-625h-85l-353 564v-489h87v-75h-269v75h97v554c-18 4 -36 6 -54 6c-48 0 -88.167 -12.667 -120.5 -38s-48.5 -59 -48.5 -101c0 -20 4.33301 -36.5 13 -49.5
s21.334 -19.5 38.001 -19.5c31.333 0 47 26.333 47 79h80c0 -43.333 -10 -79.833 -30 -109.5s-52.333 -44.5 -97 -44.5s-77.667 14 -99 42s-32 62 -32 102c0 63.333 22.5 114.833 67.5 154.5s108.167 59.5 189.5 59.5z" />
    <glyph glyph-name="Ograve" unicode="&#xd2;" horiz-adv-x="710" 
d="M515 330.5c-20 -29.667 -52.3359 -44.499 -97.0029 -44.499s-77.667 14 -99 42s-32 62 -32 102c0 54.667 18.667 99.167 56 133.5s81 51.5 131 51.5c48 0 92 -18 132 -54c20.667 -18.667 37.334 -46 50.001 -82s19 -78.333 19 -127c0 -106 -28.667 -192.833 -86 -260.5
s-135.333 -101.5 -234 -101.5s-176.667 33.833 -234 101.5s-86 153.834 -86 258.501s28.667 190.834 86 258.501s135.333 101.5 234 101.5v-75c-69.333 0 -125 -26.833 -167 -80.5s-63 -121.834 -63 -204.501s21 -150.834 63 -204.501s97.667 -80.5 167 -80.5
s125 26.833 167 80.5s63 118.667 63 195s-11 128.666 -33 156.999s-47.667 42.5 -77 42.5s-54.666 -10.333 -75.999 -31s-32 -47 -32 -79c0 -20 4.33301 -36.5 13 -49.5s21.334 -19.5 38.001 -19.5c31.333 0 47 26.333 47 79h80c0 -43.333 -10 -79.833 -30 -109.5z
M376.997 760.001l-124 161l71 47l97 -182z" />
    <glyph glyph-name="Oacute" unicode="&#xd3;" horiz-adv-x="710" 
d="M515 330.5c-20 -29.667 -52.3359 -44.499 -97.0029 -44.499s-77.667 14 -99 42s-32 62 -32 102c0 54.667 18.667 99.167 56 133.5s81 51.5 131 51.5c48 0 92 -18 132 -54c20.667 -18.667 37.334 -46 50.001 -82s19 -78.333 19 -127c0 -106 -28.667 -192.833 -86 -260.5
s-135.333 -101.5 -234 -101.5s-176.667 33.833 -234 101.5s-86 153.834 -86 258.501s28.667 190.834 86 258.501s135.333 101.5 234 101.5v-75c-69.333 0 -125 -26.833 -167 -80.5s-63 -121.834 -63 -204.501s21 -150.834 63 -204.501s97.667 -80.5 167 -80.5
s125 26.833 167 80.5s63 118.667 63 195s-11 128.666 -33 156.999s-47.667 42.5 -77 42.5s-54.666 -10.333 -75.999 -31s-32 -47 -32 -79c0 -20 4.33301 -36.5 13 -49.5s21.334 -19.5 38.001 -19.5c31.333 0 47 26.333 47 79h80c0 -43.333 -10 -79.833 -30 -109.5z
M478.997 921.001l-124 -161l-44 26l97 182z" />
    <glyph glyph-name="Ocircumflex" unicode="&#xd4;" horiz-adv-x="710" 
d="M515 330.5c-20 -29.667 -52.3359 -44.499 -97.0029 -44.499s-77.667 14 -99 42s-32 62 -32 102c0 54.667 18.667 99.167 56 133.5s81 51.5 131 51.5c48 0 92 -18 132 -54c20.667 -18.667 37.334 -46 50.001 -82s19 -78.333 19 -127c0 -106 -28.667 -192.833 -86 -260.5
s-135.333 -101.5 -234 -101.5s-176.667 33.833 -234 101.5s-86 153.834 -86 258.501s28.667 190.834 86 258.501s135.333 101.5 234 101.5v-75c-69.333 0 -125 -26.833 -167 -80.5s-63 -121.834 -63 -204.501s21 -150.834 63 -204.501s97.667 -80.5 167 -80.5
s125 26.833 167 80.5s63 118.667 63 195s-11 128.666 -33 156.999s-47.667 42.5 -77 42.5s-54.666 -10.333 -75.999 -31s-32 -47 -32 -79c0 -20 4.33301 -36.5 13 -49.5s21.334 -19.5 38.001 -19.5c31.333 0 47 26.333 47 79h80c0 -43.333 -10 -79.833 -30 -109.5z
M381.997 935.001l136 -152l-39 -33l-124 114l-124 -114l-39 33l136 152h54z" />
    <glyph glyph-name="Otilde" unicode="&#xd5;" horiz-adv-x="710" 
d="M515 330.5c-20 -29.667 -52.3359 -44.499 -97.0029 -44.499s-77.667 14 -99 42s-32 62 -32 102c0 54.667 18.667 99.167 56 133.5s81 51.5 131 51.5c48 0 92 -18 132 -54c20.667 -18.667 37.334 -46 50.001 -82s19 -78.333 19 -127c0 -106 -28.667 -192.833 -86 -260.5
s-135.333 -101.5 -234 -101.5s-176.667 33.833 -234 101.5s-86 153.834 -86 258.501s28.667 190.834 86 258.501s135.333 101.5 234 101.5v-75c-69.333 0 -125 -26.833 -167 -80.5s-63 -121.834 -63 -204.501s21 -150.834 63 -204.501s97.667 -80.5 167 -80.5
s125 26.833 167 80.5s63 118.667 63 195s-11 128.666 -33 156.999s-47.667 42.5 -77 42.5s-54.666 -10.333 -75.999 -31s-32 -47 -32 -79c0 -20 4.33301 -36.5 13 -49.5s21.334 -19.5 38.001 -19.5c31.333 0 47 26.333 47 79h80c0 -43.333 -10 -79.833 -30 -109.5z
M294.997 885.001c20 0 43.5 -5.83301 70.5 -17.5s44.833 -18.834 53.5 -21.501l58 39l32 -24c-19.333 -52.667 -49.666 -79 -90.999 -79c-20 0 -43.5 5.83301 -70.5 17.5s-44.833 18.834 -53.5 21.501l-58 -39l-32 24c19.333 52.667 49.666 79 90.999 79z" />
    <glyph glyph-name="Odieresis" unicode="&#xd6;" horiz-adv-x="710" 
d="M515 330.5c-20 -29.667 -52.3359 -44.499 -97.0029 -44.499s-77.667 14 -99 42s-32 62 -32 102c0 54.667 18.667 99.167 56 133.5s81 51.5 131 51.5c48 0 92 -18 132 -54c20.667 -18.667 37.334 -46 50.001 -82s19 -78.333 19 -127c0 -106 -28.667 -192.833 -86 -260.5
s-135.333 -101.5 -234 -101.5s-176.667 33.833 -234 101.5s-86 153.834 -86 258.501s28.667 190.834 86 258.501s135.333 101.5 234 101.5v-75c-69.333 0 -125 -26.833 -167 -80.5s-63 -121.834 -63 -204.501s21 -150.834 63 -204.501s97.667 -80.5 167 -80.5
s125 26.833 167 80.5s63 118.667 63 195s-11 128.666 -33 156.999s-47.667 42.5 -77 42.5s-54.666 -10.333 -75.999 -31s-32 -47 -32 -79c0 -20 4.33301 -36.5 13 -49.5s21.334 -19.5 38.001 -19.5c31.333 0 47 26.333 47 79h80c0 -43.333 -10 -79.833 -30 -109.5z
M210.997 846.001c0 13.333 4.66797 24.833 14.001 34.5s20.666 14.5 33.999 14.5s24.833 -4.83301 34.5 -14.5s14.5 -21.167 14.5 -34.5s-4.83301 -24.666 -14.5 -33.999s-21 -14 -34 -14s-24.333 4.66699 -34 14s-14.5 20.666 -14.5 33.999zM401.998 846.001
c0 13.333 4.66699 24.833 14 34.5s20.666 14.5 33.999 14.5s24.833 -4.83301 34.5 -14.5s14.5 -21.167 14.5 -34.5s-4.83301 -24.666 -14.5 -33.999s-21.167 -14 -34.5 -14s-24.666 4.66699 -33.999 14s-14 20.666 -14 33.999z" />
    <glyph glyph-name="multiply" unicode="&#xd7;" horiz-adv-x="490" 
d="M204 290l-110 110l41 40l109 -109l111 110l42 -42l-110 -111l109 -109l-40 -41l-110 110l-111 -111l-42 42z" />
    <glyph glyph-name="Oslash" unicode="&#xd8;" horiz-adv-x="710" 
d="M35 350c0 104.667 28.667 190.833 86 258.5s135.333 101.5 234 101.5v-75c-69.333 0 -125 -26.833 -167 -80.5s-63 -121.834 -63 -204.501c0 -54 9.33301 -102.5 28 -145.5s45 -76.833 79 -101.5l91 220c-24 26 -36 64 -36 114s18.667 92.167 56 126.5s81 51.5 131 51.5
c48 0 92 -18 132 -54c20.667 -18.667 37.334 -46 50.001 -82s19 -78.333 19 -127c0 -106 -28.667 -192.833 -86 -260.5s-135.333 -101.5 -234 -101.5c-30.667 0 -60.667 3.66699 -90 11l-13 -31h-75l23 57c-52.667 28.667 -93.334 71.334 -122.001 128.001
s-43 121.667 -43 195zM417 285.999c-12 0 -23.002 1.00098 -33.002 3.00098l-90 -216c16.667 -5.33301 37 -8 61 -8c69.333 0 125 26.833 167 80.5s63 118.667 63 195s-11 128.666 -33 156.999s-47.667 42.5 -77 42.5s-54.666 -10.333 -75.999 -31s-32 -47 -32 -79
c0 -20 4.33301 -36.5 13 -49.5s21.334 -19.5 38.001 -19.5c31.333 0 47 26.333 47 79h80c0 -43.333 -10 -79.833 -30 -109.5s-52.667 -44.5 -98 -44.5z" />
    <glyph glyph-name="Ugrave" unicode="&#xd9;" horiz-adv-x="948" 
d="M440 113c34 -28.667 77.833 -42.999 131.5 -42.999s98 14.5 133 43.5s52.5 64.5 52.5 106.5v405h-87v75h279v-75h-107v-405c0 -65.333 -24.333 -120 -73 -164s-114.334 -66 -197.001 -66s-148 21.833 -196 65.5s-72 98.5 -72 164.5v403
c-82 -5.33301 -139.833 -19 -173.5 -41s-50.5 -54 -50.5 -96c0 -20 4.33301 -36.5 13 -49.5s21.334 -19.5 38.001 -19.5c31.333 0 47 26.333 47 79h80c0 -43.333 -10 -79.833 -30 -109.5s-52.333 -44.5 -97 -44.5s-77.667 14 -99 42s-32 62 -32 102
c0 65.333 31 117.333 93 156s160.667 58 296 58h87v-75h-87v-405c0 -42.667 17 -78.334 51 -107.001zM599 760.001l-124 161l71 47l97 -182z" />
    <glyph glyph-name="Uacute" unicode="&#xda;" horiz-adv-x="948" 
d="M440 113c34 -28.667 77.833 -42.999 131.5 -42.999s98 14.5 133 43.5s52.5 64.5 52.5 106.5v405h-87v75h279v-75h-107v-405c0 -65.333 -24.333 -120 -73 -164s-114.334 -66 -197.001 -66s-148 21.833 -196 65.5s-72 98.5 -72 164.5v403
c-82 -5.33301 -139.833 -19 -173.5 -41s-50.5 -54 -50.5 -96c0 -20 4.33301 -36.5 13 -49.5s21.334 -19.5 38.001 -19.5c31.333 0 47 26.333 47 79h80c0 -43.333 -10 -79.833 -30 -109.5s-52.333 -44.5 -97 -44.5s-77.667 14 -99 42s-32 62 -32 102
c0 65.333 31 117.333 93 156s160.667 58 296 58h87v-75h-87v-405c0 -42.667 17 -78.334 51 -107.001zM701 921.001l-124 -161l-44 26l97 182z" />
    <glyph glyph-name="Ucircumflex" unicode="&#xdb;" horiz-adv-x="948" 
d="M440 113c34 -28.667 77.833 -42.999 131.5 -42.999s98 14.5 133 43.5s52.5 64.5 52.5 106.5v405h-87v75h279v-75h-107v-405c0 -65.333 -24.333 -120 -73 -164s-114.334 -66 -197.001 -66s-148 21.833 -196 65.5s-72 98.5 -72 164.5v403
c-82 -5.33301 -139.833 -19 -173.5 -41s-50.5 -54 -50.5 -96c0 -20 4.33301 -36.5 13 -49.5s21.334 -19.5 38.001 -19.5c31.333 0 47 26.333 47 79h80c0 -43.333 -10 -79.833 -30 -109.5s-52.333 -44.5 -97 -44.5s-77.667 14 -99 42s-32 62 -32 102
c0 65.333 31 117.333 93 156s160.667 58 296 58h87v-75h-87v-405c0 -42.667 17 -78.334 51 -107.001zM604 935.001l136 -152l-39 -33l-124 114l-124 -114l-39 33l136 152h54z" />
    <glyph glyph-name="Udieresis" unicode="&#xdc;" horiz-adv-x="948" 
d="M440 113c34 -28.667 77.833 -42.999 131.5 -42.999s98 14.5 133 43.5s52.5 64.5 52.5 106.5v405h-87v75h279v-75h-107v-405c0 -65.333 -24.333 -120 -73 -164s-114.334 -66 -197.001 -66s-148 21.833 -196 65.5s-72 98.5 -72 164.5v403
c-82 -5.33301 -139.833 -19 -173.5 -41s-50.5 -54 -50.5 -96c0 -20 4.33301 -36.5 13 -49.5s21.334 -19.5 38.001 -19.5c31.333 0 47 26.333 47 79h80c0 -43.333 -10 -79.833 -30 -109.5s-52.333 -44.5 -97 -44.5s-77.667 14 -99 42s-32 62 -32 102
c0 65.333 31 117.333 93 156s160.667 58 296 58h87v-75h-87v-405c0 -42.667 17 -78.334 51 -107.001zM433 846.001c0 13.333 4.66797 24.833 14.001 34.5s20.666 14.5 33.999 14.5s24.833 -4.83301 34.5 -14.5s14.5 -21.167 14.5 -34.5s-4.83301 -24.666 -14.5 -33.999
s-21 -14 -34 -14s-24.333 4.66699 -34 14s-14.5 20.666 -14.5 33.999zM624.001 846.001c0 13.333 4.66699 24.833 14 34.5s20.666 14.5 33.999 14.5s24.833 -4.83301 34.5 -14.5s14.5 -21.167 14.5 -34.5s-4.83301 -24.666 -14.5 -33.999s-21.167 -14 -34.5 -14
s-24.666 4.66699 -33.999 14s-14 20.666 -14 33.999z" />
    <glyph glyph-name="Yacute" unicode="&#xdd;" horiz-adv-x="745" 
d="M389 704v-75h-55l131 -241l127 237h-70v75h222v-75h-55l-182 -322v-228h97v-75h-270v75h88v228l-180 317c-58.667 -8 -100.334 -22.667 -125.001 -44s-37 -50 -37 -86c0 -20 4.33301 -36.5 13 -49.5s21.334 -19.5 38.001 -19.5c31.333 0 47 26.333 47 79h80
c0 -43.333 -10 -79.833 -30 -109.5s-52.333 -44.5 -97 -44.5s-77.667 14 -99 42s-32 62 -32 102c0 65.333 31 117.333 93 156s160.667 58 296 58zM584 921l-124 -161l-44 26l97 182z" />
    <glyph glyph-name="Thorn" unicode="&#xde;" horiz-adv-x="571" 
d="M181 65h87.001v-65h-250v65h78v561h-77v65h249v-65h-87v-43c76 4.66699 117.667 7 125 7c78 0 137.333 -23 178 -69s61 -103.5 61 -172.5s-20.333 -126 -61 -171s-100 -67.5 -178 -67.5c-50.667 0 -92.334 0.666992 -125.001 2v-47zM422.501 229
c25 29.333 37.5 70 37.5 122s-12.5 92.333 -37.5 121s-58.833 43 -101.5 43c-22 0 -68.667 -2.33301 -140 -7v-321c24 -1.33301 70.667 -2 140 -2c42.667 0 76.5 14.667 101.5 44z" />
    <glyph glyph-name="germandbls" unicode="&#xdf;" 
d="M249 88c37.333 -17.333 73.0029 -26.002 107.003 -26.002s58.5 6.5 73.5 19.5s22.5 29.833 22.5 50.5s-9.33301 42.334 -28 65.001s-39 42.334 -61 59.001s-42.333 37 -61 61s-28 47.833 -28 71.5s8.66699 46.834 26 69.501s34.666 44.167 51.999 64.5
s26 39.166 26 56.499s-7.5 32.833 -22.5 46.5s-39.667 20.5 -74 20.5s-59.666 -12.667 -75.999 -38s-24.5 -57.333 -24.5 -96v-512h-162v65h77v322h-71v63h71v61c0 30 4.16699 58.333 12.5 85s18.666 48 30.999 64s31.333 30.167 57 42.5s56.167 18.5 91.5 18.5
c59.333 0 103.333 -14.833 132 -44.5s43 -62.167 43 -97.5c0 -20.667 -5.5 -41.167 -16.5 -61.5s-22.833 -36.833 -35.5 -49.5c-34.667 -36 -52 -62.667 -52 -80c0 -18 21 -45.333 63 -82c17.333 -14.667 34.666 -30.334 51.999 -47.001s32.166 -36.5 44.499 -59.5
s18.5 -46.833 18.5 -71.5c0 -39.333 -14.833 -72.666 -44.5 -99.999s-72 -41 -127 -41s-102.5 8.33301 -142.5 25z" />
    <glyph glyph-name="agrave" unicode="&#xe0;" horiz-adv-x="522" 
d="M167 -10c-46 0 -82.001 13.168 -108.001 39.501s-39 61.666 -39 105.999s17.333 81.5 52 111.5s86 45 154 45h109v51c0 61.333 -29.333 92 -88 92c-49.333 0 -94.666 -6 -135.999 -18v-67h-70v119c30 12.667 65.5 22.667 106.5 30s75.167 11 102.5 11
c53.333 0 95 -15.167 125 -45.5s45 -70.833 45 -121.5v-283h82v-42c-24.667 -15.333 -53 -23 -85 -23s-53.667 5.33301 -65 16s-17 28.667 -17 54c-50 -50 -106 -75 -168 -75zM175.999 65.001c57.333 0 110.334 32.332 159.001 96.999v64h-110
c-40.667 0 -70.834 -8 -90.501 -24s-29.5 -36.167 -29.5 -60.5s6 -43.166 18 -56.499s29.667 -20 53 -20zM268 560l-124 161l71 47l97 -182z" />
    <glyph glyph-name="aacute" unicode="&#xe1;" horiz-adv-x="522" 
d="M370 721l-124 -161l-44 26l97 182zM167 -10c-46 0 -82.001 13.168 -108.001 39.501s-39 61.666 -39 105.999s17.333 81.5 52 111.5s86 45 154 45h109v51c0 61.333 -29.333 92 -88 92c-49.333 0 -94.666 -6 -135.999 -18v-67h-70v119c30 12.667 65.5 22.667 106.5 30
s75.167 11 102.5 11c53.333 0 95 -15.167 125 -45.5s45 -70.833 45 -121.5v-283h82v-42c-24.667 -15.333 -53 -23 -85 -23s-53.667 5.33301 -65 16s-17 28.667 -17 54c-50 -50 -106 -75 -168 -75zM175.999 65.001c57.333 0 110.334 32.332 159.001 96.999v64h-110
c-40.667 0 -70.834 -8 -90.501 -24s-29.5 -36.167 -29.5 -60.5s6 -43.166 18 -56.499s29.667 -20 53 -20z" />
    <glyph glyph-name="acircumflex" unicode="&#xe2;" horiz-adv-x="522" 
d="M273 735l136 -152l-39 -33l-124 114l-124 -114l-39 33l136 152h54zM167 -10c-46 0 -82.001 13.168 -108.001 39.501s-39 61.666 -39 105.999s17.333 81.5 52 111.5s86 45 154 45h109v51c0 61.333 -29.333 92 -88 92c-49.333 0 -94.666 -6 -135.999 -18v-67h-70v119
c30 12.667 65.5 22.667 106.5 30s75.167 11 102.5 11c53.333 0 95 -15.167 125 -45.5s45 -70.833 45 -121.5v-283h82v-42c-24.667 -15.333 -53 -23 -85 -23s-53.667 5.33301 -65 16s-17 28.667 -17 54c-50 -50 -106 -75 -168 -75zM175.999 65.001
c57.333 0 110.334 32.332 159.001 96.999v64h-110c-40.667 0 -70.834 -8 -90.501 -24s-29.5 -36.167 -29.5 -60.5s6 -43.166 18 -56.499s29.667 -20 53 -20z" />
    <glyph glyph-name="atilde" unicode="&#xe3;" horiz-adv-x="522" 
d="M186 685c20 0 43.5 -5.83301 70.5 -17.5s44.833 -18.834 53.5 -21.501l58 39l32 -24c-19.333 -52.667 -49.666 -79 -90.999 -79c-20 0 -43.5 5.83301 -70.5 17.5s-44.833 18.834 -53.5 21.501l-58 -39l-32 24c19.333 52.667 49.666 79 90.999 79zM167 -10
c-46 0 -82.001 13.168 -108.001 39.501s-39 61.666 -39 105.999s17.333 81.5 52 111.5s86 45 154 45h109v51c0 61.333 -29.333 92 -88 92c-49.333 0 -94.666 -6 -135.999 -18v-67h-70v119c30 12.667 65.5 22.667 106.5 30s75.167 11 102.5 11c53.333 0 95 -15.167 125 -45.5
s45 -70.833 45 -121.5v-283h82v-42c-24.667 -15.333 -53 -23 -85 -23s-53.667 5.33301 -65 16s-17 28.667 -17 54c-50 -50 -106 -75 -168 -75zM175.999 65.001c57.333 0 110.334 32.332 159.001 96.999v64h-110c-40.667 0 -70.834 -8 -90.501 -24s-29.5 -36.167 -29.5 -60.5
s6 -43.166 18 -56.499s29.667 -20 53 -20z" />
    <glyph glyph-name="adieresis" unicode="&#xe4;" horiz-adv-x="522" 
d="M102 646c0 13.333 4.66699 24.833 14 34.5s20.666 14.5 33.999 14.5s24.833 -4.83301 34.5 -14.5s14.5 -21.167 14.5 -34.5s-4.83301 -24.666 -14.5 -33.999s-21.167 -14 -34.5 -14s-24.666 4.66699 -33.999 14s-14 20.666 -14 33.999zM293 646
c0 13.333 4.66797 24.833 14.001 34.5s20.666 14.5 33.999 14.5s24.833 -4.83301 34.5 -14.5s14.5 -21.167 14.5 -34.5s-4.83301 -24.666 -14.5 -33.999s-21 -14 -34 -14s-24.333 4.66699 -34 14s-14.5 20.666 -14.5 33.999zM167.001 -10
c-46 0 -82.001 13.168 -108.001 39.501s-39 61.666 -39 105.999s17.333 81.5 52 111.5s86 45 154 45h109v51c0 61.333 -29.333 92 -88 92c-49.333 0 -94.666 -6 -135.999 -18v-67h-70v119c30 12.667 65.5 22.667 106.5 30s75.167 11 102.5 11c53.333 0 95 -15.167 125 -45.5
s45 -70.833 45 -121.5v-283h82v-42c-24.667 -15.333 -53 -23 -85 -23s-53.667 5.33301 -65 16s-17 28.667 -17 54c-50 -50 -106 -75 -168 -75zM176 65.001c57.333 0 110.334 32.332 159.001 96.999v64h-110c-40.667 0 -70.834 -8 -90.501 -24s-29.5 -36.167 -29.5 -60.5
s6 -43.166 18 -56.499s29.667 -20 53 -20z" />
    <glyph glyph-name="aring" unicode="&#xe5;" horiz-adv-x="522" 
d="M321.5 580c-20.333 -20 -45.667 -30 -76 -30s-56 10.167 -77 30.5s-31.5 44.833 -31.5 73.5s10.667 53.5 32 74.5s47 31.5 77 31.5s55.167 -10.333 75.5 -31s30.5 -45.667 30.5 -75s-10.167 -54 -30.5 -74zM210.499 619.5c9 -9.66699 20.667 -14.498 35 -14.498
s25.666 4.66699 33.999 14s12.5 21.166 12.5 35.499s-4.16699 26.333 -12.5 36s-19.666 14.5 -33.999 14.5s-26 -5 -35 -15s-13.5 -21.833 -13.5 -35.5s4.5 -25.334 13.5 -35.001zM166.999 -9.99805c-46 0 -82.001 13.168 -108.001 39.501s-39 61.666 -39 105.999
s17.333 81.5 52 111.5s86 45 154 45h109v51c0 61.333 -29.333 92 -88 92c-49.333 0 -94.666 -6 -135.999 -18v-67h-70v119c30 12.667 65.5 22.667 106.5 30s75.167 11 102.5 11c53.333 0 95 -15.167 125 -45.5s45 -70.833 45 -121.5v-283h82v-42
c-24.667 -15.333 -53 -23 -85 -23s-53.667 5.33301 -65 16s-17 28.667 -17 54c-50 -50 -106 -75 -168 -75zM175.998 65.0029c57.333 0 110.334 32.332 159.001 96.999v64h-110c-40.667 0 -70.834 -8 -90.501 -24s-29.5 -36.167 -29.5 -60.5s6 -43.166 18 -56.499
s29.667 -20 53 -20z" />
    <glyph glyph-name="ae" unicode="&#xe6;" horiz-adv-x="813" 
d="M783 284l-0.00195312 -52.999h-353c3.33301 -48.667 17.666 -88.5 42.999 -119.5s59.333 -46.5 102 -46.5c28 0 53.167 3 75.5 9s37.833 11.5 46.5 16.5s20.667 12.5 36 22.5l37 -56c-50.667 -44.667 -116.167 -67 -196.5 -67s-141.166 30.667 -182.499 92
c-61.333 -61.333 -132.666 -92 -213.999 -92c-46 0 -82 13.167 -108 39.5s-39 61.666 -39 105.999s17.333 81.333 52 111s86 44.5 154 44.5h109v52c0 61.333 -29.333 92 -88 92c-49.333 0 -94.666 -6 -135.999 -18v-67h-70v119c30 12.667 65.5 22.667 106.5 30
s75.167 11 102.5 11c68 0 116.667 -24.333 146 -73c42 48.667 97.333 73 166 73s121 -21 157 -63s54 -96.333 54 -163zM185.998 65.001c66 0 124.666 25.666 175.999 76.999c-9.33301 27.333 -15 55 -17 83h-110c-41.333 0 -71.666 -7.83301 -90.999 -23.5
s-29 -35.667 -29 -60s6 -43.166 18 -56.499s29.667 -20 53 -20zM661.497 399c-20.333 24 -49.333 36 -87 36s-68.5 -12.167 -92.5 -36.5s-40 -56.5 -48 -96.5h264c-4 40.667 -16.167 73 -36.5 97z" />
    <glyph glyph-name="ccedilla" unicode="&#xe7;" horiz-adv-x="465" 
d="M95.5 436.5c-40.333 -49 -60.5 -111.167 -60.5 -186.5s20.167 -137.5 60.5 -186.5s97.666 -73.5 171.999 -73.5s135.166 22.333 182.499 67l-37 56c-12.667 -10 -23.667 -17.667 -33 -23c-28 -16.667 -66.333 -25 -115 -25c-46 0 -81.667 17.333 -107 52s-38 79 -38 133
s12.667 98.333 38 133s61 52 107 52c32 0 62.333 -6 91 -18v-67h70v119c-45.333 27.333 -101.666 41 -168.999 41s-121.166 -24.5 -161.499 -73.5zM349 -76c17.333 -16.667 26.002 -41.999 26.002 -75.999s-11.833 -60.5 -35.5 -79.5s-52.834 -28.5 -87.501 -28.5
s-66.334 7.33301 -95.001 22l21 54c24 -10.667 46.333 -16 67 -16c44.667 0 67 17.667 67 53c0 34 -18 51 -54 51c-14 0 -31.667 -2.66699 -53 -8l-15 30l60 82h72l-42 -55c28.667 -2.66699 51.667 -12.334 69 -29.001z" />
    <glyph glyph-name="egrave" unicode="&#xe8;" horiz-adv-x="503" 
d="M473 284l0.000976562 -53h-353c3.33301 -48.667 17.666 -88.5 42.999 -119.5s59.333 -46.5 102 -46.5c28 0 53.167 3 75.5 9s37.833 11.5 46.5 16.5s20.667 12.5 36 22.5l37 -56c-50.667 -44.667 -114 -67 -190 -67s-134.167 24.5 -174.5 73.5s-60.5 111.167 -60.5 186.5
s20.167 137.5 60.5 186.5s95.333 73.5 165 73.5s122.5 -21 158.5 -63s54 -96.333 54 -163zM351.501 399c-20.333 24 -49.333 36 -87 36s-68.5 -12.167 -92.5 -36.5s-40 -56.5 -48 -96.5h264c-4 40.667 -16.167 73 -36.5 97zM292.001 560l-124 161l71 47l97 -182z" />
    <glyph glyph-name="eacute" unicode="&#xe9;" horiz-adv-x="503" 
d="M473 284l0.000976562 -53h-353c3.33301 -48.667 17.666 -88.5 42.999 -119.5s59.333 -46.5 102 -46.5c28 0 53.167 3 75.5 9s37.833 11.5 46.5 16.5s20.667 12.5 36 22.5l37 -56c-50.667 -44.667 -114 -67 -190 -67s-134.167 24.5 -174.5 73.5s-60.5 111.167 -60.5 186.5
s20.167 137.5 60.5 186.5s95.333 73.5 165 73.5s122.5 -21 158.5 -63s54 -96.333 54 -163zM351.501 399c-20.333 24 -49.333 36 -87 36s-68.5 -12.167 -92.5 -36.5s-40 -56.5 -48 -96.5h264c-4 40.667 -16.167 73 -36.5 97zM394.001 721l-124 -161l-44 26l97 182z" />
    <glyph glyph-name="ecircumflex" unicode="&#xea;" horiz-adv-x="503" 
d="M473 284l0.000976562 -53h-353c3.33301 -48.667 17.666 -88.5 42.999 -119.5s59.333 -46.5 102 -46.5c28 0 53.167 3 75.5 9s37.833 11.5 46.5 16.5s20.667 12.5 36 22.5l37 -56c-50.667 -44.667 -114 -67 -190 -67s-134.167 24.5 -174.5 73.5s-60.5 111.167 -60.5 186.5
s20.167 137.5 60.5 186.5s95.333 73.5 165 73.5s122.5 -21 158.5 -63s54 -96.333 54 -163zM351.501 399c-20.333 24 -49.333 36 -87 36s-68.5 -12.167 -92.5 -36.5s-40 -56.5 -48 -96.5h264c-4 40.667 -16.167 73 -36.5 97zM297.001 735l136 -152l-39 -33l-124 114
l-124 -114l-39 33l136 152h54z" />
    <glyph glyph-name="edieresis" unicode="&#xeb;" horiz-adv-x="503" 
d="M473 284l0.000976562 -53h-353c3.33301 -48.667 17.666 -88.5 42.999 -119.5s59.333 -46.5 102 -46.5c28 0 53.167 3 75.5 9s37.833 11.5 46.5 16.5s20.667 12.5 36 22.5l37 -56c-50.667 -44.667 -114 -67 -190 -67s-134.167 24.5 -174.5 73.5s-60.5 111.167 -60.5 186.5
s20.167 137.5 60.5 186.5s95.333 73.5 165 73.5s122.5 -21 158.5 -63s54 -96.333 54 -163zM351.501 399c-20.333 24 -49.333 36 -87 36s-68.5 -12.167 -92.5 -36.5s-40 -56.5 -48 -96.5h264c-4 40.667 -16.167 73 -36.5 97zM126.001 646c0 13.333 4.66699 24.833 14 34.5
s20.666 14.5 33.999 14.5s24.833 -4.83301 34.5 -14.5s14.5 -21.167 14.5 -34.5s-4.83301 -24.666 -14.5 -33.999s-21.167 -14 -34.5 -14s-24.666 4.66699 -33.999 14s-14 20.666 -14 33.999zM317.001 646c0 13.333 4.66797 24.833 14.001 34.5s20.666 14.5 33.999 14.5
s24.833 -4.83301 34.5 -14.5s14.5 -21.167 14.5 -34.5s-4.83301 -24.666 -14.5 -33.999s-21 -14 -34 -14s-24.333 4.66699 -34 14s-14.5 20.666 -14.5 33.999z" />
    <glyph glyph-name="igrave" unicode="&#xec;" horiz-adv-x="315" 
d="M41 435v65h162v-435h87v-65h-250v65h78v370h-77zM182 560l-124 161l71 47l97 -182z" />
    <glyph glyph-name="iacute" unicode="&#xed;" horiz-adv-x="315" 
d="M41 435v65h162v-435h87v-65h-250v65h78v370h-77zM284 721l-124 -161l-44 26l97 182z" />
    <glyph glyph-name="icircumflex" unicode="&#xee;" horiz-adv-x="315" 
d="M41 435v65h162v-435h87v-65h-250v65h78v370h-77zM187 735l136 -152l-39 -33l-124 114l-124 -114l-39 33l136 152h54z" />
    <glyph glyph-name="idieresis" unicode="&#xef;" horiz-adv-x="315" 
d="M41 435v65h162v-435h87v-65h-250v65h78v370h-77zM16 646c0 13.333 4.66699 24.833 14 34.5s20.666 14.5 33.999 14.5s24.833 -4.83301 34.5 -14.5s14.5 -21.167 14.5 -34.5s-4.83301 -24.666 -14.5 -33.999s-21.167 -14 -34.5 -14s-24.666 4.66699 -33.999 14
s-14 20.666 -14 33.999zM207 646c0 13.333 4.66797 24.833 14.001 34.5s20.666 14.5 33.999 14.5s24.833 -4.83301 34.5 -14.5s14.5 -21.167 14.5 -34.5s-4.83301 -24.666 -14.5 -33.999s-21 -14 -34 -14s-24.333 4.66699 -34 14s-14.5 20.666 -14.5 33.999z" />
    <glyph glyph-name="eth" unicode="&#xf0;" horiz-adv-x="507" 
d="M479 294c0 -52 -6.83398 -98.002 -20.501 -138.002s-38 -73.5 -73 -100.5s-79.5 -40.5 -133.5 -40.5c-66 0 -117.5 22.5 -154.5 67.5s-55.5 101.333 -55.5 169s22.5 121.167 67.5 160.5s105.167 59 180.5 59c32 0 59.667 -4.33301 83 -13
c-13.333 50 -32.666 92 -57.999 126l-80 -61l-41 48l77 58c-35.333 26.667 -75 42.334 -119 47.001l19 67c61.333 -7.33301 115.333 -29.666 162 -66.999l74 56l40 -48l-70 -53c68 -82.667 102 -195 102 -337zM298.999 396.998c-57.333 0 -100.166 -13.167 -128.499 -39.5
s-42.5 -62.5 -42.5 -108.5s10 -84.167 30 -114.5s51.667 -45.5 95 -45.5c94.667 0 142 64.667 142 194c0 36.667 -2.33301 70 -7 100c-24.667 9.33301 -54.334 14 -89.001 14z" />
    <glyph glyph-name="ntilde" unicode="&#xf1;" horiz-adv-x="610" 
d="M182 65l87 -0.000976562v-65h-249v65h77v370h-77v65h143l12 -53c22.667 12.667 41 22.5 55 29.5s34.167 14.333 60.5 22s51.833 11.5 76.5 11.5c57.333 0 96.833 -17 118.5 -51s32.5 -81 32.5 -141v-258h82v-42c-24.667 -15.333 -53.167 -23 -85.5 -23s-54 5.5 -65 16.5
s-16.5 28.833 -16.5 53.5v253c0 38.667 -5 67.834 -15 87.501s-33 29.5 -69 29.5s-91.667 -20 -167 -60v-310zM240 684.999c20 0 43.5 -5.83301 70.5 -17.5s44.833 -18.834 53.5 -21.501l58 39l32 -24c-19.333 -52.667 -49.666 -79 -90.999 -79
c-20 0 -43.5 5.83301 -70.5 17.5s-44.833 18.834 -53.5 21.501l-58 -39l-32 24c19.333 52.667 49.666 79 90.999 79z" />
    <glyph glyph-name="ograve" unicode="&#xf2;" 
d="M35 250c0 75.333 21 137.5 63 186.5s101 73.5 177 73.5s135 -24.5 177 -73.5s63 -111.167 63 -186.5s-21 -137.5 -63 -186.5s-101 -73.5 -177 -73.5s-135 24.5 -177 73.5s-63 111.167 -63 186.5zM120 250c0 -54 13.667 -98.333 41 -133s65.333 -52 114 -52
s86.667 17.333 114 52s41 79 41 133s-13.667 98.333 -41 133s-65.333 52 -114 52s-86.667 -17.333 -114 -52s-41 -79 -41 -133zM297 560l-124 161l71 47l97 -182z" />
    <glyph glyph-name="oacute" unicode="&#xf3;" 
d="M35 250c0 75.333 21 137.5 63 186.5s101 73.5 177 73.5s135 -24.5 177 -73.5s63 -111.167 63 -186.5s-21 -137.5 -63 -186.5s-101 -73.5 -177 -73.5s-135 24.5 -177 73.5s-63 111.167 -63 186.5zM120 250c0 -54 13.667 -98.333 41 -133s65.333 -52 114 -52
s86.667 17.333 114 52s41 79 41 133s-13.667 98.333 -41 133s-65.333 52 -114 52s-86.667 -17.333 -114 -52s-41 -79 -41 -133zM399 721l-124 -161l-44 26l97 182z" />
    <glyph glyph-name="ocircumflex" unicode="&#xf4;" 
d="M35 250c0 75.333 21 137.5 63 186.5s101 73.5 177 73.5s135 -24.5 177 -73.5s63 -111.167 63 -186.5s-21 -137.5 -63 -186.5s-101 -73.5 -177 -73.5s-135 24.5 -177 73.5s-63 111.167 -63 186.5zM120 250c0 -54 13.667 -98.333 41 -133s65.333 -52 114 -52
s86.667 17.333 114 52s41 79 41 133s-13.667 98.333 -41 133s-65.333 52 -114 52s-86.667 -17.333 -114 -52s-41 -79 -41 -133zM302 735l136 -152l-39 -33l-124 114l-124 -114l-39 33l136 152h54z" />
    <glyph glyph-name="otilde" unicode="&#xf5;" 
d="M35 250c0 75.333 21 137.5 63 186.5s101 73.5 177 73.5s135 -24.5 177 -73.5s63 -111.167 63 -186.5s-21 -137.5 -63 -186.5s-101 -73.5 -177 -73.5s-135 24.5 -177 73.5s-63 111.167 -63 186.5zM120 250c0 -54 13.667 -98.333 41 -133s65.333 -52 114 -52
s86.667 17.333 114 52s41 79 41 133s-13.667 98.333 -41 133s-65.333 52 -114 52s-86.667 -17.333 -114 -52s-41 -79 -41 -133zM215 685c20 0 43.5 -5.83301 70.5 -17.5s44.833 -18.834 53.5 -21.501l58 39l32 -24c-19.333 -52.667 -49.666 -79 -90.999 -79
c-20 0 -43.5 5.83301 -70.5 17.5s-44.833 18.834 -53.5 21.501l-58 -39l-32 24c19.333 52.667 49.666 79 90.999 79z" />
    <glyph glyph-name="odieresis" unicode="&#xf6;" 
d="M35 250c0 75.333 21 137.5 63 186.5s101 73.5 177 73.5s135 -24.5 177 -73.5s63 -111.167 63 -186.5s-21 -137.5 -63 -186.5s-101 -73.5 -177 -73.5s-135 24.5 -177 73.5s-63 111.167 -63 186.5zM120 250c0 -54 13.667 -98.333 41 -133s65.333 -52 114 -52
s86.667 17.333 114 52s41 79 41 133s-13.667 98.333 -41 133s-65.333 52 -114 52s-86.667 -17.333 -114 -52s-41 -79 -41 -133zM131 646c0 13.333 4.66797 24.833 14.001 34.5s20.666 14.5 33.999 14.5s24.833 -4.83301 34.5 -14.5s14.5 -21.167 14.5 -34.5
s-4.83301 -24.666 -14.5 -33.999s-21 -14 -34 -14s-24.333 4.66699 -34 14s-14.5 20.666 -14.5 33.999zM322.001 646c0 13.333 4.66699 24.833 14 34.5s20.666 14.5 33.999 14.5s24.833 -4.83301 34.5 -14.5s14.5 -21.167 14.5 -34.5s-4.83301 -24.666 -14.5 -33.999
s-21.167 -14 -34.5 -14s-24.666 4.66699 -33.999 14s-14 20.666 -14 33.999z" />
    <glyph glyph-name="divide" unicode="&#xf7;" horiz-adv-x="370" 
d="M60 320v57h250v-57h-250zM130 190c0 16.667 5.83301 30.834 17.5 42.501s25.834 17.5 42.501 17.5s30.834 -5.83301 42.501 -17.5s17.5 -25.834 17.5 -42.501s-5.83301 -30.834 -17.5 -42.501s-25.834 -17.5 -42.501 -17.5s-30.834 5.83301 -42.501 17.5
s-17.5 25.834 -17.5 42.501zM130 500c0 16.667 5.83301 30.834 17.5 42.501s25.834 17.5 42.501 17.5s30.834 -5.83301 42.501 -17.5s17.5 -25.834 17.5 -42.501s-5.83301 -30.834 -17.5 -42.501s-25.834 -17.5 -42.501 -17.5s-30.834 5.83301 -42.501 17.5
s-17.5 25.834 -17.5 42.501z" />
    <glyph glyph-name="oslash" unicode="&#xf8;" 
d="M91 71c-37.333 46.667 -55.999 106.999 -55.999 180.999s21 135.5 63 184.5s101 73.5 177 73.5c51.333 0 95.666 -12 132.999 -36l20 26h87l-56 -72c37.333 -47.333 56 -107.666 56 -180.999s-21 -134.5 -63 -183.5s-101 -73.5 -177 -73.5
c-51.333 0 -95.333 11.667 -132 35l-19 -25h-88zM161.001 382.999c-27.333 -34.667 -41 -76.5 -41 -125.5s8.33301 -88.167 25 -117.5l213 271c-23.333 16 -51 24 -83 24c-48.667 0 -86.667 -17.333 -114 -52zM389.001 116.999c27.333 34.667 41 75.667 41 123
s-8.33301 87 -25 119l-212 -271c22.667 -15.333 50 -23 82 -23c48.667 0 86.667 17.333 114 52z" />
    <glyph glyph-name="ugrave" unicode="&#xf9;" horiz-adv-x="600" 
d="M346 435l0.000976562 65.001h162v-440h82v-42c-24.667 -15.333 -57.5 -23 -98.5 -23s-63.5 17.667 -67.5 53c-70 -39.333 -132.833 -59 -188.5 -59s-94.334 17 -116.001 51s-32.5 81 -32.5 141v254h-77v65h162v-319c0 -38.667 5 -67.834 15 -87.501s33 -29.5 69 -29.5
s91.667 20 167 60v311h-77zM312.001 560.001l-124 161l71 47l97 -182z" />
    <glyph glyph-name="uacute" unicode="&#xfa;" horiz-adv-x="600" 
d="M346 435l0.000976562 65.001h162v-440h82v-42c-24.667 -15.333 -57.5 -23 -98.5 -23s-63.5 17.667 -67.5 53c-70 -39.333 -132.833 -59 -188.5 -59s-94.334 17 -116.001 51s-32.5 81 -32.5 141v254h-77v65h162v-319c0 -38.667 5 -67.834 15 -87.501s33 -29.5 69 -29.5
s91.667 20 167 60v311h-77zM414.001 721.001l-124 -161l-44 26l97 182z" />
    <glyph glyph-name="ucircumflex" unicode="&#xfb;" horiz-adv-x="600" 
d="M346 435l0.000976562 65.001h162v-440h82v-42c-24.667 -15.333 -57.5 -23 -98.5 -23s-63.5 17.667 -67.5 53c-70 -39.333 -132.833 -59 -188.5 -59s-94.334 17 -116.001 51s-32.5 81 -32.5 141v254h-77v65h162v-319c0 -38.667 5 -67.834 15 -87.501s33 -29.5 69 -29.5
s91.667 20 167 60v311h-77zM317.001 735.001l136 -152l-39 -33l-124 114l-124 -114l-39 33l136 152h54z" />
    <glyph glyph-name="udieresis" unicode="&#xfc;" horiz-adv-x="600" 
d="M346 435l0.000976562 65.001h162v-440h82v-42c-24.667 -15.333 -57.5 -23 -98.5 -23s-63.5 17.667 -67.5 53c-70 -39.333 -132.833 -59 -188.5 -59s-94.334 17 -116.001 51s-32.5 81 -32.5 141v254h-77v65h162v-319c0 -38.667 5 -67.834 15 -87.501s33 -29.5 69 -29.5
s91.667 20 167 60v311h-77zM146.001 646.001c0 13.333 4.66699 24.833 14 34.5s20.666 14.5 33.999 14.5s24.833 -4.83301 34.5 -14.5s14.5 -21.167 14.5 -34.5s-4.83301 -24.666 -14.5 -33.999s-21.167 -14 -34.5 -14s-24.666 4.66699 -33.999 14s-14 20.666 -14 33.999z
M337.001 646.001c0 13.333 4.66797 24.833 14.001 34.5s20.666 14.5 33.999 14.5s24.833 -4.83301 34.5 -14.5s14.5 -21.167 14.5 -34.5s-4.83301 -24.666 -14.5 -33.999s-21 -14 -34 -14s-24.333 4.66699 -34 14s-14.5 20.666 -14.5 33.999z" />
    <glyph glyph-name="yacute" unicode="&#xfd;" horiz-adv-x="524" 
d="M10 435l0.000976562 65h189v-65h-36l112 -339l105 339h-46v65h180v-65h-47l-145 -435c-25.333 -74 -53.333 -130.167 -84 -168.5s-73.334 -57.5 -128.001 -57.5c-31.333 0 -64.666 6 -99.999 18l24 70c27.333 -8 50.666 -12 69.999 -12c57.333 0 101.333 45.333 132 136
l-164 449h-62zM394.001 721l-124 -161l-44 26l97 182z" />
    <glyph glyph-name="thorn" unicode="&#xfe;" horiz-adv-x="552" 
d="M10 -215l0.000976562 65h77v785h-77v65h162v-255c39.333 43.333 89.666 65 150.999 65s109 -24.167 143 -72.5s51 -110.333 51 -186s-20 -138.167 -60 -187.5s-97 -74 -171 -74c-34.667 0 -72.667 6.66699 -114 20v-160h77v-65h-239zM399.001 382
c-22 35.333 -52.5 53 -91.5 53s-70.5 -15.333 -94.5 -46s-37.667 -68.667 -41 -114v-179c36 -20.667 71.667 -31 107 -31c46 0 83 16.5 111 49.5s42 77 42 132s-11 100.167 -33 135.5z" />
    <glyph glyph-name="ydieresis" unicode="&#xff;" horiz-adv-x="524" 
d="M10 435l0.000976562 65h189v-65h-36l112 -339l105 339h-46v65h180v-65h-47l-145 -435c-25.333 -74 -53.333 -130.167 -84 -168.5s-73.334 -57.5 -128.001 -57.5c-31.333 0 -64.666 6 -99.999 18l24 70c27.333 -8 50.666 -12 69.999 -12c57.333 0 101.333 45.333 132 136
l-164 449h-62zM126.001 646c0 13.333 4.66699 24.833 14 34.5s20.666 14.5 33.999 14.5s24.833 -4.83301 34.5 -14.5s14.5 -21.167 14.5 -34.5s-4.83301 -24.666 -14.5 -33.999s-21.167 -14 -34.5 -14s-24.666 4.66699 -33.999 14s-14 20.666 -14 33.999zM317.001 646
c0 13.333 4.66797 24.833 14.001 34.5s20.666 14.5 33.999 14.5s24.833 -4.83301 34.5 -14.5s14.5 -21.167 14.5 -34.5s-4.83301 -24.666 -14.5 -33.999s-21 -14 -34 -14s-24.333 4.66699 -34 14s-14.5 20.666 -14.5 33.999z" />
    <glyph glyph-name="Abreve" unicode="&#x102;" horiz-adv-x="768" 
d="M389 700l174.999 -0.000976562v-75h-60l198 -550h66v-75h-212v75h59l-45 131h-274l-45 -131h60v-75h-212v75h65l198 549c-104 -1.33301 -177 -13.166 -219 -35.499s-63 -56.5 -63 -102.5c0 -20 4.33301 -36.5 13 -49.5s21.334 -19.5 38.001 -19.5
c31.333 0 47 26.333 47 79h80c0 -43.333 -10 -79.833 -30 -109.5s-52.333 -44.5 -97 -44.5s-77.667 14 -99 42s-32 62 -32 102c0 65.333 31 117.333 93 156s160.667 58 296 58zM432.999 604.999l-115 -334h230zM432.999 749.999c-62 0 -119.671 38.001 -173.004 114.001
l44 30c38 -46 73.333 -72.333 106 -79c6.66699 -1.33301 14.334 -2 23.001 -2s16.334 0.666992 23.001 2s15.334 4.33301 26.001 9c22.667 9.33301 49.334 32.666 80.001 69.999l44 -30c-53.333 -76 -111 -114 -173 -114z" />
    <glyph glyph-name="abreve" unicode="&#x103;" horiz-adv-x="522" 
d="M167 -10c-46 0 -82.001 13.168 -108.001 39.501s-39 61.666 -39 105.999s17.333 81.5 52 111.5s86 45 154 45h109v51c0 61.333 -29.333 92 -88 92c-49.333 0 -94.666 -6 -135.999 -18v-67h-70v119c30 12.667 65.5 22.667 106.5 30s75.167 11 102.5 11
c53.333 0 95 -15.167 125 -45.5s45 -70.833 45 -121.5v-283h82v-42c-24.667 -15.333 -53 -23 -85 -23s-53.667 5.33301 -65 16s-17 28.667 -17 54c-50 -50 -106 -75 -168 -75zM175.999 65.001c57.333 0 110.334 32.332 159.001 96.999v64h-110
c-40.667 0 -70.834 -8 -90.501 -24s-29.5 -36.167 -29.5 -60.5s6 -43.166 18 -56.499s29.667 -20 53 -20zM246 550c-62 0 -119.669 38.001 -173.002 114.001l44 30c38 -46 73.333 -72.333 106 -79c6.66699 -1.33301 14.334 -2 23.001 -2s16.334 0.666992 23.001 2
s15.667 4.33301 27 9c22 9.33301 48.333 32.666 79 69.999l44 -30c-53.333 -76 -111 -114 -173 -114z" />
    <glyph glyph-name="Cacute" unicode="&#x106;" horiz-adv-x="611" 
d="M550 423c-21.333 -28 -54.335 -42 -99.002 -42s-77 14.833 -97 44.5s-30 66.167 -30 109.5h80c0 -52.667 15.667 -79 47 -79c16.667 0 29.334 6.5 38.001 19.5s13 29.5 13 49.5c0 32 -14.667 57.5 -44 76.5s-63.666 28.5 -102.999 28.5c-69.333 0 -125 -26.5 -167 -79.5
s-63 -119.833 -63 -200.5s21 -147.5 63 -200.5s97.5 -79.5 166.5 -79.5s130.833 28.667 185.5 86l61 -50c-59.333 -77.333 -140 -116 -242 -116s-181.5 33.167 -238.5 99.5s-85.5 152.5 -85.5 258.5s28.667 192.833 86 260.5s135.333 101.5 234 101.5
c60.667 0 113.667 -17.167 159 -51.5s68 -78.833 68 -133.5c0 -40 -10.667 -74 -32 -102zM478.998 921l-124 -161l-44 26l97 182z" />
    <glyph glyph-name="cacute" unicode="&#x107;" horiz-adv-x="465" 
d="M95.5 436.5c40.333 49 94.166 73.5 161.499 73.5s123.666 -13.667 168.999 -41v-119h-70v67c-28.667 12 -59 18 -91 18c-46 0 -81.667 -17.333 -107 -52s-38 -79 -38 -133s12.667 -98.333 38 -133s61 -52 107 -52c48.667 0 87 8.33301 115 25
c9.33301 5.33301 20.333 13 33 23l37 -56c-47.333 -44.667 -108.166 -67 -182.499 -67s-131.666 24.5 -171.999 73.5s-60.5 111.167 -60.5 186.5s20.167 137.5 60.5 186.5zM389 721l-124 -161l-44 26l97 182z" />
    <glyph glyph-name="ccircumflex" unicode="&#x109;" horiz-adv-x="465" 
d="M95.5 436.5c40.333 49 94.166 73.5 161.499 73.5s123.666 -13.667 168.999 -41v-119h-70v67c-28.667 12 -59 18 -91 18c-46 0 -81.667 -17.333 -107 -52s-38 -79 -38 -133s12.667 -98.333 38 -133s61 -52 107 -52c26 0 49.333 2.83301 70 8.5s35.5 11.167 44.5 16.5
s20.167 13 33.5 23l37 -56c-47.333 -44.667 -108.166 -67 -182.499 -67s-131.666 24.5 -171.999 73.5s-60.5 111.167 -60.5 186.5s20.167 137.5 60.5 186.5zM292 735l136 -152l-39 -33l-124 114l-124 -114l-39 33l136 152h54z" />
    <glyph glyph-name="Ccaron" unicode="&#x10c;" horiz-adv-x="611" 
d="M550 423c-21.333 -28 -54.335 -42 -99.002 -42s-77 14.833 -97 44.5s-30 66.167 -30 109.5h80c0 -52.667 15.667 -79 47 -79c16.667 0 29.334 6.5 38.001 19.5s13 29.5 13 49.5c0 32 -14.667 57.5 -44 76.5s-63.666 28.5 -102.999 28.5c-69.333 0 -125 -26.5 -167 -79.5
s-63 -119.833 -63 -200.5s21 -147.5 63 -200.5s97.5 -79.5 166.5 -79.5s130.833 28.667 185.5 86l61 -50c-59.333 -77.333 -140 -116 -242 -116s-181.5 33.167 -238.5 99.5s-85.5 152.5 -85.5 258.5s28.667 192.833 86 260.5s135.333 101.5 234 101.5
c60.667 0 113.667 -17.167 159 -51.5s68 -78.833 68 -133.5c0 -40 -10.667 -74 -32 -102zM517.998 902l-136 -152h-54l-136 152l39 33l124 -114l124 114z" />
    <glyph glyph-name="ccaron" unicode="&#x10d;" horiz-adv-x="465" 
d="M95.5 436.5c40.333 49 94.166 73.5 161.499 73.5s123.666 -13.667 168.999 -41v-119h-70v67c-28.667 12 -59 18 -91 18c-46 0 -81.667 -17.333 -107 -52s-38 -79 -38 -133s12.667 -98.333 38 -133s61 -52 107 -52c26 0 49.333 2.83301 70 8.5s35.5 11.167 44.5 16.5
s20.167 13 33.5 23l37 -56c-47.333 -44.667 -108.166 -67 -182.499 -67s-131.666 24.5 -171.999 73.5s-60.5 111.167 -60.5 186.5s20.167 137.5 60.5 186.5zM428 702l-136 -152h-54l-136 152l39 33l124 -114l124 114z" />
    <glyph glyph-name="Dcaron" unicode="&#x10e;" horiz-adv-x="847" 
d="M304 0l-88 -0.000976562v75h88v547c-81.333 -6 -139 -20.333 -173 -43s-51 -53.667 -51 -93c0 -20 4.33301 -36.5 13 -49.5s21.334 -19.5 38.001 -19.5c31.333 0 47 26.333 47 79h80c0 -43.333 -10 -79.833 -30 -109.5s-52.333 -44.5 -97 -44.5s-77.667 14 -99 42
s-32 62 -32 102c0 65.333 31 117.333 93 156s161.167 58 297.5 58s240.666 -34.167 312.999 -102.5s108.5 -160.833 108.5 -277.5c0 -73.333 -13.333 -135.666 -40 -186.999c-50 -95.333 -137.667 -143 -263 -143zM509 64.999c40 0 74.6689 7.5 104.002 22.5
s51.666 35.167 66.999 60.5c28 48.667 42 106 42 172c0 96.667 -28.333 171.667 -85 225s-139.334 80 -248.001 80v-554c61.333 -4 101.333 -6 120 -6zM553.002 901.999l-136 -152h-54l-136 152l39 33l124 -114l124 114z" />
    <glyph glyph-name="ebreve" unicode="&#x115;" horiz-adv-x="503" 
d="M473 284l0.000976562 -53h-353c3.33301 -48.667 17.666 -88.5 42.999 -119.5s59.333 -46.5 102 -46.5c28 0 53.167 3 75.5 9s37.833 11.5 46.5 16.5s20.667 12.5 36 22.5l37 -56c-50.667 -44.667 -114 -67 -190 -67s-134.167 24.5 -174.5 73.5s-60.5 111.167 -60.5 186.5
s20.167 137.5 60.5 186.5s95.333 73.5 165 73.5s122.5 -21 158.5 -63s54 -96.333 54 -163zM351.501 399c-20.333 24 -49.333 36 -87 36s-68.5 -12.167 -92.5 -36.5s-40 -56.5 -48 -96.5h264c-4 40.667 -16.167 73 -36.5 97zM270.001 550
c-62 0 -119.669 38.001 -173.002 114.001l44 30c38 -46 73.333 -72.333 106 -79c6.66699 -1.33301 14.334 -2 23.001 -2s16.334 0.666992 23.001 2s15.667 4.33301 27 9c22 9.33301 48.333 32.666 79 69.999l44 -30c-53.333 -76 -111 -114 -173 -114z" />
    <glyph glyph-name="Ecaron" unicode="&#x11a;" horiz-adv-x="780" 
d="M389 311l-0.000976562 -236h289v115h70v-190h-541v75h97v548c-82 -5.33301 -139.833 -19 -173.5 -41s-50.5 -54 -50.5 -96c0 -20 4.33301 -36.5 13 -49.5s21.334 -19.5 38.001 -19.5c31.333 0 47 26.333 47 79h80c0 -43.333 -10 -79.833 -30 -109.5
s-52.333 -44.5 -97 -44.5s-77.667 14 -99 42s-32 62 -32 102c0 65.333 31 117.333 93 156s160.667 58 296 58h350v-190h-70v115h-280v-239h138v60h70v-195h-70v60h-138zM612.999 902l-136 -152h-54l-136 152l39 33l124 -114l124 114z" />
    <glyph glyph-name="ecaron" unicode="&#x11b;" horiz-adv-x="503" 
d="M473 284l0.000976562 -53h-353c3.33301 -48.667 17.666 -88.5 42.999 -119.5s59.333 -46.5 102 -46.5c28 0 53.167 3 75.5 9s37.833 11.5 46.5 16.5s20.667 12.5 36 22.5l37 -56c-50.667 -44.667 -114 -67 -190 -67s-134.167 24.5 -174.5 73.5s-60.5 111.167 -60.5 186.5
s20.167 137.5 60.5 186.5s95.333 73.5 165 73.5s122.5 -21 158.5 -63s54 -96.333 54 -163zM351.501 399c-20.333 24 -49.333 36 -87 36s-68.5 -12.167 -92.5 -36.5s-40 -56.5 -48 -96.5h264c-4 40.667 -16.167 73 -36.5 97zM433.001 702l-136 -152h-54l-136 152l39 33
l124 -114l124 114z" />
    <glyph glyph-name="hbar" unicode="&#x127;" horiz-adv-x="610" 
d="M20 556v63.999h77v65h-77v65h162v-130h143v-64h-143v-105c68.667 39.333 131 59 187 59s94.833 -17 116.5 -51s32.5 -81 32.5 -141v-258h82v-42c-24.667 -15.333 -53.167 -23 -85.5 -23s-54 5.5 -65 16.5s-16.5 28.833 -16.5 53.5v253c0 38.667 -5 67.834 -15 87.501
s-33 29.5 -69 29.5s-91.667 -20 -167 -60v-310h87v-65h-249v65h77v491h-77z" />
    <glyph glyph-name="Itilde" unicode="&#x128;" 
d="M389 625l-0.000976562 -550h97v-75h-270v75h88v548c-82 -5.33301 -139.833 -19 -173.5 -41s-50.5 -54 -50.5 -96c0 -20 4.33301 -36.5 13 -49.5s21.334 -19.5 38.001 -19.5c31.333 0 47 26.333 47 79h80c0 -43.333 -10 -79.833 -30 -109.5s-52.333 -44.5 -97 -44.5
s-77.667 14 -99 42s-32 62 -32 102c0 65.333 31 117.333 93 156s160.667 58 296 58h97v-75h-97zM311.999 885c20 0 43.5 -5.83301 70.5 -17.5s44.833 -18.834 53.5 -21.501l58 39l32 -24c-19.333 -52.667 -49.666 -79 -90.999 -79c-20 0 -43.5 5.83301 -70.5 17.5
s-44.833 18.834 -53.5 21.501l-58 -39l-32 24c19.333 52.667 49.666 79 90.999 79z" />
    <glyph glyph-name="itilde" unicode="&#x129;" horiz-adv-x="315" 
d="M41 435v65h162v-435h87v-65h-250v65h78v370h-77zM77 685c20 0 43.5 -5.83301 70.5 -17.5s44.833 -18.834 53.5 -21.501l58 39l32 -24c-19.333 -52.667 -49.666 -79 -90.999 -79c-20 0 -43.5 5.83301 -70.5 17.5s-44.833 18.834 -53.5 21.501l-58 -39l-32 24
c19.333 52.667 49.666 79 90.999 79z" />
    <glyph glyph-name="dotlessi" unicode="&#x131;" horiz-adv-x="315" 
d="M41 435v65h162v-435h87v-65h-250v65h78v370h-77z" />
    <glyph glyph-name="IJ" unicode="&#x132;" horiz-adv-x="851" 
d="M542 625v75h299v-75h-107v-525c0 -80.667 -19.333 -144.167 -58 -190.5s-95.667 -69.5 -171 -69.5v70c46 0 81.5 16.667 106.5 50s37.5 80 37.5 140v525h-107zM389 625l-0.000976562 -550h97v-75h-270v75h88v548c-82 -5.33301 -139.833 -19 -173.5 -41
s-50.5 -54 -50.5 -96c0 -20 4.33301 -36.5 13 -49.5s21.334 -19.5 38.001 -19.5c31.333 0 47 26.333 47 79h80c0 -43.333 -10 -79.833 -30 -109.5s-52.333 -44.5 -97 -44.5s-77.667 14 -99 42s-32 62 -32 102c0 65.333 31 117.333 93 156s160.667 58 296 58h97v-75h-97z" />
    <glyph glyph-name="ij" unicode="&#x133;" horiz-adv-x="554" 
d="M41 435v65h162v-435h87v-65h-250v65h78v370h-77zM122 605c-9.33301 10.667 -14 23.5 -14 38.5s5.16699 28.167 15.5 39.5s22.833 17 37.5 17s26.667 -5.33301 36 -16s14 -23.5 14 -38.5s-5.16699 -28.167 -15.5 -39.5s-22.833 -17 -37.5 -17s-26.667 5.33301 -36 16z
M322 434v65h162v-474c0 -75.333 -17.833 -135.833 -53.5 -181.5s-91.5 -68.5 -167.5 -68.5v74c46.667 0 81 14.5 103 43.5s33 73.167 33 132.5v409h-77zM398 605c-9.33301 10.667 -14 23.5 -14 38.5s5.16699 28.167 15.5 39.5s22.833 17 37.5 17s26.667 -5.33301 36 -16
s14 -23.5 14 -38.5s-5.16699 -28.167 -15.5 -39.5s-22.833 -17 -37.5 -17s-26.667 5.33301 -36 16z" />
    <glyph glyph-name="Jcircumflex" unicode="&#x134;" horiz-adv-x="473" 
d="M389 700h106.999v-75h-107v-525c0 -80.667 -19.333 -144.167 -58 -190.5s-95.667 -69.5 -171 -69.5v70c46 0 81.5 16.667 106.5 50s37.5 80 37.5 140v523c-82 -5.33301 -139.833 -19 -173.5 -41s-50.5 -54 -50.5 -96c0 -20 4.33301 -36.5 13 -49.5
s21.334 -19.5 38.001 -19.5c31.333 0 47 26.333 47 79h80c0 -43.333 -10 -79.833 -30 -109.5s-52.333 -44.5 -97 -44.5s-77.667 14 -99 42s-32 62 -32 102c0 65.333 31 117.333 93 156s160.667 58 296 58zM365.999 930l136 -152l-39 -33l-124 114l-124 -114l-39 33l136 152
h54z" />
    <glyph glyph-name="jcircumflex" unicode="&#x135;" horiz-adv-x="288" 
d="M56 435v65h162v-475c0 -75.333 -17.833 -135.833 -53.5 -181.5s-91.5 -68.5 -167.5 -68.5v74c46.667 0 81 14.5 103 43.5s33 73.167 33 132.5v410h-77zM171 729l136 -152l-39 -33l-124 114l-124 -114l-39 33l136 152h54z" />
    <glyph glyph-name="kcommaaccent" unicode="&#x137;" horiz-adv-x="536" 
d="M222.5 -132c-7.66699 12 -11.501 25 -11.501 39s5.66699 26.167 17 36.5s25.333 15.5 42 15.5s30.834 -5.66699 42.501 -17s17.5 -27.5 17.5 -48.5s-5 -45.833 -15 -74.5s-23.333 -55.667 -40 -81l-39 17c16.667 32 25 62 25 90c-18 3.33301 -30.833 11 -38.5 23z
M171.999 65h77v-65h-239v65h77v620h-77v65h162v-469l61 22l118 132h-37v65h188v-65h-43l-158 -172l159 -203h76v-42c-14.667 -8.66699 -27.667 -14.667 -39 -18s-29.333 -5 -54 -5s-46.667 12.667 -66 38l-144 189l-61 -22v-135z" />
    <glyph glyph-name="kgreenlandic" unicode="&#x138;" horiz-adv-x="536" 
d="M172 65h77v-65h-239v65h77v370h-77v65h162v-219l61 22l118 132h-37v65h188v-65h-43l-158 -172l159 -203h76v-42c-14.667 -8.66699 -27.667 -14.667 -39 -18s-29.333 -5 -54 -5s-46.667 12.667 -66 38l-144 189l-61 -22v-135zM222.5 -132
c-7.66699 12 -11.501 25 -11.501 39s5.66699 26.167 17 36.5s25.333 15.5 42 15.5s30.834 -5.66699 42.501 -17s17.5 -27.5 17.5 -48.5s-5 -45.833 -15 -74.5s-23.333 -55.667 -40 -81l-39 17c16.667 32 25 62 25 90c-18 3.33301 -30.833 11 -38.5 23z" />
    <glyph glyph-name="Lacute" unicode="&#x139;" horiz-adv-x="764" 
d="M389 625l-0.000976562 -550h279v115h70v-190h-531v75h97v548c-82 -5.33301 -139.833 -19 -173.5 -41s-50.5 -54 -50.5 -96c0 -20 4.33301 -36.5 13 -49.5s21.334 -19.5 38.001 -19.5c31.333 0 47 26.333 47 79h80c0 -43.333 -10 -79.833 -30 -109.5
s-52.333 -44.5 -97 -44.5s-77.667 14 -99 42s-32 62 -32 102c0 62.667 28 114 84 154s144 60 264 60h128v-75h-87zM473.999 921l-124 -161l-44 26l97 182z" />
    <glyph glyph-name="lacute" unicode="&#x13a;" horiz-adv-x="295" 
d="M21 685v65h162v-685h87v-65h-250v65h78v620h-77zM269 953l-124 -161l-44 26l97 182z" />
    <glyph glyph-name="Ldotaccent" unicode="&#x13f;" horiz-adv-x="764" 
d="M389 625l-0.000976562 -550h279v115h70v-190h-531v75h97v548c-82 -5.33301 -139.833 -19 -173.5 -41s-50.5 -54 -50.5 -96c0 -20 4.33301 -36.5 13 -49.5s21.334 -19.5 38.001 -19.5c31.333 0 47 26.333 47 79h80c0 -43.333 -10 -79.833 -30 -109.5
s-52.333 -44.5 -97 -44.5s-77.667 14 -99 42s-32 62 -32 102c-0 64 30.333 115.667 91 155s160 59 298 59h87v-75h-87zM505.999 330c-11.333 11.333 -17 25.166 -17 41.499s5.66699 30.166 17 41.499s25.166 17 41.499 17s30.166 -5.66699 41.499 -17s17 -25.166 17 -41.499
s-5.66699 -30.166 -17 -41.499s-25.166 -17 -41.499 -17s-30.166 5.66699 -41.499 17z" />
    <glyph glyph-name="ldot" unicode="&#x140;" horiz-adv-x="359" 
d="M21 685v65h162v-685h87v-65h-250v65h78v620h-77zM262 340c-11.333 11.333 -17 25.166 -17 41.499s5.66699 30.166 17 41.499s25.166 17 41.499 17s30.166 -5.66699 41.499 -17s17 -25.166 17 -41.499s-5.66699 -30.166 -17 -41.499s-25.166 -17 -41.499 -17
s-30.166 5.66699 -41.499 17z" />
    <glyph glyph-name="Lslash" unicode="&#x141;" horiz-adv-x="764" 
d="M389 625l-0.000976562 -247l129 39l21 -60l-150 -45v-237h279v115h70v-190h-531v75h97v212l-103 -30l-21 60l124 36v270c-82 -5.33301 -139.833 -19 -173.5 -41s-50.5 -54 -50.5 -96c0 -20 4.33301 -36.5 13 -49.5s21.334 -19.5 38.001 -19.5c31.333 0 47 26.333 47 79
h80c0 -43.333 -10 -79.833 -30 -109.5s-52.333 -44.5 -97 -44.5s-77.667 14 -99 42s-32 62 -32 102c0 62.667 28 114 84 154s144 60 264 60h128v-75h-87z" />
    <glyph glyph-name="lslash" unicode="&#x142;" horiz-adv-x="295" 
d="M21 685v65h162v-339l66 19l21 -60l-87 -26v-279h87v-65h-250v65h78v255l-58 -17l-21 60l79 23v299h-77z" />
    <glyph glyph-name="Nacute" unicode="&#x143;" horiz-adv-x="933" 
d="M664 921l-124 -161l-44 26l97 182zM257 710c52.667 0 94.332 -9.33301 124.999 -28s60.667 -51.667 90 -99l269 -433v475h-87v75h269v-75h-97v-625h-85l-353 564v-489h87v-75h-269v75h97v554c-18 4 -36 6 -54 6c-48 0 -88.167 -12.667 -120.5 -38s-48.5 -59 -48.5 -101
c0 -20 4.33301 -36.5 13 -49.5s21.334 -19.5 38.001 -19.5c31.333 0 47 26.333 47 79h80c0 -43.333 -10 -79.833 -30 -109.5s-52.333 -44.5 -97 -44.5s-77.667 14 -99 42s-32 62 -32 102c0 63.333 22.5 114.833 67.5 154.5s108.167 59.5 189.5 59.5z" />
    <glyph glyph-name="nacute" unicode="&#x144;" horiz-adv-x="610" 
d="M182 65l87 -0.000976562v-65h-249v65h77v370h-77v65h143l12 -53c22.667 12.667 41 22.5 55 29.5s34.167 14.333 60.5 22s51.833 11.5 76.5 11.5c57.333 0 96.833 -17 118.5 -51s32.5 -81 32.5 -141v-258h82v-42c-24.667 -15.333 -53.167 -23 -85.5 -23s-54 5.5 -65 16.5
s-16.5 28.833 -16.5 53.5v253c0 38.667 -5 67.834 -15 87.501s-33 29.5 -69 29.5s-91.667 -20 -167 -60v-310zM424 720.999l-124 -161l-44 26l97 182z" />
    <glyph glyph-name="Ncaron" unicode="&#x147;" horiz-adv-x="933" 
d="M703 902l-136 -152h-54l-136 152l39 33l124 -114l124 114zM257 710c52.667 0 94.332 -9.33301 124.999 -28s60.667 -51.667 90 -99l269 -433v475h-87v75h269v-75h-97v-625h-85l-353 564v-489h87v-75h-269v75h97v554c-18 4 -36 6 -54 6c-48 0 -88.167 -12.667 -120.5 -38
s-48.5 -59 -48.5 -101c0 -20 4.33301 -36.5 13 -49.5s21.334 -19.5 38.001 -19.5c31.333 0 47 26.333 47 79h80c0 -43.333 -10 -79.833 -30 -109.5s-52.333 -44.5 -97 -44.5s-77.667 14 -99 42s-32 62 -32 102c0 63.333 22.5 114.833 67.5 154.5s108.167 59.5 189.5 59.5z
" />
    <glyph glyph-name="ncaron" unicode="&#x148;" horiz-adv-x="610" 
d="M182 65l87 -0.000976562v-65h-249v65h77v370h-77v65h143l12 -53c22.667 12.667 41 22.5 55 29.5s34.167 14.333 60.5 22s51.833 11.5 76.5 11.5c57.333 0 96.833 -17 118.5 -51s32.5 -81 32.5 -141v-258h82v-42c-24.667 -15.333 -53.167 -23 -85.5 -23s-54 5.5 -65 16.5
s-16.5 28.833 -16.5 53.5v253c0 38.667 -5 67.834 -15 87.501s-33 29.5 -69 29.5s-91.667 -20 -167 -60v-310zM463 701.999l-136 -152h-54l-136 152l39 33l124 -114l124 114z" />
    <glyph glyph-name="obreve" unicode="&#x14f;" 
d="M35 250c0 75.333 21 137.5 63 186.5s101 73.5 177 73.5s135 -24.5 177 -73.5s63 -111.167 63 -186.5s-21 -137.5 -63 -186.5s-101 -73.5 -177 -73.5s-135 24.5 -177 73.5s-63 111.167 -63 186.5zM120 250c0 -54 13.667 -98.333 41 -133s65.333 -52 114 -52
s86.667 17.333 114 52s41 79 41 133s-13.667 98.333 -41 133s-65.333 52 -114 52s-86.667 -17.333 -114 -52s-41 -79 -41 -133zM275 550c-62 0 -119.671 38.001 -173.004 114.001l44 30c38 -46 73.333 -72.333 106 -79c6.66699 -1.33301 14.334 -2 23.001 -2
s16.334 0.666992 23.001 2s15.334 4.33301 26.001 9c22.667 9.33301 49.334 32.666 80.001 69.999l44 -30c-53.333 -76 -111 -114 -173 -114z" />
    <glyph glyph-name="OE" unicode="&#x152;" horiz-adv-x="1066" 
d="M675 311l-0.00292969 -236.003h289v115h70v-190h-444v92c-58.667 -68 -137.167 -102 -235.5 -102s-176.166 33.833 -233.499 101.5s-86 154.5 -86 260.5c0 48.667 6.33301 91 19 127s29.334 63.333 50.001 82c40 36 84.5 54 133.5 54s92.167 -17.167 129.5 -51.5
s56 -78.833 56 -133.5c0 -40 -10.667 -74 -32 -102s-54.333 -42 -99 -42s-77 14.833 -97 44.5s-30 66.167 -30 109.5h80c0 -52.667 15.667 -79 47 -79c16.667 0 29.334 6.5 38.001 19.5s13 29.5 13 49.5c0 32 -10.667 58.333 -32 79s-46.666 31 -75.999 31
s-55 -14.167 -77 -42.5s-33 -80.666 -33 -156.999s21 -141.333 63 -195s97.667 -80.5 167 -80.5s125.166 26.833 167.499 80.5s63.5 121.834 63.5 204.501s-21.167 150.834 -63.5 204.501s-98.166 80.5 -167.499 80.5v75c97.333 0 175.666 -34.333 234.999 -103v93h435v-190
h-70v115h-280v-239h138v60h70v-195h-70v60h-138z" />
    <glyph glyph-name="oe" unicode="&#x153;" horiz-adv-x="898" 
d="M868 284l0.000976562 -53h-353c3.33301 -48.667 17.666 -88.5 42.999 -119.5s59.333 -46.5 102 -46.5c28 0 53.167 3 75.5 9s37.833 11.5 46.5 16.5s20.667 12.5 36 22.5l37 -56c-50.667 -44.667 -117 -67 -199 -67s-143.667 33.333 -185 100
c-42.667 -66.667 -108 -100 -196 -100c-76 0 -135 24.5 -177 73.5s-63 111.167 -63 186.5s21 137.5 63 186.5s101 73.5 177 73.5c88 0 153.333 -33.333 196 -100c41.333 66.667 104.333 100 189 100c66.667 0 118 -21 154 -63s54 -96.333 54 -163zM120.001 250
c0 -54 13.668 -98.332 41.001 -132.999s65 -52 113 -52s85.667 16.667 113 50s41.666 75.666 42.999 126.999v8c0 54 -13.667 98.333 -41 133s-65.333 52 -114 52s-86.667 -17.333 -114 -52s-41 -79 -41 -133zM660.002 435.001c-37.333 0 -68.168 -12.167 -92.501 -36.5
s-40.5 -56.5 -48.5 -96.5h264c-4 40.667 -16.167 73 -36.5 97s-49.166 36 -86.499 36z" />
    <glyph glyph-name="Racute" unicode="&#x154;" horiz-adv-x="842" 
d="M836 140c0 -51.333 -13 -89.3311 -39 -113.998s-57.667 -37 -95 -37c-62 0 -111.333 21.833 -148 65.5s-70.334 119.167 -101.001 226.5c-18.667 3.33301 -40 9.66602 -64 18.999v-225h87v-75h-269v75h97v557c-81.333 -6 -139 -20.333 -173 -43s-51 -53.667 -51 -93
c0 -20 4.33301 -36.5 13 -49.5s21.334 -19.5 38.001 -19.5c31.333 0 47 26.333 47 79h80c0 -43.333 -10 -79.833 -30 -109.5s-52.333 -44.5 -97 -44.5s-77.667 14 -99 42s-32 62 -32 102c0 65.333 31 117.333 93 156s156.667 58 284 58s220 -20.333 278 -61
s87 -93.5 87 -158.5s-19 -115.833 -57 -152.5s-87 -57 -147 -61c22 -76.667 45.333 -131.334 70 -164.001s52.667 -49 84 -49c20 0 36.5 6.83301 49.5 20.5s19.5 32.167 19.5 55.5h75zM389 635.002v-261c31.333 -14.667 74.333 -22 129 -22c38 0 70.667 12.5 98 37.5
s41 57.167 41 96.5c0 48 -20.667 84.833 -62 110.5s-110 38.5 -206 38.5zM504 921.002l-124 -161l-44 26l97 182z" />
    <glyph glyph-name="racute" unicode="&#x155;" horiz-adv-x="421" 
d="M182 65h87v-65h-249v65h77v370h-77v65h143l12 -53c22.667 12.667 41 22.5 55 29.5s34.167 14.333 60.5 22s51.833 11.5 76.5 11.5l56 -15l-23 -82l-45 12c-56 0 -113.667 -14 -173 -42v-318zM313 711l-124 -161l-44 26l97 182z" />
    <glyph glyph-name="Rcommaaccent" unicode="&#x156;" horiz-adv-x="842" 
d="M761 140l75 0.00195312c0 -51.333 -13 -89.333 -39 -114s-57.667 -37 -95 -37c-62 0 -111.333 21.833 -148 65.5s-70.334 119.167 -101.001 226.5c-18.667 3.33301 -40 9.66602 -64 18.999v-225h87v-75h-269v75h97v557c-81.333 -6 -139 -20.333 -173 -43
s-51 -53.667 -51 -93c0 -20 4.33301 -36.5 13 -49.5s21.334 -19.5 38.001 -19.5c31.333 0 47 26.333 47 79h80c0 -43.333 -10 -79.833 -30 -109.5s-52.333 -44.5 -97 -44.5s-77.667 14 -99 42s-32 62 -32 102c0 65.333 31 117.333 93 156s156.667 58 284 58
s220 -20.333 278 -61s87 -93.5 87 -158.5s-19 -115.833 -57 -152.5s-87 -57 -147 -61c22 -76.667 45.333 -131.334 70 -164.001s52.667 -49 84 -49c20 0 36.5 6.83301 49.5 20.5s19.5 32.167 19.5 55.5zM389 635.002v-261c31.333 -14.667 74.333 -22 129 -22
c38 0 70.667 12.5 98 37.5s41 57.167 41 96.5c0 48 -20.667 84.833 -62 110.5s-110 38.5 -206 38.5z" />
    <glyph glyph-name="rcommaaccent" unicode="&#x157;" horiz-adv-x="421" 
d="M182 65h87v-65h-249v65h77v370h-77v65h143l12 -53c22.667 12.667 41 22.5 55 29.5s34.167 14.333 60.5 22s51.833 11.5 76.5 11.5l56 -15l-23 -82l-45 12c-56 0 -113.667 -14 -173 -42v-318z" />
    <glyph glyph-name="Rcaron" unicode="&#x158;" horiz-adv-x="842" 
d="M836 140c0 -51.333 -13 -89.3311 -39 -113.998s-57.667 -37 -95 -37c-62 0 -111.333 21.833 -148 65.5s-70.334 119.167 -101.001 226.5c-18.667 3.33301 -40 9.66602 -64 18.999v-225h87v-75h-269v75h97v557c-81.333 -6 -139 -20.333 -173 -43s-51 -53.667 -51 -93
c0 -20 4.33301 -36.5 13 -49.5s21.334 -19.5 38.001 -19.5c31.333 0 47 26.333 47 79h80c0 -43.333 -10 -79.833 -30 -109.5s-52.333 -44.5 -97 -44.5s-77.667 14 -99 42s-32 62 -32 102c0 65.333 31 117.333 93 156s156.667 58 284 58s220 -20.333 278 -61
s87 -93.5 87 -158.5s-19 -115.833 -57 -152.5s-87 -57 -147 -61c22 -76.667 45.333 -131.334 70 -164.001s52.667 -49 84 -49c20 0 36.5 6.83301 49.5 20.5s19.5 32.167 19.5 55.5h75zM389 635.002v-261c31.333 -14.667 74.333 -22 129 -22c38 0 70.667 12.5 98 37.5
s41 57.167 41 96.5c0 48 -20.667 84.833 -62 110.5s-110 38.5 -206 38.5zM543 902.002l-136 -152h-54l-136 152l39 33l124 -114l124 114z" />
    <glyph glyph-name="rcaron" unicode="&#x159;" horiz-adv-x="421" 
d="M182 65h87v-65h-249v65h77v370h-77v65h143l12 -53c22.667 12.667 41 22.5 55 29.5s34.167 14.333 60.5 22s51.833 11.5 76.5 11.5l56 -15l-23 -82l-45 12c-56 0 -113.667 -14 -173 -42v-318zM374 702l-136 -152h-54l-136 152l39 33l124 -114l124 114z" />
    <glyph glyph-name="Sacute" unicode="&#x15a;" horiz-adv-x="535" 
d="M404 921l-124 -161l-44 26l97 182zM433.5 671.5c41.667 -30.333 62.5 -68.002 62.5 -113.002s-9.83301 -81.333 -29.5 -109s-51 -41.5 -94 -41.5s-74.5 14 -94.5 42s-30 62 -30 102h80c0 -46 15 -69 45 -69c28.667 0 43 23 43 69c0 28 -12.833 50 -38.5 66
s-59 24 -100 24s-76 -9.66699 -105 -29s-43.5 -45.5 -43.5 -78.5s16.333 -61.833 49 -86.5c16.667 -13.333 32.667 -24.333 48 -33s35.333 -19.167 60 -31.5s40 -20.166 46 -23.499s19 -10.166 39 -20.499s33.167 -18 39.5 -23l31 -23.5
c14.333 -10.667 24.166 -20 29.499 -28l23 -36c10 -16 15 -39.333 15 -70c0 -56 -23.167 -97.833 -69.5 -125.5s-110.5 -41.5 -192.5 -41.5s-152.333 17 -211 51v135h70v-81c44.667 -20 93.167 -30 145.5 -30s94 9.33301 125 28s46.5 42.667 46.5 72
c0 14 -3.66699 27 -11 39c-14 23.333 -63.667 56.333 -149 99c-80.667 40 -137.167 75 -169.5 105s-48.5 69 -48.5 117c0 58.667 22 105 66 139s98.333 51 163 51s117.834 -15.167 159.501 -45.5z" />
    <glyph glyph-name="sacute" unicode="&#x15b;" horiz-adv-x="439" 
d="M110 144v-63.002c25.333 -10 56.166 -15 92.499 -15s64 5.83301 83 17.5s28.5 26.167 28.5 43.5s-7.33301 31.666 -22 42.999s-48.667 31.166 -102 59.499s-90.666 52.333 -111.999 72s-32 45.5 -32 77.5c0 41.333 16.167 73.5 48.5 96.5s76.5 34.5 132.5 34.5
s109 -13.667 159 -41v-119h-70v67c-29.333 12 -60.5 18 -93.5 18s-56.5 -6.16699 -70.5 -18.5s-21 -25.666 -21 -39.999s4.16699 -25.166 12.5 -32.499s42.333 -27.666 102 -60.999s100.167 -59.666 121.5 -78.999s32 -44.333 32 -75c0 -42 -17.667 -75.5 -53 -100.5
s-84.5 -37.5 -147.5 -37.5s-115.833 12.667 -158.5 38v115h70zM344 720.998l-124 -161l-44 26l97 182z" />
    <glyph glyph-name="scircumflex" unicode="&#x15d;" horiz-adv-x="439" 
d="M40 144l70 0.00292969v-63c25.333 -10 56.166 -15 92.499 -15s64 5.83301 83 17.5s28.5 26.167 28.5 43.5s-7.33301 31.666 -22 42.999s-48.667 31.166 -102 59.499s-90.666 52.333 -111.999 72s-32 45.5 -32 77.5c0 41.333 16.167 73.5 48.5 96.5s76.5 34.5 132.5 34.5
s109 -13.667 159 -41v-119h-70v67c-29.333 12 -60.5 18 -93.5 18s-56.5 -6.16699 -70.5 -18.5s-21 -25.833 -21 -40.5s5.33301 -26.334 16 -35.001c18 -14.667 50.333 -33.667 97 -57c60.667 -34 101.667 -60.667 123 -80s32 -44.333 32 -75c0 -42 -17.667 -75.5 -53 -100.5
s-84.5 -37.5 -147.5 -37.5s-115.833 12.667 -158.5 38v115zM247 735.003l136 -152l-39 -33l-124 114l-124 -114l-39 33l136 152h54z" />
    <glyph glyph-name="Scaron" unicode="&#x160;" horiz-adv-x="535" 
d="M443 902l-136 -152h-54l-136 152l39 33l124 -114l124 114zM433.5 671.5c41.667 -30.333 62.5 -68.002 62.5 -113.002s-9.83301 -81.333 -29.5 -109s-51 -41.5 -94 -41.5s-74.5 14 -94.5 42s-30 62 -30 102h80c0 -46 15 -69 45 -69c28.667 0 43 23 43 69
c0 28 -12.833 50 -38.5 66s-59 24 -100 24s-76 -9.66699 -105 -29s-43.5 -45.5 -43.5 -78.5s16.333 -61.833 49 -86.5c16.667 -13.333 32.667 -24.333 48 -33s35.333 -19.167 60 -31.5s40 -20.166 46 -23.499s19 -10.166 39 -20.499s33.167 -18 39.5 -23l31 -23.5
c14.333 -10.667 24.166 -20 29.499 -28l23 -36c10 -16 15 -39.333 15 -70c0 -56 -23.167 -97.833 -69.5 -125.5s-110.5 -41.5 -192.5 -41.5s-152.333 17 -211 51v135h70v-81c44.667 -20 93.167 -30 145.5 -30s94 9.33301 125 28s46.5 42.667 46.5 72
c0 14 -3.66699 27 -11 39c-14 23.333 -63.667 56.333 -149 99c-80.667 40 -137.167 75 -169.5 105s-48.5 69 -48.5 117c0 58.667 22 105 66 139s98.333 51 163 51s117.834 -15.167 159.501 -45.5z" />
    <glyph glyph-name="scaron" unicode="&#x161;" horiz-adv-x="439" 
d="M110 144v-63.002c25.333 -10 56.166 -15 92.499 -15s64 5.83301 83 17.5s28.5 26.167 28.5 43.5s-7.33301 31.666 -22 42.999s-48.667 31.166 -102 59.499s-90.666 52.333 -111.999 72s-32 45.5 -32 77.5c0 41.333 16.167 73.5 48.5 96.5s76.5 34.5 132.5 34.5
s109 -13.667 159 -41v-119h-70v67c-29.333 12 -60.5 18 -93.5 18s-56.5 -6.16699 -70.5 -18.5s-21 -25.666 -21 -39.999s4.16699 -25.166 12.5 -32.499s42.333 -27.666 102 -60.999s100.167 -59.666 121.5 -78.999s32 -44.333 32 -75c0 -42 -17.667 -75.5 -53 -100.5
s-84.5 -37.5 -147.5 -37.5s-115.833 12.667 -158.5 38v115h70zM383 701.998l-136 -152h-54l-136 152l39 33l124 -114l124 114z" />
    <glyph glyph-name="Tcaron" unicode="&#x164;" horiz-adv-x="705" 
d="M563 902l-136 -152h-54l-136 152l39 33l124 -114l124 114zM388 700h282.999v-162h-74v87h-154v-550h97v-75h-270v75h88v550h-55c-82 -5.33301 -139.833 -19.333 -173.5 -42s-50.5 -55 -50.5 -97c0 -20 4.33301 -36.5 13 -49.5s21.334 -19.5 38.001 -19.5
c31.333 0 47 26.333 47 79h80c0 -43.333 -10 -79.833 -30 -109.5s-52.333 -44.5 -97 -44.5s-77.667 14 -99 42s-32 62 -32 102c0 65.333 31 117.333 93 156s160.667 58 296 58z" />
    <glyph glyph-name="utilde" unicode="&#x169;" horiz-adv-x="600" 
d="M346 435l0.000976562 65.001h162v-440h82v-42c-24.667 -15.333 -57.5 -23 -98.5 -23s-63.5 17.667 -67.5 53c-70 -39.333 -132.833 -59 -188.5 -59s-94.334 17 -116.001 51s-32.5 81 -32.5 141v254h-77v65h162v-319c0 -38.667 5 -67.834 15 -87.501s33 -29.5 69 -29.5
s91.667 20 167 60v311h-77zM230.001 685.001c20 0 43.5 -5.83301 70.5 -17.5s44.833 -18.834 53.5 -21.501l58 39l32 -24c-19.333 -52.667 -49.666 -79 -90.999 -79c-20 0 -43.5 5.83301 -70.5 17.5s-44.833 18.834 -53.5 21.501l-58 -39l-32 24
c19.333 52.667 49.666 79 90.999 79z" />
    <glyph glyph-name="ubreve" unicode="&#x16d;" horiz-adv-x="600" 
d="M346 435l0.000976562 65.001h162v-440h82v-42c-24.667 -15.333 -57.5 -23 -98.5 -23s-63.5 17.667 -67.5 53c-70 -39.333 -132.833 -59 -188.5 -59s-94.334 17 -116.001 51s-32.5 81 -32.5 141v254h-77v65h162v-319c0 -38.667 5 -67.834 15 -87.501s33 -29.5 69 -29.5
s91.667 20 167 60v311h-77zM290.001 550.001c-62 0 -119.669 38.001 -173.002 114.001l44 30c38 -46 73.333 -72.333 106 -79c6.66699 -1.33301 14.334 -2 23.001 -2s16.334 0.666992 23.001 2s15.667 4.33301 27 9c22 9.33301 48.333 32.666 79 69.999l44 -30
c-53.333 -76 -111 -114 -173 -114z" />
    <glyph glyph-name="Uring" unicode="&#x16e;" horiz-adv-x="948" 
d="M440 113c34 -28.667 77.833 -42.999 131.5 -42.999s98 14.5 133 43.5s52.5 64.5 52.5 106.5v405h-87v75h279v-75h-107v-405c0 -65.333 -24.333 -120 -73 -164s-114.334 -66 -197.001 -66s-148 21.833 -196 65.5s-72 98.5 -72 164.5v403
c-82 -5.33301 -139.833 -19 -173.5 -41s-50.5 -54 -50.5 -96c0 -20 4.33301 -36.5 13 -49.5s21.334 -19.5 38.001 -19.5c31.333 0 47 26.333 47 79h80c0 -43.333 -10 -79.833 -30 -109.5s-52.333 -44.5 -97 -44.5s-77.667 14 -99 42s-32 62 -32 102
c0 65.333 31 117.333 93 156s160.667 58 296 58h87v-75h-87v-405c0 -42.667 17 -78.334 51 -107.001zM652.5 780.001c-20.333 -20 -45.667 -30 -76 -30s-56 10.167 -77 30.5s-31.5 44.833 -31.5 73.5s10.667 53.5 32 74.5s47 31.5 77 31.5s55.167 -10.333 75.5 -31
s30.5 -45.667 30.5 -75s-10.167 -54 -30.5 -74zM541.499 819.501c9 -9.66699 20.667 -14.498 35 -14.498s25.666 4.66699 33.999 14s12.5 21.166 12.5 35.499s-4.16699 26.333 -12.5 36s-19.666 14.5 -33.999 14.5s-26 -5 -35 -15s-13.5 -21.833 -13.5 -35.5
s4.5 -25.334 13.5 -35.001z" />
    <glyph glyph-name="uring" unicode="&#x16f;" horiz-adv-x="600" 
d="M346 435l0.000976562 65.001h162v-440h82v-42c-24.667 -15.333 -57.5 -23 -98.5 -23s-63.5 17.667 -67.5 53c-70 -39.333 -132.833 -59 -188.5 -59s-94.334 17 -116.001 51s-32.5 81 -32.5 141v254h-77v65h162v-319c0 -38.667 5 -67.834 15 -87.501s33 -29.5 69 -29.5
s91.667 20 167 60v311h-77zM365.501 580.001c-20.333 -20 -45.667 -30 -76 -30s-56 10.167 -77 30.5s-31.5 44.833 -31.5 73.5s10.667 53.5 32 74.5s47 31.5 77 31.5s55.167 -10.333 75.5 -31s30.5 -45.667 30.5 -75s-10.167 -54 -30.5 -74zM254.5 619.501
c9 -9.66699 20.667 -14.498 35 -14.498s25.666 4.66699 33.999 14s12.5 21.166 12.5 35.499s-4.16699 26.333 -12.5 36s-19.666 14.5 -33.999 14.5s-26 -5 -35 -15s-13.5 -21.833 -13.5 -35.5s4.5 -25.334 13.5 -35.001z" />
    <glyph glyph-name="ycircumflex" unicode="&#x177;" horiz-adv-x="524" 
d="M10 435l0.000976562 65h189v-65h-36l112 -339l105 339h-46v65h180v-65h-47l-145 -435c-25.333 -74 -53.333 -130.167 -84 -168.5s-73.334 -57.5 -128.001 -57.5c-31.333 0 -64.666 6 -99.999 18l24 70c27.333 -8 50.666 -12 69.999 -12c57.333 0 101.333 45.333 132 136
l-164 449h-62zM297.001 735l136 -152l-39 -33l-124 114l-124 -114l-39 33l136 152h54z" />
    <glyph glyph-name="Zacute" unicode="&#x179;" horiz-adv-x="664" 
d="M609 700v-55l-378 -570h311v69h70v-144h-497v55l377 570h-103c-114.667 0 -194.834 -11.167 -240.501 -33.5s-68.5 -57.5 -68.5 -105.5c0 -20 4.33301 -36.5 13 -49.5s21.334 -19.5 38.001 -19.5c31.333 0 47 26.333 47 79h80c0 -43.333 -10 -79.833 -30 -109.5
s-52.333 -44.5 -97 -44.5s-77.667 14 -99 42s-32 62 -32 102c0 65.333 31 117.333 93 156s160.667 58 296 58h220zM514 921l-124 -161l-44 26l97 182z" />
    <glyph glyph-name="zacute" unicode="&#x17a;" horiz-adv-x="447" 
d="M420 144v-144h-397v55l271 370h-189v-73h-70v148h377v-55l-272 -370h210v69h70zM357 714l-124 -161l-44 26l97 182z" />
    <glyph glyph-name="Zcaron" unicode="&#x17d;" horiz-adv-x="664" 
d="M609 700v-55l-378 -570h311v69h70v-144h-497v55l377 570h-103c-114.667 0 -194.834 -11.167 -240.501 -33.5s-68.5 -57.5 -68.5 -105.5c0 -20 4.33301 -36.5 13 -49.5s21.334 -19.5 38.001 -19.5c31.333 0 47 26.333 47 79h80c0 -43.333 -10 -79.833 -30 -109.5
s-52.333 -44.5 -97 -44.5s-77.667 14 -99 42s-32 62 -32 102c0 65.333 31 117.333 93 156s160.667 58 296 58h220zM553 902l-136 -152h-54l-136 152l39 33l124 -114l124 114z" />
    <glyph glyph-name="zcaron" unicode="&#x17e;" horiz-adv-x="447" 
d="M420 144v-144h-397v55l271 370h-189v-73h-70v148h377v-55l-272 -370h210v69h70zM387 706l-136 -152h-54l-136 152l39 33l124 -114l124 114z" />
    <glyph glyph-name="circumflex" unicode="&#x2c6;" horiz-adv-x="503" 
d="M277 935l136 -152l-39 -33l-124 114l-124 -114l-39 33l136 152h54z" />
    <glyph glyph-name="caron" unicode="&#x2c7;" horiz-adv-x="503" 
d="M413 902l-136 -152h-54l-136 152l39 33l124 -114l124 114z" />
    <glyph glyph-name="breve" unicode="&#x2d8;" horiz-adv-x="524" 
d="M255 750c-62 0 -119.671 38.001 -173.004 114.001l44 30c38 -46 73.333 -72.333 106 -79c6.66699 -1.33301 14.334 -2 23.001 -2s16.334 0.666992 23.001 2s15.334 4.33301 26.001 9c22.667 9.33301 49.334 32.666 80.001 69.999l44 -30c-53.333 -76 -111 -114 -173 -114
z" />
    <glyph glyph-name="dotaccent" unicode="&#x2d9;" horiz-adv-x="299" 
d="M122 816c-9.33301 10.667 -14 23.5 -14 38.5s5.16699 28.167 15.5 39.5s22.833 17 37.5 17s26.667 -5.33301 36 -16s14 -23.5 14 -38.5s-5.16699 -28.167 -15.5 -39.5s-22.833 -17 -37.5 -17s-26.667 5.33301 -36 16z" />
    <glyph glyph-name="ring" unicode="&#x2da;" horiz-adv-x="504" 
d="M328.5 780c-20.333 -20 -45.667 -30 -76 -30s-56 10.167 -77 30.5s-31.5 44.833 -31.5 73.5s10.667 53.5 32 74.5s47 31.5 77 31.5s55.167 -10.333 75.5 -31s30.5 -45.667 30.5 -75s-10.167 -54 -30.5 -74zM217.499 819.5c9 -9.66699 20.667 -14.498 35 -14.498
s25.666 4.66699 33.999 14s12.5 21.166 12.5 35.499s-4.16699 26.333 -12.5 36s-19.666 14.5 -33.999 14.5s-26 -5 -35 -15s-13.5 -21.833 -13.5 -35.5s4.5 -25.334 13.5 -35.001z" />
    <glyph glyph-name="tilde" unicode="&#x2dc;" horiz-adv-x="503" 
d="M200 885c20 0 43.5 -5.83301 70.5 -17.5s44.833 -18.834 53.5 -21.501l58 39l32 -24c-19.333 -52.667 -49.666 -79 -90.999 -79c-20 0 -43.5 5.83301 -70.5 17.5s-44.833 18.834 -53.5 21.501l-58 -39l-32 24c19.333 52.667 49.666 79 90.999 79z" />
    <glyph glyph-name="ygrave" unicode="&#x1ef3;" horiz-adv-x="524" 
d="M10 435l0.000976562 65h189v-65h-36l112 -339l105 339h-46v65h180v-65h-47l-145 -435c-25.333 -74 -53.333 -130.167 -84 -168.5s-73.334 -57.5 -128.001 -57.5c-31.333 0 -64.666 6 -99.999 18l24 70c27.333 -8 50.666 -12 69.999 -12c57.333 0 101.333 45.333 132 136
l-164 449h-62zM292.001 560l-124 161l71 47l97 -182z" />
    <glyph glyph-name="endash" unicode="&#x2013;" horiz-adv-x="583" 
d="M553 261h-523v57h523v-57z" />
    <glyph glyph-name="emdash" unicode="&#x2014;" horiz-adv-x="614" 
d="M614 261h-614v57h614v-57z" />
    <glyph glyph-name="quoteleft" unicode="&#x2018;" horiz-adv-x="250" 
d="M156.5 691c7.66699 -12 11.501 -24.999 11.501 -38.999s-5.66699 -26.167 -17 -36.5s-25.333 -15.5 -42 -15.5s-30.834 5.66699 -42.501 17s-17.5 28.833 -17.5 52.5s8 54.5 24 92.5s35.667 69.667 59 95l32 -20c-12.667 -16 -23.5 -35.833 -32.5 -59.5
s-13.5 -44.834 -13.5 -63.501c18 -3.33301 30.833 -11 38.5 -23z" />
    <glyph glyph-name="quoteright" unicode="&#x2019;" horiz-adv-x="250" 
d="M60.5 619c-7.66699 12 -11.501 24.999 -11.501 38.999s5.66699 26.167 17 36.5s25.333 15.5 42 15.5s30.834 -5.66699 42.501 -17s17.5 -28.833 17.5 -52.5s-8 -54.5 -24 -92.5s-35.667 -69.667 -59 -95l-32 20c12.667 16 23.5 35.833 32.5 59.5s13.5 44.834 13.5 63.501
c-18 3.33301 -30.833 11 -38.5 23z" />
    <glyph glyph-name="quotesinglbase" unicode="&#x201a;" horiz-adv-x="250" 
d="M81.5 14c-7.66699 12 -11.501 24.999 -11.501 38.999s5.66699 26.167 17 36.5s25.333 15.5 42 15.5s30.834 -5.66699 42.501 -17s17.5 -28.833 17.5 -52.5s-8 -54.5 -24 -92.5s-35.667 -69.667 -59 -95l-32 20c12.667 16 23.5 35.833 32.5 59.5s13.5 44.834 13.5 63.501
c-18 3.33301 -30.833 11 -38.5 23z" />
    <glyph glyph-name="quotedblleft" unicode="&#x201c;" horiz-adv-x="431" 
d="M337.5 691c7.66699 -12 11.501 -24.999 11.501 -38.999s-5.66699 -26.167 -17 -36.5s-25.333 -15.5 -42 -15.5s-30.834 5.66699 -42.501 17s-17.5 28.833 -17.5 52.5s8 54.5 24 92.5s35.667 69.667 59 95l32 -20c-12.667 -16 -23.5 -35.833 -32.5 -59.5
s-13.5 -44.834 -13.5 -63.501c18 -3.33301 30.833 -11 38.5 -23zM156.501 691.001c7.66699 -12 11.501 -24.999 11.501 -38.999s-5.66699 -26.167 -17 -36.5s-25.333 -15.5 -42 -15.5s-30.834 5.66699 -42.501 17s-17.5 28.833 -17.5 52.5s8 54.5 24 92.5
s35.667 69.667 59 95l32 -20c-12.667 -16 -23.5 -35.833 -32.5 -59.5s-13.5 -44.834 -13.5 -63.501c18 -3.33301 30.833 -11 38.5 -23z" />
    <glyph glyph-name="quotedblright" unicode="&#x201d;" horiz-adv-x="431" 
d="M60.5 619c-7.66699 12 -11.501 24.999 -11.501 38.999s5.66699 26.167 17 36.5s25.333 15.5 42 15.5s30.834 -5.66699 42.501 -17s17.5 -28.833 17.5 -52.5s-8 -54.5 -24 -92.5s-35.667 -69.667 -59 -95l-32 20c12.667 16 23.5 35.833 32.5 59.5s13.5 44.834 13.5 63.501
c-18 3.33301 -30.833 11 -38.5 23zM241.499 618.999c-7.66699 12 -11.501 24.999 -11.501 38.999s5.66699 26.167 17 36.5s25.333 15.5 42 15.5s30.834 -5.66699 42.501 -17s17.5 -28.833 17.5 -52.5s-8 -54.5 -24 -92.5s-35.667 -69.667 -59 -95l-32 20
c12.667 16 23.5 35.833 32.5 59.5s13.5 44.834 13.5 63.501c-18 3.33301 -30.833 11 -38.5 23z" />
    <glyph glyph-name="quotedblbase" unicode="&#x201e;" horiz-adv-x="431" 
d="M81.5 14c-7.66699 12 -11.501 24.999 -11.501 38.999s5.66699 26.167 17 36.5s25.333 15.5 42 15.5s30.834 -5.66699 42.501 -17s17.5 -28.833 17.5 -52.5s-8 -54.5 -24 -92.5s-35.667 -69.667 -59 -95l-32 20c12.667 16 23.5 35.833 32.5 59.5s13.5 44.834 13.5 63.501
c-18 3.33301 -30.833 11 -38.5 23zM262.499 13.999c-7.66699 12 -11.501 24.999 -11.501 38.999s5.66699 26.167 17 36.5s25.333 15.5 42 15.5s30.834 -5.66699 42.501 -17s17.5 -28.833 17.5 -52.5s-8 -54.5 -24 -92.5s-35.667 -69.667 -59 -95l-32 20
c12.667 16 23.5 35.833 32.5 59.5s13.5 44.834 13.5 63.501c-18 3.33301 -30.833 11 -38.5 23z" />
    <glyph glyph-name="bullet" unicode="&#x2022;" horiz-adv-x="350" 
d="M102 232c-21.333 21.333 -32 47.166 -32 77.499s10.667 56.333 32 78s47.166 32.5 77.499 32.5s56.333 -10.833 78 -32.5s32.5 -47.667 32.5 -78s-10.833 -56.166 -32.5 -77.499s-47.667 -32 -78 -32s-56.166 10.667 -77.499 32z" />
    <glyph glyph-name="guilsinglleft" unicode="&#x2039;" horiz-adv-x="315" 
d="M210 20l-152 156v54l152 156l39 -34l-120 -149l120 -149z" />
    <glyph glyph-name="guilsinglright" unicode="&#x203a;" horiz-adv-x="315" 
d="M257 176l-152 -156l-39 34l120 149l-120 149l39 34l152 -156v-54z" />
    <glyph glyph-name="Euro" unicode="&#x20ac;" horiz-adv-x="647" 
d="M587 423c-21.333 -28 -54.3379 -41.999 -99.0049 -41.999s-77 14.833 -97 44.5s-30 66.167 -30 109.5h80c0 -52.667 15.667 -79 47 -79c16.667 0 29.334 6.5 38.001 19.5s13 29.5 13 49.5c0 32 -14.667 57.5 -44 76.5s-63.666 28.5 -102.999 28.5
c-60.667 0 -111 -20.667 -151 -62s-65 -95 -75 -161h168l-20 -57h-152c0 -17.333 1 -33.333 3 -48h169l-20 -57h-138c16 -53.333 42.833 -95.833 80.5 -127.5s82.834 -47.5 135.501 -47.5c68.667 0 130.334 28.667 185.001 86l61 -50
c-59.333 -77.333 -141.333 -116 -246 -116c-82 0 -150 23 -204 69s-89.333 108 -106 186h-75l20 57h47c-1.33301 10 -2 26 -2 48h-65l20 57h48c10.667 91.333 43.834 164.666 99.501 219.999s128.167 83 217.5 83c60.667 0 113.667 -17.167 159 -51.5s68 -78.833 68 -133.5
c0 -40 -10.667 -74 -32 -102z" />
    <glyph glyph-name=".null" horiz-adv-x="0" 
 />
    <glyph glyph-name="nonmarkingreturn" horiz-adv-x="333" 
 />
    <glyph glyph-name="CR" horiz-adv-x="310" 
 />
  </font>
</defs>
</svg>
